M48
; DRILL file {KiCad (5.1.7-0-10_14)} date Sunday, November 01, 2020 at 07:54:27 PM
; FORMAT={-:-/ absolute / metric / decimal}
; #@! TF.CreationDate,2020-11-01T19:54:27+08:00
; #@! TF.GenerationSoftware,Kicad,Pcbnew,(5.1.7-0-10_14)
; #@! TF.FileFunction,Plated,1,2,PTH
FMAT,2
METRIC
T1C0.400
T2C0.813
T3C1.000
T4C1.300
%
G90
G05
T1
X13.008Y-35.205
X13.008Y-50.205
X13.008Y-54.205
X13.008Y-66.705
X13.008Y-69.205
X23.607Y-81.405
X24.008Y-62.505
X24.107Y-40.105
X24.307Y-43.57
X24.307Y-59.005
X24.403Y-41.61
X31.707Y-54.405
X31.965Y-50.195
X32.008Y-35.205
X32.108Y-69.205
X32.797Y-65.894
X32.932Y-57.805
X33.032Y-38.605
X33.108Y-48.705
X33.807Y-39.205
X34.727Y-62.72
X35.108Y-79.305
X35.407Y-46.005
X35.407Y-60.405
X35.508Y-41.205
X35.508Y-65.105
X37.108Y-81.355
X42.707Y-58.705
X42.707Y-77.705
X42.907Y-39.705
X50.307Y-35.105
X51.008Y-30.505
X51.008Y-45.505
X51.008Y-49.505
X51.008Y-64.505
X51.107Y-26.505
X52.577Y-61.175
X60.677Y-75.535
X60.707Y-56.655
X61.907Y-35.305
X61.907Y-77.205
X62.033Y-73.205
X62.108Y-37.955
X62.233Y-54.605
X62.387Y-36.247
X69.382Y-61.305
X69.382Y-68.405
X70.007Y-28.105
X70.007Y-43.105
X70.007Y-47.105
X70.007Y-62.105
X70.007Y-65.705
X70.407Y-59.705
X70.632Y-31.605
X70.632Y-69.705
X70.707Y-68.405
X71.007Y-32.505
X72.757Y-74.44
X73.307Y-34.105
X73.407Y-53.105
X73.407Y-72.105
X73.507Y-38.905
X73.507Y-76.805
X79.507Y-84.305
X80.807Y-32.605
X80.807Y-51.705
X80.807Y-70.705
X82.907Y-94.105
X89.007Y-30.505
X89.007Y-45.505
X89.007Y-49.505
X89.007Y-64.505
X89.007Y-68.505
X89.407Y-60.305
X90.307Y-92.705
X98.608Y-56.755
X98.807Y-75.705
X99.882Y-37.455
X99.907Y-73.305
X100.007Y-85.205
X100.444Y-35.003
X100.597Y-35.88
X100.858Y-54.905
X102.707Y-95.605
X108.007Y-32.805
X108.007Y-47.905
X108.007Y-51.805
X108.007Y-66.805
X108.007Y-70.805
X108.408Y-62.805
X108.632Y-74.405
X108.863Y-36.394
X109.563Y-36.805
X110.207Y-96.705
X111.307Y-57.805
X111.407Y-38.905
X111.407Y-76.905
X111.407Y-81.805
X111.507Y-43.705
X117.907Y-59.105
X118.608Y-56.405
X118.807Y-37.405
X118.807Y-75.405
X118.907Y-55.105
X119.007Y-82.605
X122.607Y-99.005
X123.607Y-54.205
X124.607Y-69.005
X124.807Y-36.305
X124.807Y-70.805
X124.958Y-40.905
X126.297Y-77.305
X126.494Y-86.382
X132.707Y-101.105
X135.201Y-94.112
X135.547Y-78.96
X160.338Y-94.635
X161.808Y-77.705
X165.207Y-100.455
X166.887Y-86.675
X167.111Y-85.628
X171.064Y-31.389
X171.787Y-60.895
X171.857Y-40.305
X171.934Y-36.205
X172.537Y-58.715
X172.707Y-52.045
X173.357Y-41.015
X173.357Y-46.265
X174.297Y-63.015
X174.417Y-70.675
X174.507Y-32.805
X174.507Y-47.805
X174.507Y-66.905
X174.607Y-51.905
X175.232Y-58.415
X175.232Y-62.5
X176.987Y-74.685
X177.037Y-82.385
X177.042Y-83.655
X177.253Y-44.469
X177.707Y-77.035
X177.778Y-36.645
X177.938Y-57.865
X178.038Y-38.905
X181.188Y-88.895
X185.338Y-56.385
X185.367Y-75.525
X186.947Y-97.485
X193.137Y-61.875
X193.507Y-30.405
X193.507Y-45.505
X193.507Y-49.305
X193.507Y-64.505
X193.517Y-68.325
X196.857Y-74.365
X196.907Y-55.365
X203.087Y-84.335
X204.327Y-73.235
X204.397Y-54.145
X204.438Y-35.185
X212.107Y-59.02
X212.507Y-28.005
X212.507Y-43.105
X212.507Y-47.105
X212.507Y-62.205
X212.558Y-65.985
X213.147Y-58.98
X213.767Y-92.735
X214.327Y-75.765
X215.152Y-39.709
X215.218Y-77.775
X215.257Y-69.915
X215.297Y-32.055
X215.897Y-53.155
X216.007Y-72.135
X216.047Y-34.105
X223.232Y-51.89
X223.267Y-70.725
X231.234Y-58.513
X231.507Y-30.305
X231.507Y-45.505
X231.607Y-49.505
X231.607Y-64.505
X234.907Y-74.355
X234.977Y-55.355
X242.277Y-54.295
X242.337Y-35.145
X249.998Y-64.1
X250.507Y-35.105
X250.507Y-50.305
X250.507Y-54.205
X250.507Y-69.205
X253.172Y-65.734
X253.315Y-46.957
X253.577Y-58.005
X253.757Y-38.945
X254.007Y-60.425
X254.167Y-41.355
X261.308Y-58.745
X261.327Y-77.755
X269.262Y-62.383
X269.282Y-47.215
X269.507Y-69.305
X269.548Y-66.55
X269.593Y-50.205
X269.608Y-35.205
X269.618Y-54.555
X272.977Y-60.175
X273.118Y-79.255
X280.317Y-39.965
X280.368Y-58.895
T2
X130.948Y-67.028
X133.488Y-67.028
X136.028Y-67.028
X138.569Y-67.028
X154.379Y-31.912
X154.379Y-34.452
X154.379Y-36.992
X154.379Y-39.532
X154.379Y-42.072
X154.379Y-44.612
X154.379Y-47.152
X154.379Y-49.692
X154.379Y-52.232
X154.379Y-54.772
X154.379Y-57.312
X154.379Y-59.852
X169.599Y-31.912
X169.599Y-34.452
X169.599Y-36.992
X169.599Y-39.532
X169.599Y-42.072
X169.599Y-44.612
X169.599Y-47.152
X169.599Y-49.692
X169.599Y-52.232
X169.599Y-54.772
X169.599Y-57.312
X169.599Y-59.852
X127.204Y-31.942
X127.204Y-34.482
X127.204Y-37.022
X127.204Y-39.562
X127.204Y-42.102
X127.204Y-44.642
X127.204Y-47.182
X127.204Y-49.722
X127.204Y-52.262
X127.204Y-54.802
X127.204Y-57.342
X127.204Y-59.882
X142.424Y-31.942
X142.424Y-34.482
X142.424Y-37.022
X142.424Y-39.562
X142.424Y-42.102
X142.424Y-44.642
X142.424Y-47.182
X142.424Y-49.722
X142.424Y-52.262
X142.424Y-54.802
X142.424Y-57.342
X142.424Y-59.882
X158.177Y-67.02
X160.718Y-67.02
X163.257Y-67.02
X165.797Y-67.02
T4
X142.424Y-63.281
X142.424Y-69.781
X154.304Y-63.272
X154.304Y-69.772
T3
G00X155.588Y-72.17
M15
G01X156.088Y-72.17
M16
G05
G00X158.588Y-72.17
M15
G01X159.088Y-72.17
M16
G05
G00X162.588Y-72.17
M15
G01X163.088Y-72.17
M16
G05
G00X164.088Y-76.37
M15
G01X164.588Y-76.37
M16
G05
G00X132.584Y-72.192
M15
G01X132.084Y-72.192
M16
G05
G00X134.084Y-76.392
M15
G01X133.584Y-76.392
M16
G05
G00X138.084Y-76.392
M15
G01X137.584Y-76.392
M16
G05
G00X141.084Y-76.392
M15
G01X140.584Y-76.392
M16
G05
T0
M30
