M48
; DRILL file {KiCad (5.1.7-0-10_14)} date Sunday, November 01, 2020 at 07:54:27 PM
; FORMAT={-:-/ absolute / metric / decimal}
; #@! TF.CreationDate,2020-11-01T19:54:27+08:00
; #@! TF.GenerationSoftware,Kicad,Pcbnew,(5.1.7-0-10_14)
; #@! TF.FileFunction,NonPlated,1,2,NPTH
FMAT,2
METRIC
T1C0.300
T2C1.200
T3C1.900
T4C2.200
T5C3.000
T6C4.100
T7C4.300
%
G90
G05
T1
X198.362Y-21.885
X198.956Y-21.885
X199.55Y-21.885
X200.144Y-21.885
X200.737Y-21.885
X201.331Y-21.885
X201.925Y-21.885
X202.519Y-21.885
X203.112Y-21.885
X55.748Y-83.178
X56.342Y-83.178
X56.936Y-83.178
X57.53Y-83.178
X58.123Y-83.178
X58.717Y-83.178
X59.311Y-83.178
X59.905Y-83.178
X60.498Y-83.178
X55.862Y-21.869
X56.456Y-21.869
X57.049Y-21.869
X57.643Y-21.869
X58.237Y-21.869
X58.831Y-21.869
X59.424Y-21.869
X60.018Y-21.869
X60.612Y-21.869
X17.787Y-83.176
X18.381Y-83.176
X18.975Y-83.176
X19.569Y-83.176
X20.162Y-83.176
X20.756Y-83.176
X21.35Y-83.176
X21.944Y-83.176
X22.537Y-83.176
X236.367Y-83.193
X236.96Y-83.193
X237.554Y-83.193
X238.148Y-83.193
X238.742Y-83.193
X239.335Y-83.193
X239.929Y-83.193
X240.523Y-83.193
X241.117Y-83.193
X274.28Y-83.183
X274.874Y-83.183
X275.468Y-83.183
X276.062Y-83.183
X276.655Y-83.183
X277.249Y-83.183
X277.843Y-83.183
X278.437Y-83.183
X279.03Y-83.183
X93.832Y-21.873
X94.426Y-21.873
X95.02Y-21.873
X95.614Y-21.873
X96.207Y-21.873
X96.801Y-21.873
X97.395Y-21.873
X97.989Y-21.873
X98.582Y-21.873
X236.274Y-21.87
X236.868Y-21.87
X237.462Y-21.87
X238.056Y-21.87
X238.649Y-21.87
X239.243Y-21.87
X239.837Y-21.87
X240.431Y-21.87
X241.024Y-21.87
T2
X154.037Y-74.27
X161.037Y-74.27
X135.635Y-74.292
X142.635Y-74.292
T3
X271.534Y-73.775
X281.695Y-73.775
X15.027Y-35.78
X25.188Y-35.78
X53.027Y-31.03
X63.188Y-31.03
X214.534Y-28.65
X224.694Y-28.65
X195.534Y-31.025
X205.694Y-31.025
X176.534Y-52.4
X186.695Y-52.4
X176.534Y-71.4
X186.695Y-71.4
X15.027Y-73.78
X25.188Y-73.78
X110.027Y-71.405
X120.188Y-71.405
X233.534Y-69.025
X243.694Y-69.025
X195.534Y-69.025
X205.694Y-69.025
X34.027Y-35.78
X44.188Y-35.78
X72.028Y-28.655
X82.188Y-28.655
X176.528Y-33.405
X186.688Y-33.405
X271.534Y-54.775
X281.695Y-54.775
X252.534Y-73.775
X262.695Y-73.775
X81.528Y-88.655
X91.688Y-88.655
X102.701Y-90.09
X112.514Y-92.72
X205.034Y-88.65
X215.194Y-88.65
X91.027Y-31.03
X101.188Y-31.03
X110.027Y-52.405
X120.188Y-52.405
X252.534Y-54.775
X262.695Y-54.775
X214.534Y-66.65
X224.694Y-66.65
X271.534Y-35.775
X281.695Y-35.775
X252.534Y-35.775
X262.695Y-35.775
X127.317Y-99.554
X132.398Y-90.756
X184.208Y-92.715
X194.021Y-90.085
X53.027Y-50.03
X63.188Y-50.03
X53.027Y-69.03
X63.188Y-69.03
X233.534Y-50.025
X243.694Y-50.025
X34.027Y-73.78
X44.188Y-73.78
X15.027Y-54.78
X25.188Y-54.78
X233.534Y-31.025
X243.694Y-31.025
X164.325Y-90.751
X169.404Y-99.549
X72.028Y-47.655
X82.188Y-47.655
X91.027Y-50.03
X101.188Y-50.03
X72.028Y-66.655
X82.188Y-66.655
X214.534Y-47.65
X224.694Y-47.65
X195.534Y-50.025
X205.694Y-50.025
X34.027Y-54.78
X44.188Y-54.78
X110.027Y-33.405
X120.188Y-33.405
X91.027Y-69.03
X101.188Y-69.03
T4
X142.302Y-82.775
X154.418Y-82.785
X127.869Y-74.254
X168.85Y-74.264
T5
X234.804Y-47.485
X241.154Y-44.945
X35.297Y-71.24
X41.648Y-68.7
X16.297Y-52.24
X22.647Y-49.7
X234.804Y-28.485
X241.154Y-25.945
X167.159Y-90.58
X172.534Y-94.81
X73.297Y-45.115
X79.647Y-42.575
X92.297Y-47.49
X98.647Y-44.95
X73.297Y-64.115
X79.647Y-61.575
X215.804Y-45.11
X222.154Y-42.57
X196.804Y-47.485
X203.154Y-44.945
X35.297Y-52.24
X41.648Y-49.7
X111.297Y-30.865
X117.647Y-28.325
X92.297Y-66.49
X98.647Y-63.95
X272.804Y-71.235
X279.154Y-68.695
X16.297Y-33.24
X22.647Y-30.7
X54.297Y-28.49
X60.647Y-25.95
X215.804Y-26.11
X222.154Y-23.57
X196.804Y-28.485
X203.154Y-25.945
X177.804Y-49.86
X184.154Y-47.32
X177.804Y-68.86
X184.154Y-66.32
X16.297Y-71.24
X22.647Y-68.7
X111.297Y-68.865
X117.647Y-66.325
X234.804Y-66.485
X241.154Y-63.945
X196.804Y-66.485
X203.154Y-63.945
X35.297Y-33.24
X41.648Y-30.7
X73.297Y-26.115
X79.647Y-23.575
X177.797Y-30.865
X184.147Y-28.325
X272.804Y-52.235
X279.154Y-49.695
X253.804Y-71.235
X260.154Y-68.695
X82.797Y-86.115
X89.147Y-83.575
X104.585Y-87.965
X111.376Y-87.155
X206.304Y-86.11
X212.654Y-83.57
X92.297Y-28.49
X98.647Y-25.95
X111.297Y-49.865
X117.647Y-47.325
X253.804Y-52.235
X260.154Y-49.695
X215.804Y-64.11
X222.154Y-61.57
X272.804Y-33.235
X279.154Y-30.695
X253.804Y-33.235
X260.154Y-30.695
X125.753Y-97.185
X126.728Y-90.415
X184.777Y-89.933
X190.253Y-85.836
X54.297Y-47.49
X60.647Y-44.95
X54.297Y-66.49
X60.647Y-63.95
T6
X210.114Y-88.65
X96.108Y-31.03
X115.108Y-52.405
X257.614Y-54.775
X219.614Y-66.65
X276.614Y-35.775
X257.614Y-35.775
X129.857Y-95.155
X189.114Y-91.4
X58.107Y-50.03
X58.107Y-69.03
X238.614Y-50.025
X39.108Y-73.78
X20.107Y-54.78
X238.614Y-31.025
X166.864Y-95.15
X77.108Y-47.655
X96.108Y-50.03
X77.108Y-66.655
X219.614Y-47.65
X200.614Y-50.025
X39.108Y-54.78
X115.108Y-33.405
X96.108Y-69.03
X276.614Y-73.775
X20.107Y-35.78
X58.107Y-31.03
X219.614Y-28.65
X200.614Y-31.025
X181.614Y-52.4
X181.614Y-71.4
X20.107Y-73.78
X115.108Y-71.405
X238.614Y-69.025
X200.614Y-69.025
X39.108Y-35.78
X77.108Y-28.655
X181.607Y-33.405
X276.614Y-54.775
X257.614Y-73.775
X86.608Y-88.655
X107.608Y-91.405
T7
X29.607Y-64.28
X72.764Y-81.52
X29.607Y-45.28
X267.099Y-45.265
X105.575Y-41.765
X267.099Y-64.266
X177.389Y-89.145
X119.331Y-89.135
X223.956Y-81.53
X191.144Y-41.776
T0
M30
