G04 #@! TF.GenerationSoftware,KiCad,Pcbnew,(5.1.7-0-10_14)*
G04 #@! TF.CreationDate,2020-11-01T19:54:18+08:00*
G04 #@! TF.ProjectId,corne-cherry,636f726e-652d-4636-9865-7272792e6b69,3.0.1*
G04 #@! TF.SameCoordinates,Original*
G04 #@! TF.FileFunction,Legend,Bot*
G04 #@! TF.FilePolarity,Positive*
%FSLAX46Y46*%
G04 Gerber Fmt 4.6, Leading zero omitted, Abs format (unit mm)*
G04 Created by KiCad (PCBNEW (5.1.7-0-10_14)) date 2020-11-01 19:54:18*
%MOMM*%
%LPD*%
G01*
G04 APERTURE LIST*
%ADD10C,0.150000*%
%ADD11C,0.500000*%
%ADD12C,0.400000*%
%ADD13C,3.500000*%
%ADD14C,1.000000*%
%ADD15C,3.000000*%
%ADD16C,0.800000*%
%ADD17C,0.300000*%
%ADD18C,0.120000*%
G04 APERTURE END LIST*
D10*
X229336071Y-58237142D02*
X229383690Y-58284761D01*
X229526547Y-58332380D01*
X229621785Y-58332380D01*
X229764642Y-58284761D01*
X229859880Y-58189523D01*
X229907500Y-58094285D01*
X229955119Y-57903809D01*
X229955119Y-57760952D01*
X229907500Y-57570476D01*
X229859880Y-57475238D01*
X229764642Y-57380000D01*
X229621785Y-57332380D01*
X229526547Y-57332380D01*
X229383690Y-57380000D01*
X229336071Y-57427619D01*
X228907500Y-58332380D02*
X228907500Y-57332380D01*
X228478928Y-58332380D02*
X228478928Y-57808571D01*
X228526547Y-57713333D01*
X228621785Y-57665714D01*
X228764642Y-57665714D01*
X228859880Y-57713333D01*
X228907500Y-57760952D01*
X227621785Y-58284761D02*
X227717023Y-58332380D01*
X227907500Y-58332380D01*
X228002738Y-58284761D01*
X228050357Y-58189523D01*
X228050357Y-57808571D01*
X228002738Y-57713333D01*
X227907500Y-57665714D01*
X227717023Y-57665714D01*
X227621785Y-57713333D01*
X227574166Y-57808571D01*
X227574166Y-57903809D01*
X228050357Y-57999047D01*
X227145595Y-58332380D02*
X227145595Y-57665714D01*
X227145595Y-57856190D02*
X227097976Y-57760952D01*
X227050357Y-57713333D01*
X226955119Y-57665714D01*
X226859880Y-57665714D01*
X226526547Y-58332380D02*
X226526547Y-57665714D01*
X226526547Y-57856190D02*
X226478928Y-57760952D01*
X226431309Y-57713333D01*
X226336071Y-57665714D01*
X226240833Y-57665714D01*
X226002738Y-57665714D02*
X225764642Y-58332380D01*
X225526547Y-57665714D02*
X225764642Y-58332380D01*
X225859880Y-58570476D01*
X225907500Y-58618095D01*
X226002738Y-58665714D01*
X224526547Y-57332380D02*
X224193214Y-58332380D01*
X223859880Y-57332380D01*
X223002738Y-58332380D02*
X223574166Y-58332380D01*
X223288452Y-58332380D02*
X223288452Y-57332380D01*
X223383690Y-57475238D01*
X223478928Y-57570476D01*
X223574166Y-57618095D01*
X222574166Y-58237142D02*
X222526547Y-58284761D01*
X222574166Y-58332380D01*
X222621785Y-58284761D01*
X222574166Y-58237142D01*
X222574166Y-58332380D01*
X221907500Y-57332380D02*
X221812261Y-57332380D01*
X221717023Y-57380000D01*
X221669404Y-57427619D01*
X221621785Y-57522857D01*
X221574166Y-57713333D01*
X221574166Y-57951428D01*
X221621785Y-58141904D01*
X221669404Y-58237142D01*
X221717023Y-58284761D01*
X221812261Y-58332380D01*
X221907500Y-58332380D01*
X222002738Y-58284761D01*
X222050357Y-58237142D01*
X222097976Y-58141904D01*
X222145595Y-57951428D01*
X222145595Y-57713333D01*
X222097976Y-57522857D01*
X222050357Y-57427619D01*
X222002738Y-57380000D01*
X221907500Y-57332380D01*
X219621785Y-58332380D02*
X219621785Y-57332380D01*
X219240833Y-57332380D01*
X219145595Y-57380000D01*
X219097976Y-57427619D01*
X219050357Y-57522857D01*
X219050357Y-57665714D01*
X219097976Y-57760952D01*
X219145595Y-57808571D01*
X219240833Y-57856190D01*
X219621785Y-57856190D01*
X218050357Y-58237142D02*
X218097976Y-58284761D01*
X218240833Y-58332380D01*
X218336071Y-58332380D01*
X218478928Y-58284761D01*
X218574166Y-58189523D01*
X218621785Y-58094285D01*
X218669404Y-57903809D01*
X218669404Y-57760952D01*
X218621785Y-57570476D01*
X218574166Y-57475238D01*
X218478928Y-57380000D01*
X218336071Y-57332380D01*
X218240833Y-57332380D01*
X218097976Y-57380000D01*
X218050357Y-57427619D01*
X217288452Y-57808571D02*
X217145595Y-57856190D01*
X217097976Y-57903809D01*
X217050357Y-57999047D01*
X217050357Y-58141904D01*
X217097976Y-58237142D01*
X217145595Y-58284761D01*
X217240833Y-58332380D01*
X217621785Y-58332380D01*
X217621785Y-57332380D01*
X217288452Y-57332380D01*
X217193214Y-57380000D01*
X217145595Y-57427619D01*
X217097976Y-57522857D01*
X217097976Y-57618095D01*
X217145595Y-57713333D01*
X217193214Y-57760952D01*
X217288452Y-57808571D01*
X217621785Y-57808571D01*
X215859880Y-58332380D02*
X215859880Y-57332380D01*
X215859880Y-57713333D02*
X215764642Y-57665714D01*
X215574166Y-57665714D01*
X215478928Y-57713333D01*
X215431309Y-57760952D01*
X215383690Y-57856190D01*
X215383690Y-58141904D01*
X215431309Y-58237142D01*
X215478928Y-58284761D01*
X215574166Y-58332380D01*
X215764642Y-58332380D01*
X215859880Y-58284761D01*
X215050357Y-57665714D02*
X214812261Y-58332380D01*
X214574166Y-57665714D02*
X214812261Y-58332380D01*
X214907500Y-58570476D01*
X214955119Y-58618095D01*
X215050357Y-58665714D01*
X213526547Y-57665714D02*
X213288452Y-58332380D01*
X213050357Y-57665714D01*
X212764642Y-57665714D02*
X212526547Y-58332380D01*
X212288452Y-57665714D01*
X211764642Y-58332380D02*
X211859880Y-58284761D01*
X211907500Y-58189523D01*
X211907500Y-57332380D01*
X210955119Y-58332380D02*
X210955119Y-57808571D01*
X211002738Y-57713333D01*
X211097976Y-57665714D01*
X211288452Y-57665714D01*
X211383690Y-57713333D01*
X210955119Y-58284761D02*
X211050357Y-58332380D01*
X211288452Y-58332380D01*
X211383690Y-58284761D01*
X211431309Y-58189523D01*
X211431309Y-58094285D01*
X211383690Y-57999047D01*
X211288452Y-57951428D01*
X211050357Y-57951428D01*
X210955119Y-57903809D01*
X210478928Y-57665714D02*
X210478928Y-58332380D01*
X210478928Y-57760952D02*
X210431309Y-57713333D01*
X210336071Y-57665714D01*
X210193214Y-57665714D01*
X210097976Y-57713333D01*
X210050357Y-57808571D01*
X210050357Y-58332380D01*
X209145595Y-57665714D02*
X209145595Y-58475238D01*
X209193214Y-58570476D01*
X209240833Y-58618095D01*
X209336071Y-58665714D01*
X209478928Y-58665714D01*
X209574166Y-58618095D01*
X209145595Y-58284761D02*
X209240833Y-58332380D01*
X209431309Y-58332380D01*
X209526547Y-58284761D01*
X209574166Y-58237142D01*
X209621785Y-58141904D01*
X209621785Y-57856190D01*
X209574166Y-57760952D01*
X209526547Y-57713333D01*
X209431309Y-57665714D01*
X209240833Y-57665714D01*
X209145595Y-57713333D01*
X79536071Y-58737142D02*
X79583690Y-58784761D01*
X79726547Y-58832380D01*
X79821785Y-58832380D01*
X79964642Y-58784761D01*
X80059880Y-58689523D01*
X80107500Y-58594285D01*
X80155119Y-58403809D01*
X80155119Y-58260952D01*
X80107500Y-58070476D01*
X80059880Y-57975238D01*
X79964642Y-57880000D01*
X79821785Y-57832380D01*
X79726547Y-57832380D01*
X79583690Y-57880000D01*
X79536071Y-57927619D01*
X79107500Y-58832380D02*
X79107500Y-57832380D01*
X78678928Y-58832380D02*
X78678928Y-58308571D01*
X78726547Y-58213333D01*
X78821785Y-58165714D01*
X78964642Y-58165714D01*
X79059880Y-58213333D01*
X79107500Y-58260952D01*
X77821785Y-58784761D02*
X77917023Y-58832380D01*
X78107500Y-58832380D01*
X78202738Y-58784761D01*
X78250357Y-58689523D01*
X78250357Y-58308571D01*
X78202738Y-58213333D01*
X78107500Y-58165714D01*
X77917023Y-58165714D01*
X77821785Y-58213333D01*
X77774166Y-58308571D01*
X77774166Y-58403809D01*
X78250357Y-58499047D01*
X77345595Y-58832380D02*
X77345595Y-58165714D01*
X77345595Y-58356190D02*
X77297976Y-58260952D01*
X77250357Y-58213333D01*
X77155119Y-58165714D01*
X77059880Y-58165714D01*
X76726547Y-58832380D02*
X76726547Y-58165714D01*
X76726547Y-58356190D02*
X76678928Y-58260952D01*
X76631309Y-58213333D01*
X76536071Y-58165714D01*
X76440833Y-58165714D01*
X76202738Y-58165714D02*
X75964642Y-58832380D01*
X75726547Y-58165714D02*
X75964642Y-58832380D01*
X76059880Y-59070476D01*
X76107500Y-59118095D01*
X76202738Y-59165714D01*
X74726547Y-57832380D02*
X74393214Y-58832380D01*
X74059880Y-57832380D01*
X73202738Y-58832380D02*
X73774166Y-58832380D01*
X73488452Y-58832380D02*
X73488452Y-57832380D01*
X73583690Y-57975238D01*
X73678928Y-58070476D01*
X73774166Y-58118095D01*
X72774166Y-58737142D02*
X72726547Y-58784761D01*
X72774166Y-58832380D01*
X72821785Y-58784761D01*
X72774166Y-58737142D01*
X72774166Y-58832380D01*
X72107500Y-57832380D02*
X72012261Y-57832380D01*
X71917023Y-57880000D01*
X71869404Y-57927619D01*
X71821785Y-58022857D01*
X71774166Y-58213333D01*
X71774166Y-58451428D01*
X71821785Y-58641904D01*
X71869404Y-58737142D01*
X71917023Y-58784761D01*
X72012261Y-58832380D01*
X72107500Y-58832380D01*
X72202738Y-58784761D01*
X72250357Y-58737142D01*
X72297976Y-58641904D01*
X72345595Y-58451428D01*
X72345595Y-58213333D01*
X72297976Y-58022857D01*
X72250357Y-57927619D01*
X72202738Y-57880000D01*
X72107500Y-57832380D01*
X69821785Y-58832380D02*
X69821785Y-57832380D01*
X69440833Y-57832380D01*
X69345595Y-57880000D01*
X69297976Y-57927619D01*
X69250357Y-58022857D01*
X69250357Y-58165714D01*
X69297976Y-58260952D01*
X69345595Y-58308571D01*
X69440833Y-58356190D01*
X69821785Y-58356190D01*
X68250357Y-58737142D02*
X68297976Y-58784761D01*
X68440833Y-58832380D01*
X68536071Y-58832380D01*
X68678928Y-58784761D01*
X68774166Y-58689523D01*
X68821785Y-58594285D01*
X68869404Y-58403809D01*
X68869404Y-58260952D01*
X68821785Y-58070476D01*
X68774166Y-57975238D01*
X68678928Y-57880000D01*
X68536071Y-57832380D01*
X68440833Y-57832380D01*
X68297976Y-57880000D01*
X68250357Y-57927619D01*
X67488452Y-58308571D02*
X67345595Y-58356190D01*
X67297976Y-58403809D01*
X67250357Y-58499047D01*
X67250357Y-58641904D01*
X67297976Y-58737142D01*
X67345595Y-58784761D01*
X67440833Y-58832380D01*
X67821785Y-58832380D01*
X67821785Y-57832380D01*
X67488452Y-57832380D01*
X67393214Y-57880000D01*
X67345595Y-57927619D01*
X67297976Y-58022857D01*
X67297976Y-58118095D01*
X67345595Y-58213333D01*
X67393214Y-58260952D01*
X67488452Y-58308571D01*
X67821785Y-58308571D01*
X66059880Y-58832380D02*
X66059880Y-57832380D01*
X66059880Y-58213333D02*
X65964642Y-58165714D01*
X65774166Y-58165714D01*
X65678928Y-58213333D01*
X65631309Y-58260952D01*
X65583690Y-58356190D01*
X65583690Y-58641904D01*
X65631309Y-58737142D01*
X65678928Y-58784761D01*
X65774166Y-58832380D01*
X65964642Y-58832380D01*
X66059880Y-58784761D01*
X65250357Y-58165714D02*
X65012261Y-58832380D01*
X64774166Y-58165714D02*
X65012261Y-58832380D01*
X65107500Y-59070476D01*
X65155119Y-59118095D01*
X65250357Y-59165714D01*
X63726547Y-58165714D02*
X63488452Y-58832380D01*
X63250357Y-58165714D01*
X62964642Y-58165714D02*
X62726547Y-58832380D01*
X62488452Y-58165714D01*
X61964642Y-58832380D02*
X62059880Y-58784761D01*
X62107500Y-58689523D01*
X62107500Y-57832380D01*
X61155119Y-58832380D02*
X61155119Y-58308571D01*
X61202738Y-58213333D01*
X61297976Y-58165714D01*
X61488452Y-58165714D01*
X61583690Y-58213333D01*
X61155119Y-58784761D02*
X61250357Y-58832380D01*
X61488452Y-58832380D01*
X61583690Y-58784761D01*
X61631309Y-58689523D01*
X61631309Y-58594285D01*
X61583690Y-58499047D01*
X61488452Y-58451428D01*
X61250357Y-58451428D01*
X61155119Y-58403809D01*
X60678928Y-58165714D02*
X60678928Y-58832380D01*
X60678928Y-58260952D02*
X60631309Y-58213333D01*
X60536071Y-58165714D01*
X60393214Y-58165714D01*
X60297976Y-58213333D01*
X60250357Y-58308571D01*
X60250357Y-58832380D01*
X59345595Y-58165714D02*
X59345595Y-58975238D01*
X59393214Y-59070476D01*
X59440833Y-59118095D01*
X59536071Y-59165714D01*
X59678928Y-59165714D01*
X59774166Y-59118095D01*
X59345595Y-58784761D02*
X59440833Y-58832380D01*
X59631309Y-58832380D01*
X59726547Y-58784761D01*
X59774166Y-58737142D01*
X59821785Y-58641904D01*
X59821785Y-58356190D01*
X59774166Y-58260952D01*
X59726547Y-58213333D01*
X59631309Y-58165714D01*
X59440833Y-58165714D01*
X59345595Y-58213333D01*
D11*
X242515595Y-80304761D02*
X241848928Y-82304761D01*
X241182261Y-80304761D01*
X240801309Y-80304761D02*
X240134642Y-82304761D01*
X239467976Y-80304761D01*
X237848928Y-82304761D02*
X238801309Y-82304761D01*
X238801309Y-80304761D01*
X237277500Y-81733333D02*
X236325119Y-81733333D01*
X237467976Y-82304761D02*
X236801309Y-80304761D01*
X236134642Y-82304761D01*
X235467976Y-82304761D02*
X235467976Y-80304761D01*
X234325119Y-82304761D01*
X234325119Y-80304761D01*
X232325119Y-80400000D02*
X232515595Y-80304761D01*
X232801309Y-80304761D01*
X233087023Y-80400000D01*
X233277500Y-80590476D01*
X233372738Y-80780952D01*
X233467976Y-81161904D01*
X233467976Y-81447619D01*
X233372738Y-81828571D01*
X233277500Y-82019047D01*
X233087023Y-82209523D01*
X232801309Y-82304761D01*
X232610833Y-82304761D01*
X232325119Y-82209523D01*
X232229880Y-82114285D01*
X232229880Y-81447619D01*
X232610833Y-81447619D01*
X64715595Y-79034761D02*
X64048928Y-81034761D01*
X63382261Y-79034761D01*
X63001309Y-79034761D02*
X62334642Y-81034761D01*
X61667976Y-79034761D01*
X60048928Y-81034761D02*
X61001309Y-81034761D01*
X61001309Y-79034761D01*
X59477500Y-80463333D02*
X58525119Y-80463333D01*
X59667976Y-81034761D02*
X59001309Y-79034761D01*
X58334642Y-81034761D01*
X57667976Y-81034761D02*
X57667976Y-79034761D01*
X56525119Y-81034761D01*
X56525119Y-79034761D01*
X54525119Y-79130000D02*
X54715595Y-79034761D01*
X55001309Y-79034761D01*
X55287023Y-79130000D01*
X55477500Y-79320476D01*
X55572738Y-79510952D01*
X55667976Y-79891904D01*
X55667976Y-80177619D01*
X55572738Y-80558571D01*
X55477500Y-80749047D01*
X55287023Y-80939523D01*
X55001309Y-81034761D01*
X54810833Y-81034761D01*
X54525119Y-80939523D01*
X54429880Y-80844285D01*
X54429880Y-80177619D01*
X54810833Y-80177619D01*
D12*
X126439937Y-88274392D02*
X125814937Y-89356924D01*
D11*
X126006667Y-99224838D02*
X127231667Y-97103076D01*
D10*
X126341732Y-88044488D02*
X122241732Y-95145897D01*
X127059424Y-94001410D02*
X129459424Y-89844488D01*
X126079872Y-99498044D02*
X127594872Y-96873987D01*
X122837181Y-97914550D02*
X123486700Y-98289550D01*
X122226059Y-97273044D02*
X126079872Y-99498044D01*
X123486700Y-98289550D02*
X123586700Y-98116345D01*
X128583398Y-89361809D02*
X126634841Y-88236809D01*
X129459424Y-89844488D02*
X126341732Y-88044488D01*
D13*
X127000578Y-90503334D02*
X123650578Y-96305704D01*
D14*
X126611348Y-88777501D02*
X128776411Y-90027501D01*
D11*
X129142917Y-89892693D02*
X128449616Y-90993526D01*
D15*
X123355770Y-96216326D02*
X125295667Y-97336326D01*
D16*
X125821859Y-98944935D02*
X124263014Y-98044935D01*
D17*
X123450097Y-98152947D02*
X122887181Y-97827947D01*
D10*
X127578119Y-96860062D02*
G75*
G02*
X127059424Y-94001410I1328080J1717360D01*
G01*
X122837181Y-97914550D02*
G75*
G02*
X122241732Y-95145897I1086602J1682051D01*
G01*
D14*
X127031709Y-97006472D02*
G75*
G02*
X126513014Y-94147820I1328080J1717360D01*
G01*
D12*
X174532063Y-95630608D02*
X173907063Y-94548076D01*
D11*
X165265333Y-89780162D02*
X166490333Y-91901924D01*
D10*
X174780268Y-95660512D02*
X170680267Y-88559103D01*
X169262576Y-93303590D02*
X171662576Y-97460512D01*
X164992128Y-89706956D02*
X166507128Y-92331013D01*
X167984819Y-87690450D02*
X167335300Y-88065450D01*
X168845941Y-87481956D02*
X164992128Y-89706956D01*
X167335300Y-88065450D02*
X167435300Y-88238655D01*
X172518602Y-96943191D02*
X174467159Y-95818191D01*
X171662576Y-97460512D02*
X174780268Y-95660512D01*
D13*
X172321422Y-95001666D02*
X168971422Y-89199296D01*
D14*
X174010652Y-95527499D02*
X171845589Y-96777499D01*
D11*
X171779083Y-97162307D02*
X171172384Y-96011474D01*
D15*
X169196230Y-88988674D02*
X167256333Y-90108674D01*
D16*
X165600141Y-89760065D02*
X167158986Y-88860066D01*
D17*
X167471903Y-88102053D02*
X168034819Y-87777053D01*
D10*
X166527563Y-92323467D02*
G75*
G02*
X169262576Y-93303590I823238J-2008831D01*
G01*
X167984819Y-87690451D02*
G75*
G02*
X170680267Y-88559103I913398J-1782050D01*
G01*
D14*
X166673973Y-91777057D02*
G75*
G02*
X169408986Y-92757180I823238J-2008831D01*
G01*
D18*
X42757500Y-42530000D02*
X35457500Y-42530000D01*
X42757500Y-48030000D02*
X35457500Y-48030000D01*
X35457500Y-48030000D02*
X35457500Y-46880000D01*
X80757500Y-35405000D02*
X73457500Y-35405000D01*
X80757500Y-40905000D02*
X73457500Y-40905000D01*
X73457500Y-40905000D02*
X73457500Y-39755000D01*
X118757500Y-40155000D02*
X111457500Y-40155000D01*
X118757500Y-45655000D02*
X111457500Y-45655000D01*
X111457500Y-45655000D02*
X111457500Y-44505000D01*
X42757500Y-61530000D02*
X35457500Y-61530000D01*
X42757500Y-67030000D02*
X35457500Y-67030000D01*
X35457500Y-67030000D02*
X35457500Y-65880000D01*
X80757500Y-73405000D02*
X73457500Y-73405000D01*
X80757500Y-78905000D02*
X73457500Y-78905000D01*
X73457500Y-78905000D02*
X73457500Y-77755000D01*
X118757500Y-78155000D02*
X111457500Y-78155000D01*
X118757500Y-83655000D02*
X111457500Y-83655000D01*
X111457500Y-83655000D02*
X111457500Y-82505000D01*
X261257500Y-42530000D02*
X253957500Y-42530000D01*
X261257500Y-48030000D02*
X253957500Y-48030000D01*
X253957500Y-48030000D02*
X253957500Y-46880000D01*
X223257500Y-35405000D02*
X215957500Y-35405000D01*
X223257500Y-40905000D02*
X215957500Y-40905000D01*
X215957500Y-40905000D02*
X215957500Y-39755000D01*
X185257500Y-40155000D02*
X177957500Y-40155000D01*
X185257500Y-45655000D02*
X177957500Y-45655000D01*
X177957500Y-45655000D02*
X177957500Y-44505000D01*
X261257500Y-61530000D02*
X253957500Y-61530000D01*
X261257500Y-67030000D02*
X253957500Y-67030000D01*
X253957500Y-67030000D02*
X253957500Y-65880000D01*
X223257500Y-73405000D02*
X215957500Y-73405000D01*
X223257500Y-78905000D02*
X215957500Y-78905000D01*
X215957500Y-78905000D02*
X215957500Y-77755000D01*
X185257500Y-78155000D02*
X177957500Y-78155000D01*
X185257500Y-83655000D02*
X177957500Y-83655000D01*
X177957500Y-83655000D02*
X177957500Y-82505000D01*
X103089815Y-93196791D02*
X110624036Y-95215579D01*
X109666405Y-98789505D02*
X102132184Y-96770717D01*
X102675704Y-94742272D02*
X103089815Y-93196791D01*
X16207500Y-38680000D02*
X24007500Y-38680000D01*
X24007500Y-42380000D02*
X16207500Y-42380000D01*
X16207500Y-40280000D02*
X16207500Y-38680000D01*
X35207500Y-38680000D02*
X43007500Y-38680000D01*
X43007500Y-42380000D02*
X35207500Y-42380000D01*
X35207500Y-40280000D02*
X35207500Y-38680000D01*
X54207500Y-33930000D02*
X62007500Y-33930000D01*
X62007500Y-37630000D02*
X54207500Y-37630000D01*
X54207500Y-35530000D02*
X54207500Y-33930000D01*
X73207500Y-31555000D02*
X81007500Y-31555000D01*
X81007500Y-35255000D02*
X73207500Y-35255000D01*
X73207500Y-33155000D02*
X73207500Y-31555000D01*
X92207500Y-33930000D02*
X100007500Y-33930000D01*
X100007500Y-37630000D02*
X92207500Y-37630000D01*
X92207500Y-35530000D02*
X92207500Y-33930000D01*
X111207500Y-36305000D02*
X119007500Y-36305000D01*
X119007500Y-40005000D02*
X111207500Y-40005000D01*
X111207500Y-37905000D02*
X111207500Y-36305000D01*
X16207500Y-57680000D02*
X24007500Y-57680000D01*
X24007500Y-61380000D02*
X16207500Y-61380000D01*
X16207500Y-59280000D02*
X16207500Y-57680000D01*
X35207500Y-57680000D02*
X43007500Y-57680000D01*
X43007500Y-61380000D02*
X35207500Y-61380000D01*
X35207500Y-59280000D02*
X35207500Y-57680000D01*
X54207500Y-52930000D02*
X62007500Y-52930000D01*
X62007500Y-56630000D02*
X54207500Y-56630000D01*
X54207500Y-54530000D02*
X54207500Y-52930000D01*
X73207500Y-50555000D02*
X81007500Y-50555000D01*
X81007500Y-54255000D02*
X73207500Y-54255000D01*
X73207500Y-52155000D02*
X73207500Y-50555000D01*
X92207500Y-52930000D02*
X100007500Y-52930000D01*
X100007500Y-56630000D02*
X92207500Y-56630000D01*
X92207500Y-54530000D02*
X92207500Y-52930000D01*
X111207500Y-55305000D02*
X119007500Y-55305000D01*
X119007500Y-59005000D02*
X111207500Y-59005000D01*
X111207500Y-56905000D02*
X111207500Y-55305000D01*
X16207500Y-76680000D02*
X24007500Y-76680000D01*
X24007500Y-80380000D02*
X16207500Y-80380000D01*
X16207500Y-78280000D02*
X16207500Y-76680000D01*
X35207500Y-76680000D02*
X43007500Y-76680000D01*
X43007500Y-80380000D02*
X35207500Y-80380000D01*
X35207500Y-78280000D02*
X35207500Y-76680000D01*
X54207500Y-71930000D02*
X62007500Y-71930000D01*
X62007500Y-75630000D02*
X54207500Y-75630000D01*
X54207500Y-73530000D02*
X54207500Y-71930000D01*
X73207500Y-69555000D02*
X81007500Y-69555000D01*
X81007500Y-73255000D02*
X73207500Y-73255000D01*
X73207500Y-71155000D02*
X73207500Y-69555000D01*
X111207500Y-74305000D02*
X119007500Y-74305000D01*
X119007500Y-78005000D02*
X111207500Y-78005000D01*
X111207500Y-75905000D02*
X111207500Y-74305000D01*
X82707500Y-91555000D02*
X90507500Y-91555000D01*
X90507500Y-95255000D02*
X82707500Y-95255000D01*
X82707500Y-93155000D02*
X82707500Y-91555000D01*
X130418974Y-99982499D02*
X134318974Y-93227501D01*
X137523268Y-95077501D02*
X133623268Y-101832499D01*
X131804615Y-100782499D02*
X130418974Y-99982499D01*
X215707500Y-50555000D02*
X223507500Y-50555000D01*
X223507500Y-54255000D02*
X215707500Y-54255000D01*
X215707500Y-52155000D02*
X215707500Y-50555000D01*
X196707500Y-52930000D02*
X204507500Y-52930000D01*
X204507500Y-56630000D02*
X196707500Y-56630000D01*
X196707500Y-54530000D02*
X196707500Y-52930000D01*
X177707500Y-55305000D02*
X185507500Y-55305000D01*
X185507500Y-59005000D02*
X177707500Y-59005000D01*
X177707500Y-56905000D02*
X177707500Y-55305000D01*
X272707500Y-76680000D02*
X280507500Y-76680000D01*
X280507500Y-80380000D02*
X272707500Y-80380000D01*
X272707500Y-78280000D02*
X272707500Y-76680000D01*
X253707500Y-76680000D02*
X261507500Y-76680000D01*
X261507500Y-80380000D02*
X253707500Y-80380000D01*
X253707500Y-78280000D02*
X253707500Y-76680000D01*
X234707500Y-71930000D02*
X242507500Y-71930000D01*
X242507500Y-75630000D02*
X234707500Y-75630000D01*
X234707500Y-73530000D02*
X234707500Y-71930000D01*
X215707500Y-69555000D02*
X223507500Y-69555000D01*
X223507500Y-73255000D02*
X215707500Y-73255000D01*
X215707500Y-71155000D02*
X215707500Y-69555000D01*
X196707500Y-71930000D02*
X204507500Y-71930000D01*
X204507500Y-75630000D02*
X196707500Y-75630000D01*
X196707500Y-73530000D02*
X196707500Y-71930000D01*
X177707500Y-74305000D02*
X185507500Y-74305000D01*
X185507500Y-78005000D02*
X177707500Y-78005000D01*
X177707500Y-75905000D02*
X177707500Y-74305000D01*
X206207500Y-91555000D02*
X214007500Y-91555000D01*
X214007500Y-95255000D02*
X206207500Y-95255000D01*
X206207500Y-93155000D02*
X206207500Y-91555000D01*
X186097964Y-95210579D02*
X193632185Y-93191791D01*
X194589816Y-96765717D02*
X187055595Y-98784505D01*
X186512075Y-96756061D02*
X186097964Y-95210579D01*
X162403026Y-93222501D02*
X166303026Y-99977499D01*
X163098732Y-101827499D02*
X159198732Y-95072501D01*
X161017385Y-94022501D02*
X162403026Y-93222501D01*
X92207500Y-71930000D02*
X100007500Y-71930000D01*
X100007500Y-75630000D02*
X92207500Y-75630000D01*
X92207500Y-73530000D02*
X92207500Y-71930000D01*
X272707500Y-38680000D02*
X280507500Y-38680000D01*
X280507500Y-42380000D02*
X272707500Y-42380000D01*
X272707500Y-40280000D02*
X272707500Y-38680000D01*
X253707500Y-38680000D02*
X261507500Y-38680000D01*
X261507500Y-42380000D02*
X253707500Y-42380000D01*
X253707500Y-40280000D02*
X253707500Y-38680000D01*
X234707500Y-33930000D02*
X242507500Y-33930000D01*
X242507500Y-37630000D02*
X234707500Y-37630000D01*
X234707500Y-35530000D02*
X234707500Y-33930000D01*
X215707500Y-31555000D02*
X223507500Y-31555000D01*
X223507500Y-35255000D02*
X215707500Y-35255000D01*
X215707500Y-33155000D02*
X215707500Y-31555000D01*
X196707500Y-33930000D02*
X204507500Y-33930000D01*
X204507500Y-37630000D02*
X196707500Y-37630000D01*
X196707500Y-35530000D02*
X196707500Y-33930000D01*
X177707500Y-36305000D02*
X185507500Y-36305000D01*
X185507500Y-40005000D02*
X177707500Y-40005000D01*
X177707500Y-37905000D02*
X177707500Y-36305000D01*
X272707500Y-57680000D02*
X280507500Y-57680000D01*
X280507500Y-61380000D02*
X272707500Y-61380000D01*
X272707500Y-59280000D02*
X272707500Y-57680000D01*
X253707500Y-57680000D02*
X261507500Y-57680000D01*
X261507500Y-61380000D02*
X253707500Y-61380000D01*
X253707500Y-59280000D02*
X253707500Y-57680000D01*
X234707500Y-52930000D02*
X242507500Y-52930000D01*
X242507500Y-56630000D02*
X234707500Y-56630000D01*
X234707500Y-54530000D02*
X234707500Y-52930000D01*
D12*
X119357500Y-27005000D02*
X118107500Y-27005000D01*
D11*
X109657500Y-32105000D02*
X112107500Y-32105000D01*
D10*
X119507500Y-26805000D02*
X111307499Y-26805000D01*
X114707500Y-30405000D02*
X119507500Y-30405000D01*
X109457500Y-32305000D02*
X112487500Y-32305000D01*
X109207500Y-28705000D02*
X109207500Y-29455000D01*
X109457500Y-27855000D02*
X109457500Y-32305000D01*
X109207500Y-29455000D02*
X109407500Y-29455000D01*
X119487500Y-29405000D02*
X119487500Y-27155000D01*
X119507500Y-30405000D02*
X119507500Y-26805000D01*
D13*
X117707500Y-28605000D02*
X111007500Y-28605000D01*
D14*
X119007500Y-27405000D02*
X119007500Y-29905000D01*
D11*
X119307500Y-30155000D02*
X118007500Y-30105000D01*
D15*
X110937500Y-28305000D02*
X110937500Y-30545000D01*
D16*
X109807500Y-31805000D02*
X109807500Y-30005001D01*
D17*
X109307500Y-29355000D02*
X109307500Y-28705000D01*
D10*
X112491182Y-32283529D02*
G75*
G02*
X114707500Y-30405000I2151318J-291471D01*
G01*
X109207500Y-28705001D02*
G75*
G02*
X111307499Y-26805000I2000000J-99999D01*
G01*
D14*
X112091182Y-31883529D02*
G75*
G02*
X114307500Y-30005000I2151318J-291471D01*
G01*
D12*
X185864500Y-46000000D02*
X184614500Y-46000000D01*
D11*
X176164500Y-51100000D02*
X178614500Y-51100000D01*
D10*
X186014500Y-45800000D02*
X177814499Y-45800000D01*
X181214500Y-49400000D02*
X186014500Y-49400000D01*
X175964500Y-51300000D02*
X178994500Y-51300000D01*
X175714500Y-47700000D02*
X175714500Y-48450000D01*
X175964500Y-46850000D02*
X175964500Y-51300000D01*
X175714500Y-48450000D02*
X175914500Y-48450000D01*
X185994500Y-48400000D02*
X185994500Y-46150000D01*
X186014500Y-49400000D02*
X186014500Y-45800000D01*
D13*
X184214500Y-47600000D02*
X177514500Y-47600000D01*
D14*
X185514500Y-46400000D02*
X185514500Y-48900000D01*
D11*
X185814500Y-49150000D02*
X184514500Y-49100000D01*
D15*
X177444500Y-47300000D02*
X177444500Y-49540000D01*
D16*
X176314500Y-50800000D02*
X176314500Y-49000001D01*
D17*
X175814500Y-48350000D02*
X175814500Y-47700000D01*
D10*
X178998182Y-51278529D02*
G75*
G02*
X181214500Y-49400000I2151318J-291471D01*
G01*
X175714500Y-47700001D02*
G75*
G02*
X177814499Y-45800000I2000000J-99999D01*
G01*
D14*
X178598182Y-50878529D02*
G75*
G02*
X180814500Y-49000000I2151318J-291471D01*
G01*
D12*
X185864500Y-65000000D02*
X184614500Y-65000000D01*
D11*
X176164500Y-70100000D02*
X178614500Y-70100000D01*
D10*
X186014500Y-64800000D02*
X177814499Y-64800000D01*
X181214500Y-68400000D02*
X186014500Y-68400000D01*
X175964500Y-70300000D02*
X178994500Y-70300000D01*
X175714500Y-66700000D02*
X175714500Y-67450000D01*
X175964500Y-65850000D02*
X175964500Y-70300000D01*
X175714500Y-67450000D02*
X175914500Y-67450000D01*
X185994500Y-67400000D02*
X185994500Y-65150000D01*
X186014500Y-68400000D02*
X186014500Y-64800000D01*
D13*
X184214500Y-66600000D02*
X177514500Y-66600000D01*
D14*
X185514500Y-65400000D02*
X185514500Y-67900000D01*
D11*
X185814500Y-68150000D02*
X184514500Y-68100000D01*
D15*
X177444500Y-66300000D02*
X177444500Y-68540000D01*
D16*
X176314500Y-69800000D02*
X176314500Y-68000001D01*
D17*
X175814500Y-67350000D02*
X175814500Y-66700000D01*
D10*
X178998182Y-70278529D02*
G75*
G02*
X181214500Y-68400000I2151318J-291471D01*
G01*
X175714500Y-66700001D02*
G75*
G02*
X177814499Y-64800000I2000000J-99999D01*
G01*
D14*
X178598182Y-69878529D02*
G75*
G02*
X180814500Y-68000000I2151318J-291471D01*
G01*
D12*
X24357500Y-67380000D02*
X23107500Y-67380000D01*
D11*
X14657500Y-72480000D02*
X17107500Y-72480000D01*
D10*
X24507500Y-67180000D02*
X16307499Y-67180000D01*
X19707500Y-70780000D02*
X24507500Y-70780000D01*
X14457500Y-72680000D02*
X17487500Y-72680000D01*
X14207500Y-69080000D02*
X14207500Y-69830000D01*
X14457500Y-68230000D02*
X14457500Y-72680000D01*
X14207500Y-69830000D02*
X14407500Y-69830000D01*
X24487500Y-69780000D02*
X24487500Y-67530000D01*
X24507500Y-70780000D02*
X24507500Y-67180000D01*
D13*
X22707500Y-68980000D02*
X16007500Y-68980000D01*
D14*
X24007500Y-67780000D02*
X24007500Y-70280000D01*
D11*
X24307500Y-70530000D02*
X23007500Y-70480000D01*
D15*
X15937500Y-68680000D02*
X15937500Y-70920000D01*
D16*
X14807500Y-72180000D02*
X14807500Y-70380001D01*
D17*
X14307500Y-69730000D02*
X14307500Y-69080000D01*
D10*
X17491182Y-72658529D02*
G75*
G02*
X19707500Y-70780000I2151318J-291471D01*
G01*
X14207500Y-69080001D02*
G75*
G02*
X16307499Y-67180000I2000000J-99999D01*
G01*
D14*
X17091182Y-72258529D02*
G75*
G02*
X19307500Y-70380000I2151318J-291471D01*
G01*
D12*
X261864500Y-67375000D02*
X260614500Y-67375000D01*
D11*
X252164500Y-72475000D02*
X254614500Y-72475000D01*
D10*
X262014500Y-67175000D02*
X253814499Y-67175000D01*
X257214500Y-70775000D02*
X262014500Y-70775000D01*
X251964500Y-72675000D02*
X254994500Y-72675000D01*
X251714500Y-69075000D02*
X251714500Y-69825000D01*
X251964500Y-68225000D02*
X251964500Y-72675000D01*
X251714500Y-69825000D02*
X251914500Y-69825000D01*
X261994500Y-69775000D02*
X261994500Y-67525000D01*
X262014500Y-70775000D02*
X262014500Y-67175000D01*
D13*
X260214500Y-68975000D02*
X253514500Y-68975000D01*
D14*
X261514500Y-67775000D02*
X261514500Y-70275000D01*
D11*
X261814500Y-70525000D02*
X260514500Y-70475000D01*
D15*
X253444500Y-68675000D02*
X253444500Y-70915000D01*
D16*
X252314500Y-72175000D02*
X252314500Y-70375001D01*
D17*
X251814500Y-69725000D02*
X251814500Y-69075000D01*
D10*
X254998182Y-72653529D02*
G75*
G02*
X257214500Y-70775000I2151318J-291471D01*
G01*
X251714500Y-69075001D02*
G75*
G02*
X253814499Y-67175000I2000000J-99999D01*
G01*
D14*
X254598182Y-72253529D02*
G75*
G02*
X256814500Y-70375000I2151318J-291471D01*
G01*
D12*
X223864500Y-60250000D02*
X222614500Y-60250000D01*
D11*
X214164500Y-65350000D02*
X216614500Y-65350000D01*
D10*
X224014500Y-60050000D02*
X215814499Y-60050000D01*
X219214500Y-63650000D02*
X224014500Y-63650000D01*
X213964500Y-65550000D02*
X216994500Y-65550000D01*
X213714500Y-61950000D02*
X213714500Y-62700000D01*
X213964500Y-61100000D02*
X213964500Y-65550000D01*
X213714500Y-62700000D02*
X213914500Y-62700000D01*
X223994500Y-62650000D02*
X223994500Y-60400000D01*
X224014500Y-63650000D02*
X224014500Y-60050000D01*
D13*
X222214500Y-61850000D02*
X215514500Y-61850000D01*
D14*
X223514500Y-60650000D02*
X223514500Y-63150000D01*
D11*
X223814500Y-63400000D02*
X222514500Y-63350000D01*
D15*
X215444500Y-61550000D02*
X215444500Y-63790000D01*
D16*
X214314500Y-65050000D02*
X214314500Y-63250001D01*
D17*
X213814500Y-62600000D02*
X213814500Y-61950000D01*
D10*
X216998182Y-65528529D02*
G75*
G02*
X219214500Y-63650000I2151318J-291471D01*
G01*
X213714500Y-61950001D02*
G75*
G02*
X215814499Y-60050000I2000000J-99999D01*
G01*
D14*
X216598182Y-65128529D02*
G75*
G02*
X218814500Y-63250000I2151318J-291471D01*
G01*
D12*
X43357500Y-67380000D02*
X42107500Y-67380000D01*
D11*
X33657500Y-72480000D02*
X36107500Y-72480000D01*
D10*
X43507500Y-67180000D02*
X35307499Y-67180000D01*
X38707500Y-70780000D02*
X43507500Y-70780000D01*
X33457500Y-72680000D02*
X36487500Y-72680000D01*
X33207500Y-69080000D02*
X33207500Y-69830000D01*
X33457500Y-68230000D02*
X33457500Y-72680000D01*
X33207500Y-69830000D02*
X33407500Y-69830000D01*
X43487500Y-69780000D02*
X43487500Y-67530000D01*
X43507500Y-70780000D02*
X43507500Y-67180000D01*
D13*
X41707500Y-68980000D02*
X35007500Y-68980000D01*
D14*
X43007500Y-67780000D02*
X43007500Y-70280000D01*
D11*
X43307500Y-70530000D02*
X42007500Y-70480000D01*
D15*
X34937500Y-68680000D02*
X34937500Y-70920000D01*
D16*
X33807500Y-72180000D02*
X33807500Y-70380001D01*
D17*
X33307500Y-69730000D02*
X33307500Y-69080000D01*
D10*
X36491182Y-72658529D02*
G75*
G02*
X38707500Y-70780000I2151318J-291471D01*
G01*
X33207500Y-69080001D02*
G75*
G02*
X35307499Y-67180000I2000000J-99999D01*
G01*
D14*
X36091182Y-72258529D02*
G75*
G02*
X38307500Y-70380000I2151318J-291471D01*
G01*
D12*
X24357500Y-48380000D02*
X23107500Y-48380000D01*
D11*
X14657500Y-53480000D02*
X17107500Y-53480000D01*
D10*
X24507500Y-48180000D02*
X16307499Y-48180000D01*
X19707500Y-51780000D02*
X24507500Y-51780000D01*
X14457500Y-53680000D02*
X17487500Y-53680000D01*
X14207500Y-50080000D02*
X14207500Y-50830000D01*
X14457500Y-49230000D02*
X14457500Y-53680000D01*
X14207500Y-50830000D02*
X14407500Y-50830000D01*
X24487500Y-50780000D02*
X24487500Y-48530000D01*
X24507500Y-51780000D02*
X24507500Y-48180000D01*
D13*
X22707500Y-49980000D02*
X16007500Y-49980000D01*
D14*
X24007500Y-48780000D02*
X24007500Y-51280000D01*
D11*
X24307500Y-51530000D02*
X23007500Y-51480000D01*
D15*
X15937500Y-49680000D02*
X15937500Y-51920000D01*
D16*
X14807500Y-53180000D02*
X14807500Y-51380001D01*
D17*
X14307500Y-50730000D02*
X14307500Y-50080000D01*
D10*
X17491182Y-53658529D02*
G75*
G02*
X19707500Y-51780000I2151318J-291471D01*
G01*
X14207500Y-50080001D02*
G75*
G02*
X16307499Y-48180000I2000000J-99999D01*
G01*
D14*
X17091182Y-53258529D02*
G75*
G02*
X19307500Y-51380000I2151318J-291471D01*
G01*
D12*
X43357500Y-48380000D02*
X42107500Y-48380000D01*
D11*
X33657500Y-53480000D02*
X36107500Y-53480000D01*
D10*
X43507500Y-48180000D02*
X35307499Y-48180000D01*
X38707500Y-51780000D02*
X43507500Y-51780000D01*
X33457500Y-53680000D02*
X36487500Y-53680000D01*
X33207500Y-50080000D02*
X33207500Y-50830000D01*
X33457500Y-49230000D02*
X33457500Y-53680000D01*
X33207500Y-50830000D02*
X33407500Y-50830000D01*
X43487500Y-50780000D02*
X43487500Y-48530000D01*
X43507500Y-51780000D02*
X43507500Y-48180000D01*
D13*
X41707500Y-49980000D02*
X35007500Y-49980000D01*
D14*
X43007500Y-48780000D02*
X43007500Y-51280000D01*
D11*
X43307500Y-51530000D02*
X42007500Y-51480000D01*
D15*
X34937500Y-49680000D02*
X34937500Y-51920000D01*
D16*
X33807500Y-53180000D02*
X33807500Y-51380001D01*
D17*
X33307500Y-50730000D02*
X33307500Y-50080000D01*
D10*
X36491182Y-53658529D02*
G75*
G02*
X38707500Y-51780000I2151318J-291471D01*
G01*
X33207500Y-50080001D02*
G75*
G02*
X35307499Y-48180000I2000000J-99999D01*
G01*
D14*
X36091182Y-53258529D02*
G75*
G02*
X38307500Y-51380000I2151318J-291471D01*
G01*
D12*
X24357500Y-29380000D02*
X23107500Y-29380000D01*
D11*
X14657500Y-34480000D02*
X17107500Y-34480000D01*
D10*
X24507500Y-29180000D02*
X16307499Y-29180000D01*
X19707500Y-32780000D02*
X24507500Y-32780000D01*
X14457500Y-34680000D02*
X17487500Y-34680000D01*
X14207500Y-31080000D02*
X14207500Y-31830000D01*
X14457500Y-30230000D02*
X14457500Y-34680000D01*
X14207500Y-31830000D02*
X14407500Y-31830000D01*
X24487500Y-31780000D02*
X24487500Y-29530000D01*
X24507500Y-32780000D02*
X24507500Y-29180000D01*
D13*
X22707500Y-30980000D02*
X16007500Y-30980000D01*
D14*
X24007500Y-29780000D02*
X24007500Y-32280000D01*
D11*
X24307500Y-32530000D02*
X23007500Y-32480000D01*
D15*
X15937500Y-30680000D02*
X15937500Y-32920000D01*
D16*
X14807500Y-34180000D02*
X14807500Y-32380001D01*
D17*
X14307500Y-31730000D02*
X14307500Y-31080000D01*
D10*
X17491182Y-34658529D02*
G75*
G02*
X19707500Y-32780000I2151318J-291471D01*
G01*
X14207500Y-31080001D02*
G75*
G02*
X16307499Y-29180000I2000000J-99999D01*
G01*
D14*
X17091182Y-34258529D02*
G75*
G02*
X19307500Y-32380000I2151318J-291471D01*
G01*
D12*
X43357500Y-29380000D02*
X42107500Y-29380000D01*
D11*
X33657500Y-34480000D02*
X36107500Y-34480000D01*
D10*
X43507500Y-29180000D02*
X35307499Y-29180000D01*
X38707500Y-32780000D02*
X43507500Y-32780000D01*
X33457500Y-34680000D02*
X36487500Y-34680000D01*
X33207500Y-31080000D02*
X33207500Y-31830000D01*
X33457500Y-30230000D02*
X33457500Y-34680000D01*
X33207500Y-31830000D02*
X33407500Y-31830000D01*
X43487500Y-31780000D02*
X43487500Y-29530000D01*
X43507500Y-32780000D02*
X43507500Y-29180000D01*
D13*
X41707500Y-30980000D02*
X35007500Y-30980000D01*
D14*
X43007500Y-29780000D02*
X43007500Y-32280000D01*
D11*
X43307500Y-32530000D02*
X42007500Y-32480000D01*
D15*
X34937500Y-30680000D02*
X34937500Y-32920000D01*
D16*
X33807500Y-34180000D02*
X33807500Y-32380001D01*
D17*
X33307500Y-31730000D02*
X33307500Y-31080000D01*
D10*
X36491182Y-34658529D02*
G75*
G02*
X38707500Y-32780000I2151318J-291471D01*
G01*
X33207500Y-31080001D02*
G75*
G02*
X35307499Y-29180000I2000000J-99999D01*
G01*
D14*
X36091182Y-34258529D02*
G75*
G02*
X38307500Y-32380000I2151318J-291471D01*
G01*
D12*
X62357500Y-24630000D02*
X61107500Y-24630000D01*
D11*
X52657500Y-29730000D02*
X55107500Y-29730000D01*
D10*
X62507500Y-24430000D02*
X54307499Y-24430000D01*
X57707500Y-28030000D02*
X62507500Y-28030000D01*
X52457500Y-29930000D02*
X55487500Y-29930000D01*
X52207500Y-26330000D02*
X52207500Y-27080000D01*
X52457500Y-25480000D02*
X52457500Y-29930000D01*
X52207500Y-27080000D02*
X52407500Y-27080000D01*
X62487500Y-27030000D02*
X62487500Y-24780000D01*
X62507500Y-28030000D02*
X62507500Y-24430000D01*
D13*
X60707500Y-26230000D02*
X54007500Y-26230000D01*
D14*
X62007500Y-25030000D02*
X62007500Y-27530000D01*
D11*
X62307500Y-27780000D02*
X61007500Y-27730000D01*
D15*
X53937500Y-25930000D02*
X53937500Y-28170000D01*
D16*
X52807500Y-29430000D02*
X52807500Y-27630001D01*
D17*
X52307500Y-26980000D02*
X52307500Y-26330000D01*
D10*
X55491182Y-29908529D02*
G75*
G02*
X57707500Y-28030000I2151318J-291471D01*
G01*
X52207500Y-26330001D02*
G75*
G02*
X54307499Y-24430000I2000000J-99999D01*
G01*
D14*
X55091182Y-29508529D02*
G75*
G02*
X57307500Y-27630000I2151318J-291471D01*
G01*
D12*
X81357500Y-22255000D02*
X80107500Y-22255000D01*
D11*
X71657500Y-27355000D02*
X74107500Y-27355000D01*
D10*
X81507500Y-22055000D02*
X73307499Y-22055000D01*
X76707500Y-25655000D02*
X81507500Y-25655000D01*
X71457500Y-27555000D02*
X74487500Y-27555000D01*
X71207500Y-23955000D02*
X71207500Y-24705000D01*
X71457500Y-23105000D02*
X71457500Y-27555000D01*
X71207500Y-24705000D02*
X71407500Y-24705000D01*
X81487500Y-24655000D02*
X81487500Y-22405000D01*
X81507500Y-25655000D02*
X81507500Y-22055000D01*
D13*
X79707500Y-23855000D02*
X73007500Y-23855000D01*
D14*
X81007500Y-22655000D02*
X81007500Y-25155000D01*
D11*
X81307500Y-25405000D02*
X80007500Y-25355000D01*
D15*
X72937500Y-23555000D02*
X72937500Y-25795000D01*
D16*
X71807500Y-27055000D02*
X71807500Y-25255001D01*
D17*
X71307500Y-24605000D02*
X71307500Y-23955000D01*
D10*
X74491182Y-27533529D02*
G75*
G02*
X76707500Y-25655000I2151318J-291471D01*
G01*
X71207500Y-23955001D02*
G75*
G02*
X73307499Y-22055000I2000000J-99999D01*
G01*
D14*
X74091182Y-27133529D02*
G75*
G02*
X76307500Y-25255000I2151318J-291471D01*
G01*
D12*
X100357500Y-24630000D02*
X99107500Y-24630000D01*
D11*
X90657500Y-29730000D02*
X93107500Y-29730000D01*
D10*
X100507500Y-24430000D02*
X92307499Y-24430000D01*
X95707500Y-28030000D02*
X100507500Y-28030000D01*
X90457500Y-29930000D02*
X93487500Y-29930000D01*
X90207500Y-26330000D02*
X90207500Y-27080000D01*
X90457500Y-25480000D02*
X90457500Y-29930000D01*
X90207500Y-27080000D02*
X90407500Y-27080000D01*
X100487500Y-27030000D02*
X100487500Y-24780000D01*
X100507500Y-28030000D02*
X100507500Y-24430000D01*
D13*
X98707500Y-26230000D02*
X92007500Y-26230000D01*
D14*
X100007500Y-25030000D02*
X100007500Y-27530000D01*
D11*
X100307500Y-27780000D02*
X99007500Y-27730000D01*
D15*
X91937500Y-25930000D02*
X91937500Y-28170000D01*
D16*
X90807500Y-29430000D02*
X90807500Y-27630001D01*
D17*
X90307500Y-26980000D02*
X90307500Y-26330000D01*
D10*
X93491182Y-29908529D02*
G75*
G02*
X95707500Y-28030000I2151318J-291471D01*
G01*
X90207500Y-26330001D02*
G75*
G02*
X92307499Y-24430000I2000000J-99999D01*
G01*
D14*
X93091182Y-29508529D02*
G75*
G02*
X95307500Y-27630000I2151318J-291471D01*
G01*
D12*
X62357500Y-43630000D02*
X61107500Y-43630000D01*
D11*
X52657500Y-48730000D02*
X55107500Y-48730000D01*
D10*
X62507500Y-43430000D02*
X54307499Y-43430000D01*
X57707500Y-47030000D02*
X62507500Y-47030000D01*
X52457500Y-48930000D02*
X55487500Y-48930000D01*
X52207500Y-45330000D02*
X52207500Y-46080000D01*
X52457500Y-44480000D02*
X52457500Y-48930000D01*
X52207500Y-46080000D02*
X52407500Y-46080000D01*
X62487500Y-46030000D02*
X62487500Y-43780000D01*
X62507500Y-47030000D02*
X62507500Y-43430000D01*
D13*
X60707500Y-45230000D02*
X54007500Y-45230000D01*
D14*
X62007500Y-44030000D02*
X62007500Y-46530000D01*
D11*
X62307500Y-46780000D02*
X61007500Y-46730000D01*
D15*
X53937500Y-44930000D02*
X53937500Y-47170000D01*
D16*
X52807500Y-48430000D02*
X52807500Y-46630001D01*
D17*
X52307500Y-45980000D02*
X52307500Y-45330000D01*
D10*
X55491182Y-48908529D02*
G75*
G02*
X57707500Y-47030000I2151318J-291471D01*
G01*
X52207500Y-45330001D02*
G75*
G02*
X54307499Y-43430000I2000000J-99999D01*
G01*
D14*
X55091182Y-48508529D02*
G75*
G02*
X57307500Y-46630000I2151318J-291471D01*
G01*
D12*
X81357500Y-41255000D02*
X80107500Y-41255000D01*
D11*
X71657500Y-46355000D02*
X74107500Y-46355000D01*
D10*
X81507500Y-41055000D02*
X73307499Y-41055000D01*
X76707500Y-44655000D02*
X81507500Y-44655000D01*
X71457500Y-46555000D02*
X74487500Y-46555000D01*
X71207500Y-42955000D02*
X71207500Y-43705000D01*
X71457500Y-42105000D02*
X71457500Y-46555000D01*
X71207500Y-43705000D02*
X71407500Y-43705000D01*
X81487500Y-43655000D02*
X81487500Y-41405000D01*
X81507500Y-44655000D02*
X81507500Y-41055000D01*
D13*
X79707500Y-42855000D02*
X73007500Y-42855000D01*
D14*
X81007500Y-41655000D02*
X81007500Y-44155000D01*
D11*
X81307500Y-44405000D02*
X80007500Y-44355000D01*
D15*
X72937500Y-42555000D02*
X72937500Y-44795000D01*
D16*
X71807500Y-46055000D02*
X71807500Y-44255001D01*
D17*
X71307500Y-43605000D02*
X71307500Y-42955000D01*
D10*
X74491182Y-46533529D02*
G75*
G02*
X76707500Y-44655000I2151318J-291471D01*
G01*
X71207500Y-42955001D02*
G75*
G02*
X73307499Y-41055000I2000000J-99999D01*
G01*
D14*
X74091182Y-46133529D02*
G75*
G02*
X76307500Y-44255000I2151318J-291471D01*
G01*
D12*
X100357500Y-43630000D02*
X99107500Y-43630000D01*
D11*
X90657500Y-48730000D02*
X93107500Y-48730000D01*
D10*
X100507500Y-43430000D02*
X92307499Y-43430000D01*
X95707500Y-47030000D02*
X100507500Y-47030000D01*
X90457500Y-48930000D02*
X93487500Y-48930000D01*
X90207500Y-45330000D02*
X90207500Y-46080000D01*
X90457500Y-44480000D02*
X90457500Y-48930000D01*
X90207500Y-46080000D02*
X90407500Y-46080000D01*
X100487500Y-46030000D02*
X100487500Y-43780000D01*
X100507500Y-47030000D02*
X100507500Y-43430000D01*
D13*
X98707500Y-45230000D02*
X92007500Y-45230000D01*
D14*
X100007500Y-44030000D02*
X100007500Y-46530000D01*
D11*
X100307500Y-46780000D02*
X99007500Y-46730000D01*
D15*
X91937500Y-44930000D02*
X91937500Y-47170000D01*
D16*
X90807500Y-48430000D02*
X90807500Y-46630001D01*
D17*
X90307500Y-45980000D02*
X90307500Y-45330000D01*
D10*
X93491182Y-48908529D02*
G75*
G02*
X95707500Y-47030000I2151318J-291471D01*
G01*
X90207500Y-45330001D02*
G75*
G02*
X92307499Y-43430000I2000000J-99999D01*
G01*
D14*
X93091182Y-48508529D02*
G75*
G02*
X95307500Y-46630000I2151318J-291471D01*
G01*
D12*
X119357500Y-46005000D02*
X118107500Y-46005000D01*
D11*
X109657500Y-51105000D02*
X112107500Y-51105000D01*
D10*
X119507500Y-45805000D02*
X111307499Y-45805000D01*
X114707500Y-49405000D02*
X119507500Y-49405000D01*
X109457500Y-51305000D02*
X112487500Y-51305000D01*
X109207500Y-47705000D02*
X109207500Y-48455000D01*
X109457500Y-46855000D02*
X109457500Y-51305000D01*
X109207500Y-48455000D02*
X109407500Y-48455000D01*
X119487500Y-48405000D02*
X119487500Y-46155000D01*
X119507500Y-49405000D02*
X119507500Y-45805000D01*
D13*
X117707500Y-47605000D02*
X111007500Y-47605000D01*
D14*
X119007500Y-46405000D02*
X119007500Y-48905000D01*
D11*
X119307500Y-49155000D02*
X118007500Y-49105000D01*
D15*
X110937500Y-47305000D02*
X110937500Y-49545000D01*
D16*
X109807500Y-50805000D02*
X109807500Y-49005001D01*
D17*
X109307500Y-48355000D02*
X109307500Y-47705000D01*
D10*
X112491182Y-51283529D02*
G75*
G02*
X114707500Y-49405000I2151318J-291471D01*
G01*
X109207500Y-47705001D02*
G75*
G02*
X111307499Y-45805000I2000000J-99999D01*
G01*
D14*
X112091182Y-50883529D02*
G75*
G02*
X114307500Y-49005000I2151318J-291471D01*
G01*
D12*
X62357500Y-62630000D02*
X61107500Y-62630000D01*
D11*
X52657500Y-67730000D02*
X55107500Y-67730000D01*
D10*
X62507500Y-62430000D02*
X54307499Y-62430000D01*
X57707500Y-66030000D02*
X62507500Y-66030000D01*
X52457500Y-67930000D02*
X55487500Y-67930000D01*
X52207500Y-64330000D02*
X52207500Y-65080000D01*
X52457500Y-63480000D02*
X52457500Y-67930000D01*
X52207500Y-65080000D02*
X52407500Y-65080000D01*
X62487500Y-65030000D02*
X62487500Y-62780000D01*
X62507500Y-66030000D02*
X62507500Y-62430000D01*
D13*
X60707500Y-64230000D02*
X54007500Y-64230000D01*
D14*
X62007500Y-63030000D02*
X62007500Y-65530000D01*
D11*
X62307500Y-65780000D02*
X61007500Y-65730000D01*
D15*
X53937500Y-63930000D02*
X53937500Y-66170000D01*
D16*
X52807500Y-67430000D02*
X52807500Y-65630001D01*
D17*
X52307500Y-64980000D02*
X52307500Y-64330000D01*
D10*
X55491182Y-67908529D02*
G75*
G02*
X57707500Y-66030000I2151318J-291471D01*
G01*
X52207500Y-64330001D02*
G75*
G02*
X54307499Y-62430000I2000000J-99999D01*
G01*
D14*
X55091182Y-67508529D02*
G75*
G02*
X57307500Y-65630000I2151318J-291471D01*
G01*
D12*
X81357500Y-60255000D02*
X80107500Y-60255000D01*
D11*
X71657500Y-65355000D02*
X74107500Y-65355000D01*
D10*
X81507500Y-60055000D02*
X73307499Y-60055000D01*
X76707500Y-63655000D02*
X81507500Y-63655000D01*
X71457500Y-65555000D02*
X74487500Y-65555000D01*
X71207500Y-61955000D02*
X71207500Y-62705000D01*
X71457500Y-61105000D02*
X71457500Y-65555000D01*
X71207500Y-62705000D02*
X71407500Y-62705000D01*
X81487500Y-62655000D02*
X81487500Y-60405000D01*
X81507500Y-63655000D02*
X81507500Y-60055000D01*
D13*
X79707500Y-61855000D02*
X73007500Y-61855000D01*
D14*
X81007500Y-60655000D02*
X81007500Y-63155000D01*
D11*
X81307500Y-63405000D02*
X80007500Y-63355000D01*
D15*
X72937500Y-61555000D02*
X72937500Y-63795000D01*
D16*
X71807500Y-65055000D02*
X71807500Y-63255001D01*
D17*
X71307500Y-62605000D02*
X71307500Y-61955000D01*
D10*
X74491182Y-65533529D02*
G75*
G02*
X76707500Y-63655000I2151318J-291471D01*
G01*
X71207500Y-61955001D02*
G75*
G02*
X73307499Y-60055000I2000000J-99999D01*
G01*
D14*
X74091182Y-65133529D02*
G75*
G02*
X76307500Y-63255000I2151318J-291471D01*
G01*
D12*
X100357500Y-62630000D02*
X99107500Y-62630000D01*
D11*
X90657500Y-67730000D02*
X93107500Y-67730000D01*
D10*
X100507500Y-62430000D02*
X92307499Y-62430000D01*
X95707500Y-66030000D02*
X100507500Y-66030000D01*
X90457500Y-67930000D02*
X93487500Y-67930000D01*
X90207500Y-64330000D02*
X90207500Y-65080000D01*
X90457500Y-63480000D02*
X90457500Y-67930000D01*
X90207500Y-65080000D02*
X90407500Y-65080000D01*
X100487500Y-65030000D02*
X100487500Y-62780000D01*
X100507500Y-66030000D02*
X100507500Y-62430000D01*
D13*
X98707500Y-64230000D02*
X92007500Y-64230000D01*
D14*
X100007500Y-63030000D02*
X100007500Y-65530000D01*
D11*
X100307500Y-65780000D02*
X99007500Y-65730000D01*
D15*
X91937500Y-63930000D02*
X91937500Y-66170000D01*
D16*
X90807500Y-67430000D02*
X90807500Y-65630001D01*
D17*
X90307500Y-64980000D02*
X90307500Y-64330000D01*
D10*
X93491182Y-67908529D02*
G75*
G02*
X95707500Y-66030000I2151318J-291471D01*
G01*
X90207500Y-64330001D02*
G75*
G02*
X92307499Y-62430000I2000000J-99999D01*
G01*
D14*
X93091182Y-67508529D02*
G75*
G02*
X95307500Y-65630000I2151318J-291471D01*
G01*
D12*
X119357500Y-65005000D02*
X118107500Y-65005000D01*
D11*
X109657500Y-70105000D02*
X112107500Y-70105000D01*
D10*
X119507500Y-64805000D02*
X111307499Y-64805000D01*
X114707500Y-68405000D02*
X119507500Y-68405000D01*
X109457500Y-70305000D02*
X112487500Y-70305000D01*
X109207500Y-66705000D02*
X109207500Y-67455000D01*
X109457500Y-65855000D02*
X109457500Y-70305000D01*
X109207500Y-67455000D02*
X109407500Y-67455000D01*
X119487500Y-67405000D02*
X119487500Y-65155000D01*
X119507500Y-68405000D02*
X119507500Y-64805000D01*
D13*
X117707500Y-66605000D02*
X111007500Y-66605000D01*
D14*
X119007500Y-65405000D02*
X119007500Y-67905000D01*
D11*
X119307500Y-68155000D02*
X118007500Y-68105000D01*
D15*
X110937500Y-66305000D02*
X110937500Y-68545000D01*
D16*
X109807500Y-69805000D02*
X109807500Y-68005001D01*
D17*
X109307500Y-67355000D02*
X109307500Y-66705000D01*
D10*
X112491182Y-70283529D02*
G75*
G02*
X114707500Y-68405000I2151318J-291471D01*
G01*
X109207500Y-66705001D02*
G75*
G02*
X111307499Y-64805000I2000000J-99999D01*
G01*
D14*
X112091182Y-69883529D02*
G75*
G02*
X114307500Y-68005000I2151318J-291471D01*
G01*
D12*
X90857500Y-82255000D02*
X89607500Y-82255000D01*
D11*
X81157500Y-87355000D02*
X83607500Y-87355000D01*
D10*
X91007500Y-82055000D02*
X82807499Y-82055000D01*
X86207500Y-85655000D02*
X91007500Y-85655000D01*
X80957500Y-87555000D02*
X83987500Y-87555000D01*
X80707500Y-83955000D02*
X80707500Y-84705000D01*
X80957500Y-83105000D02*
X80957500Y-87555000D01*
X80707500Y-84705000D02*
X80907500Y-84705000D01*
X90987500Y-84655000D02*
X90987500Y-82405000D01*
X91007500Y-85655000D02*
X91007500Y-82055000D01*
D13*
X89207500Y-83855000D02*
X82507500Y-83855000D01*
D14*
X90507500Y-82655000D02*
X90507500Y-85155000D01*
D11*
X90807500Y-85405000D02*
X89507500Y-85355000D01*
D15*
X82437500Y-83555000D02*
X82437500Y-85795000D01*
D16*
X81307500Y-87055000D02*
X81307500Y-85255001D01*
D17*
X80807500Y-84605000D02*
X80807500Y-83955000D01*
D10*
X83991182Y-87533529D02*
G75*
G02*
X86207500Y-85655000I2151318J-291471D01*
G01*
X80707500Y-83955001D02*
G75*
G02*
X82807499Y-82055000I2000000J-99999D01*
G01*
D14*
X83591182Y-87133529D02*
G75*
G02*
X85807500Y-85255000I2151318J-291471D01*
G01*
D12*
X113369127Y-86323056D02*
X112161719Y-85999532D01*
D11*
X102679669Y-88738733D02*
X105046187Y-89372839D01*
D10*
X113565779Y-86168693D02*
X105645187Y-84046377D01*
X107997587Y-88403695D02*
X112634031Y-89646026D01*
X102434720Y-88880154D02*
X105361475Y-89664376D01*
X103124987Y-85338116D02*
X102930873Y-86062561D01*
X103586465Y-84581784D02*
X102434720Y-88880154D01*
X102930873Y-86062561D02*
X103124058Y-86114324D01*
X112873531Y-88674924D02*
X113455874Y-86501591D01*
X112634031Y-89646026D02*
X113565779Y-86168693D01*
D13*
X111361239Y-87441486D02*
X104889536Y-85707398D01*
D14*
X112927525Y-86618839D02*
X112280477Y-89033654D01*
D11*
X112505550Y-89352781D02*
X111262788Y-88968020D01*
D15*
X104899566Y-85399503D02*
X104319812Y-87563177D01*
D16*
X102902204Y-88487778D02*
X103368078Y-86749112D01*
D17*
X103053347Y-85991850D02*
X103221580Y-85363998D01*
D10*
X105370588Y-89644589D02*
G75*
G02*
X107997587Y-88403695I2002576J-838342D01*
G01*
X103124987Y-85338117D02*
G75*
G02*
X105645187Y-84046377I1905970J-614230D01*
G01*
D14*
X105087746Y-89154692D02*
G75*
G02*
X107714744Y-87913797I2002576J-838341D01*
G01*
D12*
X280864500Y-29375000D02*
X279614500Y-29375000D01*
D11*
X271164500Y-34475000D02*
X273614500Y-34475000D01*
D10*
X281014500Y-29175000D02*
X272814499Y-29175000D01*
X276214500Y-32775000D02*
X281014500Y-32775000D01*
X270964500Y-34675000D02*
X273994500Y-34675000D01*
X270714500Y-31075000D02*
X270714500Y-31825000D01*
X270964500Y-30225000D02*
X270964500Y-34675000D01*
X270714500Y-31825000D02*
X270914500Y-31825000D01*
X280994500Y-31775000D02*
X280994500Y-29525000D01*
X281014500Y-32775000D02*
X281014500Y-29175000D01*
D13*
X279214500Y-30975000D02*
X272514500Y-30975000D01*
D14*
X280514500Y-29775000D02*
X280514500Y-32275000D01*
D11*
X280814500Y-32525000D02*
X279514500Y-32475000D01*
D15*
X272444500Y-30675000D02*
X272444500Y-32915000D01*
D16*
X271314500Y-34175000D02*
X271314500Y-32375001D01*
D17*
X270814500Y-31725000D02*
X270814500Y-31075000D01*
D10*
X273998182Y-34653529D02*
G75*
G02*
X276214500Y-32775000I2151318J-291471D01*
G01*
X270714500Y-31075001D02*
G75*
G02*
X272814499Y-29175000I2000000J-99999D01*
G01*
D14*
X273598182Y-34253529D02*
G75*
G02*
X275814500Y-32375000I2151318J-291471D01*
G01*
D12*
X261864500Y-29375000D02*
X260614500Y-29375000D01*
D11*
X252164500Y-34475000D02*
X254614500Y-34475000D01*
D10*
X262014500Y-29175000D02*
X253814499Y-29175000D01*
X257214500Y-32775000D02*
X262014500Y-32775000D01*
X251964500Y-34675000D02*
X254994500Y-34675000D01*
X251714500Y-31075000D02*
X251714500Y-31825000D01*
X251964500Y-30225000D02*
X251964500Y-34675000D01*
X251714500Y-31825000D02*
X251914500Y-31825000D01*
X261994500Y-31775000D02*
X261994500Y-29525000D01*
X262014500Y-32775000D02*
X262014500Y-29175000D01*
D13*
X260214500Y-30975000D02*
X253514500Y-30975000D01*
D14*
X261514500Y-29775000D02*
X261514500Y-32275000D01*
D11*
X261814500Y-32525000D02*
X260514500Y-32475000D01*
D15*
X253444500Y-30675000D02*
X253444500Y-32915000D01*
D16*
X252314500Y-34175000D02*
X252314500Y-32375001D01*
D17*
X251814500Y-31725000D02*
X251814500Y-31075000D01*
D10*
X254998182Y-34653529D02*
G75*
G02*
X257214500Y-32775000I2151318J-291471D01*
G01*
X251714500Y-31075001D02*
G75*
G02*
X253814499Y-29175000I2000000J-99999D01*
G01*
D14*
X254598182Y-34253529D02*
G75*
G02*
X256814500Y-32375000I2151318J-291471D01*
G01*
D12*
X242864500Y-24625000D02*
X241614500Y-24625000D01*
D11*
X233164500Y-29725000D02*
X235614500Y-29725000D01*
D10*
X243014500Y-24425000D02*
X234814499Y-24425000D01*
X238214500Y-28025000D02*
X243014500Y-28025000D01*
X232964500Y-29925000D02*
X235994500Y-29925000D01*
X232714500Y-26325000D02*
X232714500Y-27075000D01*
X232964500Y-25475000D02*
X232964500Y-29925000D01*
X232714500Y-27075000D02*
X232914500Y-27075000D01*
X242994500Y-27025000D02*
X242994500Y-24775000D01*
X243014500Y-28025000D02*
X243014500Y-24425000D01*
D13*
X241214500Y-26225000D02*
X234514500Y-26225000D01*
D14*
X242514500Y-25025000D02*
X242514500Y-27525000D01*
D11*
X242814500Y-27775000D02*
X241514500Y-27725000D01*
D15*
X234444500Y-25925000D02*
X234444500Y-28165000D01*
D16*
X233314500Y-29425000D02*
X233314500Y-27625001D01*
D17*
X232814500Y-26975000D02*
X232814500Y-26325000D01*
D10*
X235998182Y-29903529D02*
G75*
G02*
X238214500Y-28025000I2151318J-291471D01*
G01*
X232714500Y-26325001D02*
G75*
G02*
X234814499Y-24425000I2000000J-99999D01*
G01*
D14*
X235598182Y-29503529D02*
G75*
G02*
X237814500Y-27625000I2151318J-291471D01*
G01*
D12*
X223864500Y-22250000D02*
X222614500Y-22250000D01*
D11*
X214164500Y-27350000D02*
X216614500Y-27350000D01*
D10*
X224014500Y-22050000D02*
X215814499Y-22050000D01*
X219214500Y-25650000D02*
X224014500Y-25650000D01*
X213964500Y-27550000D02*
X216994500Y-27550000D01*
X213714500Y-23950000D02*
X213714500Y-24700000D01*
X213964500Y-23100000D02*
X213964500Y-27550000D01*
X213714500Y-24700000D02*
X213914500Y-24700000D01*
X223994500Y-24650000D02*
X223994500Y-22400000D01*
X224014500Y-25650000D02*
X224014500Y-22050000D01*
D13*
X222214500Y-23850000D02*
X215514500Y-23850000D01*
D14*
X223514500Y-22650000D02*
X223514500Y-25150000D01*
D11*
X223814500Y-25400000D02*
X222514500Y-25350000D01*
D15*
X215444500Y-23550000D02*
X215444500Y-25790000D01*
D16*
X214314500Y-27050000D02*
X214314500Y-25250001D01*
D17*
X213814500Y-24600000D02*
X213814500Y-23950000D01*
D10*
X216998182Y-27528529D02*
G75*
G02*
X219214500Y-25650000I2151318J-291471D01*
G01*
X213714500Y-23950001D02*
G75*
G02*
X215814499Y-22050000I2000000J-99999D01*
G01*
D14*
X216598182Y-27128529D02*
G75*
G02*
X218814500Y-25250000I2151318J-291471D01*
G01*
D12*
X204864500Y-24625000D02*
X203614500Y-24625000D01*
D11*
X195164500Y-29725000D02*
X197614500Y-29725000D01*
D10*
X205014500Y-24425000D02*
X196814499Y-24425000D01*
X200214500Y-28025000D02*
X205014500Y-28025000D01*
X194964500Y-29925000D02*
X197994500Y-29925000D01*
X194714500Y-26325000D02*
X194714500Y-27075000D01*
X194964500Y-25475000D02*
X194964500Y-29925000D01*
X194714500Y-27075000D02*
X194914500Y-27075000D01*
X204994500Y-27025000D02*
X204994500Y-24775000D01*
X205014500Y-28025000D02*
X205014500Y-24425000D01*
D13*
X203214500Y-26225000D02*
X196514500Y-26225000D01*
D14*
X204514500Y-25025000D02*
X204514500Y-27525000D01*
D11*
X204814500Y-27775000D02*
X203514500Y-27725000D01*
D15*
X196444500Y-25925000D02*
X196444500Y-28165000D01*
D16*
X195314500Y-29425000D02*
X195314500Y-27625001D01*
D17*
X194814500Y-26975000D02*
X194814500Y-26325000D01*
D10*
X197998182Y-29903529D02*
G75*
G02*
X200214500Y-28025000I2151318J-291471D01*
G01*
X194714500Y-26325001D02*
G75*
G02*
X196814499Y-24425000I2000000J-99999D01*
G01*
D14*
X197598182Y-29503529D02*
G75*
G02*
X199814500Y-27625000I2151318J-291471D01*
G01*
D12*
X185857500Y-27005000D02*
X184607500Y-27005000D01*
D11*
X176157500Y-32105000D02*
X178607500Y-32105000D01*
D10*
X186007500Y-26805000D02*
X177807499Y-26805000D01*
X181207500Y-30405000D02*
X186007500Y-30405000D01*
X175957500Y-32305000D02*
X178987500Y-32305000D01*
X175707500Y-28705000D02*
X175707500Y-29455000D01*
X175957500Y-27855000D02*
X175957500Y-32305000D01*
X175707500Y-29455000D02*
X175907500Y-29455000D01*
X185987500Y-29405000D02*
X185987500Y-27155000D01*
X186007500Y-30405000D02*
X186007500Y-26805000D01*
D13*
X184207500Y-28605000D02*
X177507500Y-28605000D01*
D14*
X185507500Y-27405000D02*
X185507500Y-29905000D01*
D11*
X185807500Y-30155000D02*
X184507500Y-30105000D01*
D15*
X177437500Y-28305000D02*
X177437500Y-30545000D01*
D16*
X176307500Y-31805000D02*
X176307500Y-30005001D01*
D17*
X175807500Y-29355000D02*
X175807500Y-28705000D01*
D10*
X178991182Y-32283529D02*
G75*
G02*
X181207500Y-30405000I2151318J-291471D01*
G01*
X175707500Y-28705001D02*
G75*
G02*
X177807499Y-26805000I2000000J-99999D01*
G01*
D14*
X178591182Y-31883529D02*
G75*
G02*
X180807500Y-30005000I2151318J-291471D01*
G01*
D12*
X280864500Y-48375000D02*
X279614500Y-48375000D01*
D11*
X271164500Y-53475000D02*
X273614500Y-53475000D01*
D10*
X281014500Y-48175000D02*
X272814499Y-48175000D01*
X276214500Y-51775000D02*
X281014500Y-51775000D01*
X270964500Y-53675000D02*
X273994500Y-53675000D01*
X270714500Y-50075000D02*
X270714500Y-50825000D01*
X270964500Y-49225000D02*
X270964500Y-53675000D01*
X270714500Y-50825000D02*
X270914500Y-50825000D01*
X280994500Y-50775000D02*
X280994500Y-48525000D01*
X281014500Y-51775000D02*
X281014500Y-48175000D01*
D13*
X279214500Y-49975000D02*
X272514500Y-49975000D01*
D14*
X280514500Y-48775000D02*
X280514500Y-51275000D01*
D11*
X280814500Y-51525000D02*
X279514500Y-51475000D01*
D15*
X272444500Y-49675000D02*
X272444500Y-51915000D01*
D16*
X271314500Y-53175000D02*
X271314500Y-51375001D01*
D17*
X270814500Y-50725000D02*
X270814500Y-50075000D01*
D10*
X273998182Y-53653529D02*
G75*
G02*
X276214500Y-51775000I2151318J-291471D01*
G01*
X270714500Y-50075001D02*
G75*
G02*
X272814499Y-48175000I2000000J-99999D01*
G01*
D14*
X273598182Y-53253529D02*
G75*
G02*
X275814500Y-51375000I2151318J-291471D01*
G01*
D12*
X261864500Y-48375000D02*
X260614500Y-48375000D01*
D11*
X252164500Y-53475000D02*
X254614500Y-53475000D01*
D10*
X262014500Y-48175000D02*
X253814499Y-48175000D01*
X257214500Y-51775000D02*
X262014500Y-51775000D01*
X251964500Y-53675000D02*
X254994500Y-53675000D01*
X251714500Y-50075000D02*
X251714500Y-50825000D01*
X251964500Y-49225000D02*
X251964500Y-53675000D01*
X251714500Y-50825000D02*
X251914500Y-50825000D01*
X261994500Y-50775000D02*
X261994500Y-48525000D01*
X262014500Y-51775000D02*
X262014500Y-48175000D01*
D13*
X260214500Y-49975000D02*
X253514500Y-49975000D01*
D14*
X261514500Y-48775000D02*
X261514500Y-51275000D01*
D11*
X261814500Y-51525000D02*
X260514500Y-51475000D01*
D15*
X253444500Y-49675000D02*
X253444500Y-51915000D01*
D16*
X252314500Y-53175000D02*
X252314500Y-51375001D01*
D17*
X251814500Y-50725000D02*
X251814500Y-50075000D01*
D10*
X254998182Y-53653529D02*
G75*
G02*
X257214500Y-51775000I2151318J-291471D01*
G01*
X251714500Y-50075001D02*
G75*
G02*
X253814499Y-48175000I2000000J-99999D01*
G01*
D14*
X254598182Y-53253529D02*
G75*
G02*
X256814500Y-51375000I2151318J-291471D01*
G01*
D12*
X242864500Y-43625000D02*
X241614500Y-43625000D01*
D11*
X233164500Y-48725000D02*
X235614500Y-48725000D01*
D10*
X243014500Y-43425000D02*
X234814499Y-43425000D01*
X238214500Y-47025000D02*
X243014500Y-47025000D01*
X232964500Y-48925000D02*
X235994500Y-48925000D01*
X232714500Y-45325000D02*
X232714500Y-46075000D01*
X232964500Y-44475000D02*
X232964500Y-48925000D01*
X232714500Y-46075000D02*
X232914500Y-46075000D01*
X242994500Y-46025000D02*
X242994500Y-43775000D01*
X243014500Y-47025000D02*
X243014500Y-43425000D01*
D13*
X241214500Y-45225000D02*
X234514500Y-45225000D01*
D14*
X242514500Y-44025000D02*
X242514500Y-46525000D01*
D11*
X242814500Y-46775000D02*
X241514500Y-46725000D01*
D15*
X234444500Y-44925000D02*
X234444500Y-47165000D01*
D16*
X233314500Y-48425000D02*
X233314500Y-46625001D01*
D17*
X232814500Y-45975000D02*
X232814500Y-45325000D01*
D10*
X235998182Y-48903529D02*
G75*
G02*
X238214500Y-47025000I2151318J-291471D01*
G01*
X232714500Y-45325001D02*
G75*
G02*
X234814499Y-43425000I2000000J-99999D01*
G01*
D14*
X235598182Y-48503529D02*
G75*
G02*
X237814500Y-46625000I2151318J-291471D01*
G01*
D12*
X223864500Y-41250000D02*
X222614500Y-41250000D01*
D11*
X214164500Y-46350000D02*
X216614500Y-46350000D01*
D10*
X224014500Y-41050000D02*
X215814499Y-41050000D01*
X219214500Y-44650000D02*
X224014500Y-44650000D01*
X213964500Y-46550000D02*
X216994500Y-46550000D01*
X213714500Y-42950000D02*
X213714500Y-43700000D01*
X213964500Y-42100000D02*
X213964500Y-46550000D01*
X213714500Y-43700000D02*
X213914500Y-43700000D01*
X223994500Y-43650000D02*
X223994500Y-41400000D01*
X224014500Y-44650000D02*
X224014500Y-41050000D01*
D13*
X222214500Y-42850000D02*
X215514500Y-42850000D01*
D14*
X223514500Y-41650000D02*
X223514500Y-44150000D01*
D11*
X223814500Y-44400000D02*
X222514500Y-44350000D01*
D15*
X215444500Y-42550000D02*
X215444500Y-44790000D01*
D16*
X214314500Y-46050000D02*
X214314500Y-44250001D01*
D17*
X213814500Y-43600000D02*
X213814500Y-42950000D01*
D10*
X216998182Y-46528529D02*
G75*
G02*
X219214500Y-44650000I2151318J-291471D01*
G01*
X213714500Y-42950001D02*
G75*
G02*
X215814499Y-41050000I2000000J-99999D01*
G01*
D14*
X216598182Y-46128529D02*
G75*
G02*
X218814500Y-44250000I2151318J-291471D01*
G01*
D12*
X204864500Y-43625000D02*
X203614500Y-43625000D01*
D11*
X195164500Y-48725000D02*
X197614500Y-48725000D01*
D10*
X205014500Y-43425000D02*
X196814499Y-43425000D01*
X200214500Y-47025000D02*
X205014500Y-47025000D01*
X194964500Y-48925000D02*
X197994500Y-48925000D01*
X194714500Y-45325000D02*
X194714500Y-46075000D01*
X194964500Y-44475000D02*
X194964500Y-48925000D01*
X194714500Y-46075000D02*
X194914500Y-46075000D01*
X204994500Y-46025000D02*
X204994500Y-43775000D01*
X205014500Y-47025000D02*
X205014500Y-43425000D01*
D13*
X203214500Y-45225000D02*
X196514500Y-45225000D01*
D14*
X204514500Y-44025000D02*
X204514500Y-46525000D01*
D11*
X204814500Y-46775000D02*
X203514500Y-46725000D01*
D15*
X196444500Y-44925000D02*
X196444500Y-47165000D01*
D16*
X195314500Y-48425000D02*
X195314500Y-46625001D01*
D17*
X194814500Y-45975000D02*
X194814500Y-45325000D01*
D10*
X197998182Y-48903529D02*
G75*
G02*
X200214500Y-47025000I2151318J-291471D01*
G01*
X194714500Y-45325001D02*
G75*
G02*
X196814499Y-43425000I2000000J-99999D01*
G01*
D14*
X197598182Y-48503529D02*
G75*
G02*
X199814500Y-46625000I2151318J-291471D01*
G01*
D12*
X280864500Y-67375000D02*
X279614500Y-67375000D01*
D11*
X271164500Y-72475000D02*
X273614500Y-72475000D01*
D10*
X281014500Y-67175000D02*
X272814499Y-67175000D01*
X276214500Y-70775000D02*
X281014500Y-70775000D01*
X270964500Y-72675000D02*
X273994500Y-72675000D01*
X270714500Y-69075000D02*
X270714500Y-69825000D01*
X270964500Y-68225000D02*
X270964500Y-72675000D01*
X270714500Y-69825000D02*
X270914500Y-69825000D01*
X280994500Y-69775000D02*
X280994500Y-67525000D01*
X281014500Y-70775000D02*
X281014500Y-67175000D01*
D13*
X279214500Y-68975000D02*
X272514500Y-68975000D01*
D14*
X280514500Y-67775000D02*
X280514500Y-70275000D01*
D11*
X280814500Y-70525000D02*
X279514500Y-70475000D01*
D15*
X272444500Y-68675000D02*
X272444500Y-70915000D01*
D16*
X271314500Y-72175000D02*
X271314500Y-70375001D01*
D17*
X270814500Y-69725000D02*
X270814500Y-69075000D01*
D10*
X273998182Y-72653529D02*
G75*
G02*
X276214500Y-70775000I2151318J-291471D01*
G01*
X270714500Y-69075001D02*
G75*
G02*
X272814499Y-67175000I2000000J-99999D01*
G01*
D14*
X273598182Y-72253529D02*
G75*
G02*
X275814500Y-70375000I2151318J-291471D01*
G01*
D12*
X242864500Y-62625000D02*
X241614500Y-62625000D01*
D11*
X233164500Y-67725000D02*
X235614500Y-67725000D01*
D10*
X243014500Y-62425000D02*
X234814499Y-62425000D01*
X238214500Y-66025000D02*
X243014500Y-66025000D01*
X232964500Y-67925000D02*
X235994500Y-67925000D01*
X232714500Y-64325000D02*
X232714500Y-65075000D01*
X232964500Y-63475000D02*
X232964500Y-67925000D01*
X232714500Y-65075000D02*
X232914500Y-65075000D01*
X242994500Y-65025000D02*
X242994500Y-62775000D01*
X243014500Y-66025000D02*
X243014500Y-62425000D01*
D13*
X241214500Y-64225000D02*
X234514500Y-64225000D01*
D14*
X242514500Y-63025000D02*
X242514500Y-65525000D01*
D11*
X242814500Y-65775000D02*
X241514500Y-65725000D01*
D15*
X234444500Y-63925000D02*
X234444500Y-66165000D01*
D16*
X233314500Y-67425000D02*
X233314500Y-65625001D01*
D17*
X232814500Y-64975000D02*
X232814500Y-64325000D01*
D10*
X235998182Y-67903529D02*
G75*
G02*
X238214500Y-66025000I2151318J-291471D01*
G01*
X232714500Y-64325001D02*
G75*
G02*
X234814499Y-62425000I2000000J-99999D01*
G01*
D14*
X235598182Y-67503529D02*
G75*
G02*
X237814500Y-65625000I2151318J-291471D01*
G01*
D12*
X204864500Y-62625000D02*
X203614500Y-62625000D01*
D11*
X195164500Y-67725000D02*
X197614500Y-67725000D01*
D10*
X205014500Y-62425000D02*
X196814499Y-62425000D01*
X200214500Y-66025000D02*
X205014500Y-66025000D01*
X194964500Y-67925000D02*
X197994500Y-67925000D01*
X194714500Y-64325000D02*
X194714500Y-65075000D01*
X194964500Y-63475000D02*
X194964500Y-67925000D01*
X194714500Y-65075000D02*
X194914500Y-65075000D01*
X204994500Y-65025000D02*
X204994500Y-62775000D01*
X205014500Y-66025000D02*
X205014500Y-62425000D01*
D13*
X203214500Y-64225000D02*
X196514500Y-64225000D01*
D14*
X204514500Y-63025000D02*
X204514500Y-65525000D01*
D11*
X204814500Y-65775000D02*
X203514500Y-65725000D01*
D15*
X196444500Y-63925000D02*
X196444500Y-66165000D01*
D16*
X195314500Y-67425000D02*
X195314500Y-65625001D01*
D17*
X194814500Y-64975000D02*
X194814500Y-64325000D01*
D10*
X197998182Y-67903529D02*
G75*
G02*
X200214500Y-66025000I2151318J-291471D01*
G01*
X194714500Y-64325001D02*
G75*
G02*
X196814499Y-62425000I2000000J-99999D01*
G01*
D14*
X197598182Y-67503529D02*
G75*
G02*
X199814500Y-65625000I2151318J-291471D01*
G01*
D12*
X214364500Y-82250000D02*
X213114500Y-82250000D01*
D11*
X204664500Y-87350000D02*
X207114500Y-87350000D01*
D10*
X214514500Y-82050000D02*
X206314499Y-82050000D01*
X209714500Y-85650000D02*
X214514500Y-85650000D01*
X204464500Y-87550000D02*
X207494500Y-87550000D01*
X204214500Y-83950000D02*
X204214500Y-84700000D01*
X204464500Y-83100000D02*
X204464500Y-87550000D01*
X204214500Y-84700000D02*
X204414500Y-84700000D01*
X214494500Y-84650000D02*
X214494500Y-82400000D01*
X214514500Y-85650000D02*
X214514500Y-82050000D01*
D13*
X212714500Y-83850000D02*
X206014500Y-83850000D01*
D14*
X214014500Y-82650000D02*
X214014500Y-85150000D01*
D11*
X214314500Y-85400000D02*
X213014500Y-85350000D01*
D15*
X205944500Y-83550000D02*
X205944500Y-85790000D01*
D16*
X204814500Y-87050000D02*
X204814500Y-85250001D01*
D17*
X204314500Y-84600000D02*
X204314500Y-83950000D01*
D10*
X207498182Y-87528529D02*
G75*
G02*
X209714500Y-85650000I2151318J-291471D01*
G01*
X204214500Y-83950001D02*
G75*
G02*
X206314499Y-82050000I2000000J-99999D01*
G01*
D14*
X207098182Y-87128529D02*
G75*
G02*
X209314500Y-85250000I2151318J-291471D01*
G01*
D12*
X191563243Y-84118094D02*
X190355836Y-84441618D01*
D11*
X183513739Y-91554860D02*
X185880258Y-90920754D01*
D10*
X191656368Y-83886086D02*
X183735775Y-86008402D01*
X187951673Y-88605750D02*
X192588117Y-87363419D01*
X183372318Y-91799809D02*
X186299073Y-91015587D01*
X182199088Y-88387181D02*
X182393202Y-89111625D01*
X182220573Y-87501439D02*
X183372318Y-91799809D01*
X182393202Y-89111625D02*
X182586388Y-89059862D01*
X192309979Y-86402669D02*
X191727636Y-84229336D01*
X192588117Y-87363419D02*
X191656368Y-83886086D01*
D13*
X190383576Y-86090627D02*
X183911873Y-87824714D01*
D14*
X191328696Y-84595051D02*
X191975744Y-87009865D01*
D11*
X192330227Y-87173701D02*
X191061582Y-87461870D01*
D15*
X183766612Y-87553054D02*
X184346367Y-89716728D01*
D16*
X183580983Y-91226260D02*
X183115109Y-89487594D01*
D17*
X182463913Y-88989151D02*
X182295681Y-88361299D01*
D10*
X186297073Y-90993895D02*
G75*
G02*
X187951673Y-88605750I2153452J275263D01*
G01*
X182199089Y-88387182D02*
G75*
G02*
X183735775Y-86008402I1957733J421047D01*
G01*
D14*
X185807174Y-90711053D02*
G75*
G02*
X187461775Y-88322907I2153453J275263D01*
G01*
D10*
X104207500Y-50530000D02*
X103207500Y-50530000D01*
X103707500Y-50430000D02*
X104207500Y-49530000D01*
X103207500Y-49530000D02*
X103707500Y-50430000D01*
X104207500Y-49530000D02*
X103207500Y-49530000D01*
X104457500Y-47330000D02*
X102957500Y-47330000D01*
X104457500Y-52730000D02*
X102957500Y-52730000D01*
X104457500Y-47330000D02*
X104457500Y-52730000D01*
X102957500Y-52730000D02*
X102957500Y-47330000D01*
X66207500Y-50530000D02*
X65207500Y-50530000D01*
X65707500Y-50430000D02*
X66207500Y-49530000D01*
X65207500Y-49530000D02*
X65707500Y-50430000D01*
X66207500Y-49530000D02*
X65207500Y-49530000D01*
X66457500Y-47330000D02*
X64957500Y-47330000D01*
X66457500Y-52730000D02*
X64957500Y-52730000D01*
X66457500Y-47330000D02*
X66457500Y-52730000D01*
X64957500Y-52730000D02*
X64957500Y-47330000D01*
X227714500Y-29150000D02*
X226714500Y-29150000D01*
X227214500Y-29050000D02*
X227714500Y-28150000D01*
X226714500Y-28150000D02*
X227214500Y-29050000D01*
X227714500Y-28150000D02*
X226714500Y-28150000D01*
X227964500Y-25950000D02*
X226464500Y-25950000D01*
X227964500Y-31350000D02*
X226464500Y-31350000D01*
X227964500Y-25950000D02*
X227964500Y-31350000D01*
X226464500Y-31350000D02*
X226464500Y-25950000D01*
X28234500Y-36276875D02*
X27234500Y-36276875D01*
X27734500Y-36176875D02*
X28234500Y-35276875D01*
X27234500Y-35276875D02*
X27734500Y-36176875D01*
X28234500Y-35276875D02*
X27234500Y-35276875D01*
X28484500Y-33076875D02*
X26984500Y-33076875D01*
X28484500Y-38476875D02*
X26984500Y-38476875D01*
X28484500Y-33076875D02*
X28484500Y-38476875D01*
X26984500Y-38476875D02*
X26984500Y-33076875D01*
X47234500Y-36280000D02*
X46234500Y-36280000D01*
X46734500Y-36180000D02*
X47234500Y-35280000D01*
X46234500Y-35280000D02*
X46734500Y-36180000D01*
X47234500Y-35280000D02*
X46234500Y-35280000D01*
X47484500Y-33080000D02*
X45984500Y-33080000D01*
X47484500Y-38480000D02*
X45984500Y-38480000D01*
X47484500Y-33080000D02*
X47484500Y-38480000D01*
X45984500Y-38480000D02*
X45984500Y-33080000D01*
X66207500Y-31280000D02*
X65207500Y-31280000D01*
X65707500Y-31180000D02*
X66207500Y-30280000D01*
X65207500Y-30280000D02*
X65707500Y-31180000D01*
X66207500Y-30280000D02*
X65207500Y-30280000D01*
X66457500Y-28080000D02*
X64957500Y-28080000D01*
X66457500Y-33480000D02*
X64957500Y-33480000D01*
X66457500Y-28080000D02*
X66457500Y-33480000D01*
X64957500Y-33480000D02*
X64957500Y-28080000D01*
X85207500Y-29155000D02*
X84207500Y-29155000D01*
X84707500Y-29055000D02*
X85207500Y-28155000D01*
X84207500Y-28155000D02*
X84707500Y-29055000D01*
X85207500Y-28155000D02*
X84207500Y-28155000D01*
X85457500Y-25955000D02*
X83957500Y-25955000D01*
X85457500Y-31355000D02*
X83957500Y-31355000D01*
X85457500Y-25955000D02*
X85457500Y-31355000D01*
X83957500Y-31355000D02*
X83957500Y-25955000D01*
X104207500Y-31530000D02*
X103207500Y-31530000D01*
X103707500Y-31430000D02*
X104207500Y-30530000D01*
X103207500Y-30530000D02*
X103707500Y-31430000D01*
X104207500Y-30530000D02*
X103207500Y-30530000D01*
X104457500Y-28330000D02*
X102957500Y-28330000D01*
X104457500Y-33730000D02*
X102957500Y-33730000D01*
X104457500Y-28330000D02*
X104457500Y-33730000D01*
X102957500Y-33730000D02*
X102957500Y-28330000D01*
X123207500Y-33905000D02*
X122207500Y-33905000D01*
X122707500Y-33805000D02*
X123207500Y-32905000D01*
X122207500Y-32905000D02*
X122707500Y-33805000D01*
X123207500Y-32905000D02*
X122207500Y-32905000D01*
X123457500Y-30705000D02*
X121957500Y-30705000D01*
X123457500Y-36105000D02*
X121957500Y-36105000D01*
X123457500Y-30705000D02*
X123457500Y-36105000D01*
X121957500Y-36105000D02*
X121957500Y-30705000D01*
X28234500Y-55276875D02*
X27234500Y-55276875D01*
X27734500Y-55176875D02*
X28234500Y-54276875D01*
X27234500Y-54276875D02*
X27734500Y-55176875D01*
X28234500Y-54276875D02*
X27234500Y-54276875D01*
X28484500Y-52076875D02*
X26984500Y-52076875D01*
X28484500Y-57476875D02*
X26984500Y-57476875D01*
X28484500Y-52076875D02*
X28484500Y-57476875D01*
X26984500Y-57476875D02*
X26984500Y-52076875D01*
X47234500Y-55280000D02*
X46234500Y-55280000D01*
X46734500Y-55180000D02*
X47234500Y-54280000D01*
X46234500Y-54280000D02*
X46734500Y-55180000D01*
X47234500Y-54280000D02*
X46234500Y-54280000D01*
X47484500Y-52080000D02*
X45984500Y-52080000D01*
X47484500Y-57480000D02*
X45984500Y-57480000D01*
X47484500Y-52080000D02*
X47484500Y-57480000D01*
X45984500Y-57480000D02*
X45984500Y-52080000D01*
X85207500Y-48155000D02*
X84207500Y-48155000D01*
X84707500Y-48055000D02*
X85207500Y-47155000D01*
X84207500Y-47155000D02*
X84707500Y-48055000D01*
X85207500Y-47155000D02*
X84207500Y-47155000D01*
X85457500Y-44955000D02*
X83957500Y-44955000D01*
X85457500Y-50355000D02*
X83957500Y-50355000D01*
X85457500Y-44955000D02*
X85457500Y-50355000D01*
X83957500Y-50355000D02*
X83957500Y-44955000D01*
X123207500Y-52905000D02*
X122207500Y-52905000D01*
X122707500Y-52805000D02*
X123207500Y-51905000D01*
X122207500Y-51905000D02*
X122707500Y-52805000D01*
X123207500Y-51905000D02*
X122207500Y-51905000D01*
X123457500Y-49705000D02*
X121957500Y-49705000D01*
X123457500Y-55105000D02*
X121957500Y-55105000D01*
X123457500Y-49705000D02*
X123457500Y-55105000D01*
X121957500Y-55105000D02*
X121957500Y-49705000D01*
X28234500Y-74276875D02*
X27234500Y-74276875D01*
X27734500Y-74176875D02*
X28234500Y-73276875D01*
X27234500Y-73276875D02*
X27734500Y-74176875D01*
X28234500Y-73276875D02*
X27234500Y-73276875D01*
X28484500Y-71076875D02*
X26984500Y-71076875D01*
X28484500Y-76476875D02*
X26984500Y-76476875D01*
X28484500Y-71076875D02*
X28484500Y-76476875D01*
X26984500Y-76476875D02*
X26984500Y-71076875D01*
X47234500Y-74280000D02*
X46234500Y-74280000D01*
X46734500Y-74180000D02*
X47234500Y-73280000D01*
X46234500Y-73280000D02*
X46734500Y-74180000D01*
X47234500Y-73280000D02*
X46234500Y-73280000D01*
X47484500Y-71080000D02*
X45984500Y-71080000D01*
X47484500Y-76480000D02*
X45984500Y-76480000D01*
X47484500Y-71080000D02*
X47484500Y-76480000D01*
X45984500Y-76480000D02*
X45984500Y-71080000D01*
X66207500Y-69530000D02*
X65207500Y-69530000D01*
X65707500Y-69430000D02*
X66207500Y-68530000D01*
X65207500Y-68530000D02*
X65707500Y-69430000D01*
X66207500Y-68530000D02*
X65207500Y-68530000D01*
X66457500Y-66330000D02*
X64957500Y-66330000D01*
X66457500Y-71730000D02*
X64957500Y-71730000D01*
X66457500Y-66330000D02*
X66457500Y-71730000D01*
X64957500Y-71730000D02*
X64957500Y-66330000D01*
X85207500Y-67155000D02*
X84207500Y-67155000D01*
X84707500Y-67055000D02*
X85207500Y-66155000D01*
X84207500Y-66155000D02*
X84707500Y-67055000D01*
X85207500Y-66155000D02*
X84207500Y-66155000D01*
X85457500Y-63955000D02*
X83957500Y-63955000D01*
X85457500Y-69355000D02*
X83957500Y-69355000D01*
X85457500Y-63955000D02*
X85457500Y-69355000D01*
X83957500Y-69355000D02*
X83957500Y-63955000D01*
X104207500Y-69530000D02*
X103207500Y-69530000D01*
X103707500Y-69430000D02*
X104207500Y-68530000D01*
X103207500Y-68530000D02*
X103707500Y-69430000D01*
X104207500Y-68530000D02*
X103207500Y-68530000D01*
X104457500Y-66330000D02*
X102957500Y-66330000D01*
X104457500Y-71730000D02*
X102957500Y-71730000D01*
X104457500Y-66330000D02*
X104457500Y-71730000D01*
X102957500Y-71730000D02*
X102957500Y-66330000D01*
X123207500Y-71905000D02*
X122207500Y-71905000D01*
X122707500Y-71805000D02*
X123207500Y-70905000D01*
X122207500Y-70905000D02*
X122707500Y-71805000D01*
X123207500Y-70905000D02*
X122207500Y-70905000D01*
X123457500Y-68705000D02*
X121957500Y-68705000D01*
X123457500Y-74105000D02*
X121957500Y-74105000D01*
X123457500Y-68705000D02*
X123457500Y-74105000D01*
X121957500Y-74105000D02*
X121957500Y-68705000D01*
X76657500Y-89270000D02*
X75657500Y-89270000D01*
X76157500Y-89170000D02*
X76657500Y-88270000D01*
X75657500Y-88270000D02*
X76157500Y-89170000D01*
X76657500Y-88270000D02*
X75657500Y-88270000D01*
X76907500Y-86070000D02*
X75407500Y-86070000D01*
X76907500Y-91470000D02*
X75407500Y-91470000D01*
X76907500Y-86070000D02*
X76907500Y-91470000D01*
X75407500Y-91470000D02*
X75407500Y-86070000D01*
X95664500Y-89265000D02*
X94664500Y-89265000D01*
X95164500Y-89165000D02*
X95664500Y-88265000D01*
X94664500Y-88265000D02*
X95164500Y-89165000D01*
X95664500Y-88265000D02*
X94664500Y-88265000D01*
X95914500Y-86065000D02*
X94414500Y-86065000D01*
X95914500Y-91465000D02*
X94414500Y-91465000D01*
X95914500Y-86065000D02*
X95914500Y-91465000D01*
X94414500Y-91465000D02*
X94414500Y-86065000D01*
X98507500Y-89265000D02*
X97507500Y-89265000D01*
X98007500Y-89165000D02*
X98507500Y-88265000D01*
X97507500Y-88265000D02*
X98007500Y-89165000D01*
X98507500Y-88265000D02*
X97507500Y-88265000D01*
X98757500Y-86065000D02*
X97257500Y-86065000D01*
X98757500Y-91465000D02*
X97257500Y-91465000D01*
X98757500Y-86065000D02*
X98757500Y-91465000D01*
X97257500Y-91465000D02*
X97257500Y-86065000D01*
X284714500Y-36275000D02*
X283714500Y-36275000D01*
X284214500Y-36175000D02*
X284714500Y-35275000D01*
X283714500Y-35275000D02*
X284214500Y-36175000D01*
X284714500Y-35275000D02*
X283714500Y-35275000D01*
X284964500Y-33075000D02*
X283464500Y-33075000D01*
X284964500Y-38475000D02*
X283464500Y-38475000D01*
X284964500Y-33075000D02*
X284964500Y-38475000D01*
X283464500Y-38475000D02*
X283464500Y-33075000D01*
X265714500Y-36275000D02*
X264714500Y-36275000D01*
X265214500Y-36175000D02*
X265714500Y-35275000D01*
X264714500Y-35275000D02*
X265214500Y-36175000D01*
X265714500Y-35275000D02*
X264714500Y-35275000D01*
X265964500Y-33075000D02*
X264464500Y-33075000D01*
X265964500Y-38475000D02*
X264464500Y-38475000D01*
X265964500Y-33075000D02*
X265964500Y-38475000D01*
X264464500Y-38475000D02*
X264464500Y-33075000D01*
X246714500Y-31525000D02*
X245714500Y-31525000D01*
X246214500Y-31425000D02*
X246714500Y-30525000D01*
X245714500Y-30525000D02*
X246214500Y-31425000D01*
X246714500Y-30525000D02*
X245714500Y-30525000D01*
X246964500Y-28325000D02*
X245464500Y-28325000D01*
X246964500Y-33725000D02*
X245464500Y-33725000D01*
X246964500Y-28325000D02*
X246964500Y-33725000D01*
X245464500Y-33725000D02*
X245464500Y-28325000D01*
X208714500Y-31525000D02*
X207714500Y-31525000D01*
X208214500Y-31425000D02*
X208714500Y-30525000D01*
X207714500Y-30525000D02*
X208214500Y-31425000D01*
X208714500Y-30525000D02*
X207714500Y-30525000D01*
X208964500Y-28325000D02*
X207464500Y-28325000D01*
X208964500Y-33725000D02*
X207464500Y-33725000D01*
X208964500Y-28325000D02*
X208964500Y-33725000D01*
X207464500Y-33725000D02*
X207464500Y-28325000D01*
X189707500Y-33905000D02*
X188707500Y-33905000D01*
X189207500Y-33805000D02*
X189707500Y-32905000D01*
X188707500Y-32905000D02*
X189207500Y-33805000D01*
X189707500Y-32905000D02*
X188707500Y-32905000D01*
X189957500Y-30705000D02*
X188457500Y-30705000D01*
X189957500Y-36105000D02*
X188457500Y-36105000D01*
X189957500Y-30705000D02*
X189957500Y-36105000D01*
X188457500Y-36105000D02*
X188457500Y-30705000D01*
X284714500Y-55125000D02*
X283714500Y-55125000D01*
X284214500Y-55025000D02*
X284714500Y-54125000D01*
X283714500Y-54125000D02*
X284214500Y-55025000D01*
X284714500Y-54125000D02*
X283714500Y-54125000D01*
X284964500Y-51925000D02*
X283464500Y-51925000D01*
X284964500Y-57325000D02*
X283464500Y-57325000D01*
X284964500Y-51925000D02*
X284964500Y-57325000D01*
X283464500Y-57325000D02*
X283464500Y-51925000D01*
X265714500Y-55275000D02*
X264714500Y-55275000D01*
X265214500Y-55175000D02*
X265714500Y-54275000D01*
X264714500Y-54275000D02*
X265214500Y-55175000D01*
X265714500Y-54275000D02*
X264714500Y-54275000D01*
X265964500Y-52075000D02*
X264464500Y-52075000D01*
X265964500Y-57475000D02*
X264464500Y-57475000D01*
X265964500Y-52075000D02*
X265964500Y-57475000D01*
X264464500Y-57475000D02*
X264464500Y-52075000D01*
X246714500Y-50525000D02*
X245714500Y-50525000D01*
X246214500Y-50425000D02*
X246714500Y-49525000D01*
X245714500Y-49525000D02*
X246214500Y-50425000D01*
X246714500Y-49525000D02*
X245714500Y-49525000D01*
X246964500Y-47325000D02*
X245464500Y-47325000D01*
X246964500Y-52725000D02*
X245464500Y-52725000D01*
X246964500Y-47325000D02*
X246964500Y-52725000D01*
X245464500Y-52725000D02*
X245464500Y-47325000D01*
X227714500Y-48150000D02*
X226714500Y-48150000D01*
X227214500Y-48050000D02*
X227714500Y-47150000D01*
X226714500Y-47150000D02*
X227214500Y-48050000D01*
X227714500Y-47150000D02*
X226714500Y-47150000D01*
X227964500Y-44950000D02*
X226464500Y-44950000D01*
X227964500Y-50350000D02*
X226464500Y-50350000D01*
X227964500Y-44950000D02*
X227964500Y-50350000D01*
X226464500Y-50350000D02*
X226464500Y-44950000D01*
X208714500Y-50525000D02*
X207714500Y-50525000D01*
X208214500Y-50425000D02*
X208714500Y-49525000D01*
X207714500Y-49525000D02*
X208214500Y-50425000D01*
X208714500Y-49525000D02*
X207714500Y-49525000D01*
X208964500Y-47325000D02*
X207464500Y-47325000D01*
X208964500Y-52725000D02*
X207464500Y-52725000D01*
X208964500Y-47325000D02*
X208964500Y-52725000D01*
X207464500Y-52725000D02*
X207464500Y-47325000D01*
X189707500Y-52905000D02*
X188707500Y-52905000D01*
X189207500Y-52805000D02*
X189707500Y-51905000D01*
X188707500Y-51905000D02*
X189207500Y-52805000D01*
X189707500Y-51905000D02*
X188707500Y-51905000D01*
X189957500Y-49705000D02*
X188457500Y-49705000D01*
X189957500Y-55105000D02*
X188457500Y-55105000D01*
X189957500Y-49705000D02*
X189957500Y-55105000D01*
X188457500Y-55105000D02*
X188457500Y-49705000D01*
X284714500Y-74275000D02*
X283714500Y-74275000D01*
X284214500Y-74175000D02*
X284714500Y-73275000D01*
X283714500Y-73275000D02*
X284214500Y-74175000D01*
X284714500Y-73275000D02*
X283714500Y-73275000D01*
X284964500Y-71075000D02*
X283464500Y-71075000D01*
X284964500Y-76475000D02*
X283464500Y-76475000D01*
X284964500Y-71075000D02*
X284964500Y-76475000D01*
X283464500Y-76475000D02*
X283464500Y-71075000D01*
X265714500Y-74275000D02*
X264714500Y-74275000D01*
X265214500Y-74175000D02*
X265714500Y-73275000D01*
X264714500Y-73275000D02*
X265214500Y-74175000D01*
X265714500Y-73275000D02*
X264714500Y-73275000D01*
X265964500Y-71075000D02*
X264464500Y-71075000D01*
X265964500Y-76475000D02*
X264464500Y-76475000D01*
X265964500Y-71075000D02*
X265964500Y-76475000D01*
X264464500Y-76475000D02*
X264464500Y-71075000D01*
X246714500Y-69525000D02*
X245714500Y-69525000D01*
X246214500Y-69425000D02*
X246714500Y-68525000D01*
X245714500Y-68525000D02*
X246214500Y-69425000D01*
X246714500Y-68525000D02*
X245714500Y-68525000D01*
X246964500Y-66325000D02*
X245464500Y-66325000D01*
X246964500Y-71725000D02*
X245464500Y-71725000D01*
X246964500Y-66325000D02*
X246964500Y-71725000D01*
X245464500Y-71725000D02*
X245464500Y-66325000D01*
X227714500Y-67150000D02*
X226714500Y-67150000D01*
X227214500Y-67050000D02*
X227714500Y-66150000D01*
X226714500Y-66150000D02*
X227214500Y-67050000D01*
X227714500Y-66150000D02*
X226714500Y-66150000D01*
X227964500Y-63950000D02*
X226464500Y-63950000D01*
X227964500Y-69350000D02*
X226464500Y-69350000D01*
X227964500Y-63950000D02*
X227964500Y-69350000D01*
X226464500Y-69350000D02*
X226464500Y-63950000D01*
X208714500Y-69525000D02*
X207714500Y-69525000D01*
X208214500Y-69425000D02*
X208714500Y-68525000D01*
X207714500Y-68525000D02*
X208214500Y-69425000D01*
X208714500Y-68525000D02*
X207714500Y-68525000D01*
X208964500Y-66325000D02*
X207464500Y-66325000D01*
X208964500Y-71725000D02*
X207464500Y-71725000D01*
X208964500Y-66325000D02*
X208964500Y-71725000D01*
X207464500Y-71725000D02*
X207464500Y-66325000D01*
X189707500Y-71905000D02*
X188707500Y-71905000D01*
X189207500Y-71805000D02*
X189707500Y-70905000D01*
X188707500Y-70905000D02*
X189207500Y-71805000D01*
X189707500Y-70905000D02*
X188707500Y-70905000D01*
X189957500Y-68705000D02*
X188457500Y-68705000D01*
X189957500Y-74105000D02*
X188457500Y-74105000D01*
X189957500Y-68705000D02*
X189957500Y-74105000D01*
X188457500Y-74105000D02*
X188457500Y-68705000D01*
X218214500Y-89135000D02*
X217214500Y-89135000D01*
X217714500Y-89035000D02*
X218214500Y-88135000D01*
X217214500Y-88135000D02*
X217714500Y-89035000D01*
X218214500Y-88135000D02*
X217214500Y-88135000D01*
X218464500Y-85935000D02*
X216964500Y-85935000D01*
X218464500Y-91335000D02*
X216964500Y-91335000D01*
X218464500Y-85935000D02*
X218464500Y-91335000D01*
X216964500Y-91335000D02*
X216964500Y-85935000D01*
X200164500Y-89150000D02*
X199164500Y-89150000D01*
X199664500Y-89050000D02*
X200164500Y-88150000D01*
X199164500Y-88150000D02*
X199664500Y-89050000D01*
X200164500Y-88150000D02*
X199164500Y-88150000D01*
X200414500Y-85950000D02*
X198914500Y-85950000D01*
X200414500Y-91350000D02*
X198914500Y-91350000D01*
X200414500Y-85950000D02*
X200414500Y-91350000D01*
X198914500Y-91350000D02*
X198914500Y-85950000D01*
X197314500Y-89150000D02*
X196314500Y-89150000D01*
X196814500Y-89050000D02*
X197314500Y-88150000D01*
X196314500Y-88150000D02*
X196814500Y-89050000D01*
X197314500Y-88150000D02*
X196314500Y-88150000D01*
X197564500Y-85950000D02*
X196064500Y-85950000D01*
X197564500Y-91350000D02*
X196064500Y-91350000D01*
X197564500Y-85950000D02*
X197564500Y-91350000D01*
X196064500Y-91350000D02*
X196064500Y-85950000D01*
X40236547Y-45867380D02*
X40712738Y-45867380D01*
X40712738Y-44867380D01*
X39903214Y-45343571D02*
X39569880Y-45343571D01*
X39427023Y-45867380D02*
X39903214Y-45867380D01*
X39903214Y-44867380D01*
X39427023Y-44867380D01*
X38998452Y-45867380D02*
X38998452Y-44867380D01*
X38760357Y-44867380D01*
X38617500Y-44915000D01*
X38522261Y-45010238D01*
X38474642Y-45105476D01*
X38427023Y-45295952D01*
X38427023Y-45438809D01*
X38474642Y-45629285D01*
X38522261Y-45724523D01*
X38617500Y-45819761D01*
X38760357Y-45867380D01*
X38998452Y-45867380D01*
X37474642Y-45867380D02*
X38046071Y-45867380D01*
X37760357Y-45867380D02*
X37760357Y-44867380D01*
X37855595Y-45010238D01*
X37950833Y-45105476D01*
X38046071Y-45153095D01*
X78286547Y-38747380D02*
X78762738Y-38747380D01*
X78762738Y-37747380D01*
X77953214Y-38223571D02*
X77619880Y-38223571D01*
X77477023Y-38747380D02*
X77953214Y-38747380D01*
X77953214Y-37747380D01*
X77477023Y-37747380D01*
X77048452Y-38747380D02*
X77048452Y-37747380D01*
X76810357Y-37747380D01*
X76667500Y-37795000D01*
X76572261Y-37890238D01*
X76524642Y-37985476D01*
X76477023Y-38175952D01*
X76477023Y-38318809D01*
X76524642Y-38509285D01*
X76572261Y-38604523D01*
X76667500Y-38699761D01*
X76810357Y-38747380D01*
X77048452Y-38747380D01*
X76096071Y-37842619D02*
X76048452Y-37795000D01*
X75953214Y-37747380D01*
X75715119Y-37747380D01*
X75619880Y-37795000D01*
X75572261Y-37842619D01*
X75524642Y-37937857D01*
X75524642Y-38033095D01*
X75572261Y-38175952D01*
X76143690Y-38747380D01*
X75524642Y-38747380D01*
X116306547Y-43497380D02*
X116782738Y-43497380D01*
X116782738Y-42497380D01*
X115973214Y-42973571D02*
X115639880Y-42973571D01*
X115497023Y-43497380D02*
X115973214Y-43497380D01*
X115973214Y-42497380D01*
X115497023Y-42497380D01*
X115068452Y-43497380D02*
X115068452Y-42497380D01*
X114830357Y-42497380D01*
X114687500Y-42545000D01*
X114592261Y-42640238D01*
X114544642Y-42735476D01*
X114497023Y-42925952D01*
X114497023Y-43068809D01*
X114544642Y-43259285D01*
X114592261Y-43354523D01*
X114687500Y-43449761D01*
X114830357Y-43497380D01*
X115068452Y-43497380D01*
X114163690Y-42497380D02*
X113544642Y-42497380D01*
X113877976Y-42878333D01*
X113735119Y-42878333D01*
X113639880Y-42925952D01*
X113592261Y-42973571D01*
X113544642Y-43068809D01*
X113544642Y-43306904D01*
X113592261Y-43402142D01*
X113639880Y-43449761D01*
X113735119Y-43497380D01*
X114020833Y-43497380D01*
X114116071Y-43449761D01*
X114163690Y-43402142D01*
X40356547Y-64897380D02*
X40832738Y-64897380D01*
X40832738Y-63897380D01*
X40023214Y-64373571D02*
X39689880Y-64373571D01*
X39547023Y-64897380D02*
X40023214Y-64897380D01*
X40023214Y-63897380D01*
X39547023Y-63897380D01*
X39118452Y-64897380D02*
X39118452Y-63897380D01*
X38880357Y-63897380D01*
X38737500Y-63945000D01*
X38642261Y-64040238D01*
X38594642Y-64135476D01*
X38547023Y-64325952D01*
X38547023Y-64468809D01*
X38594642Y-64659285D01*
X38642261Y-64754523D01*
X38737500Y-64849761D01*
X38880357Y-64897380D01*
X39118452Y-64897380D01*
X37689880Y-64230714D02*
X37689880Y-64897380D01*
X37927976Y-63849761D02*
X38166071Y-64564047D01*
X37547023Y-64564047D01*
X78356547Y-76627380D02*
X78832738Y-76627380D01*
X78832738Y-75627380D01*
X78023214Y-76103571D02*
X77689880Y-76103571D01*
X77547023Y-76627380D02*
X78023214Y-76627380D01*
X78023214Y-75627380D01*
X77547023Y-75627380D01*
X77118452Y-76627380D02*
X77118452Y-75627380D01*
X76880357Y-75627380D01*
X76737500Y-75675000D01*
X76642261Y-75770238D01*
X76594642Y-75865476D01*
X76547023Y-76055952D01*
X76547023Y-76198809D01*
X76594642Y-76389285D01*
X76642261Y-76484523D01*
X76737500Y-76579761D01*
X76880357Y-76627380D01*
X77118452Y-76627380D01*
X75642261Y-75627380D02*
X76118452Y-75627380D01*
X76166071Y-76103571D01*
X76118452Y-76055952D01*
X76023214Y-76008333D01*
X75785119Y-76008333D01*
X75689880Y-76055952D01*
X75642261Y-76103571D01*
X75594642Y-76198809D01*
X75594642Y-76436904D01*
X75642261Y-76532142D01*
X75689880Y-76579761D01*
X75785119Y-76627380D01*
X76023214Y-76627380D01*
X76118452Y-76579761D01*
X76166071Y-76532142D01*
X116276547Y-81437380D02*
X116752738Y-81437380D01*
X116752738Y-80437380D01*
X115943214Y-80913571D02*
X115609880Y-80913571D01*
X115467023Y-81437380D02*
X115943214Y-81437380D01*
X115943214Y-80437380D01*
X115467023Y-80437380D01*
X115038452Y-81437380D02*
X115038452Y-80437380D01*
X114800357Y-80437380D01*
X114657500Y-80485000D01*
X114562261Y-80580238D01*
X114514642Y-80675476D01*
X114467023Y-80865952D01*
X114467023Y-81008809D01*
X114514642Y-81199285D01*
X114562261Y-81294523D01*
X114657500Y-81389761D01*
X114800357Y-81437380D01*
X115038452Y-81437380D01*
X113609880Y-80437380D02*
X113800357Y-80437380D01*
X113895595Y-80485000D01*
X113943214Y-80532619D01*
X114038452Y-80675476D01*
X114086071Y-80865952D01*
X114086071Y-81246904D01*
X114038452Y-81342142D01*
X113990833Y-81389761D01*
X113895595Y-81437380D01*
X113705119Y-81437380D01*
X113609880Y-81389761D01*
X113562261Y-81342142D01*
X113514642Y-81246904D01*
X113514642Y-81008809D01*
X113562261Y-80913571D01*
X113609880Y-80865952D01*
X113705119Y-80818333D01*
X113895595Y-80818333D01*
X113990833Y-80865952D01*
X114038452Y-80913571D01*
X114086071Y-81008809D01*
X259402738Y-45742380D02*
X259878928Y-45742380D01*
X259878928Y-44742380D01*
X259069404Y-45218571D02*
X258736071Y-45218571D01*
X258593214Y-45742380D02*
X259069404Y-45742380D01*
X259069404Y-44742380D01*
X258593214Y-44742380D01*
X258164642Y-45742380D02*
X258164642Y-44742380D01*
X257926547Y-44742380D01*
X257783690Y-44790000D01*
X257688452Y-44885238D01*
X257640833Y-44980476D01*
X257593214Y-45170952D01*
X257593214Y-45313809D01*
X257640833Y-45504285D01*
X257688452Y-45599523D01*
X257783690Y-45694761D01*
X257926547Y-45742380D01*
X258164642Y-45742380D01*
X257212261Y-44837619D02*
X257164642Y-44790000D01*
X257069404Y-44742380D01*
X256831309Y-44742380D01*
X256736071Y-44790000D01*
X256688452Y-44837619D01*
X256640833Y-44932857D01*
X256640833Y-45028095D01*
X256688452Y-45170952D01*
X257259880Y-45742380D01*
X256640833Y-45742380D01*
X256069404Y-45170952D02*
X256164642Y-45123333D01*
X256212261Y-45075714D01*
X256259880Y-44980476D01*
X256259880Y-44932857D01*
X256212261Y-44837619D01*
X256164642Y-44790000D01*
X256069404Y-44742380D01*
X255878928Y-44742380D01*
X255783690Y-44790000D01*
X255736071Y-44837619D01*
X255688452Y-44932857D01*
X255688452Y-44980476D01*
X255736071Y-45075714D01*
X255783690Y-45123333D01*
X255878928Y-45170952D01*
X256069404Y-45170952D01*
X256164642Y-45218571D01*
X256212261Y-45266190D01*
X256259880Y-45361428D01*
X256259880Y-45551904D01*
X256212261Y-45647142D01*
X256164642Y-45694761D01*
X256069404Y-45742380D01*
X255878928Y-45742380D01*
X255783690Y-45694761D01*
X255736071Y-45647142D01*
X255688452Y-45551904D01*
X255688452Y-45361428D01*
X255736071Y-45266190D01*
X255783690Y-45218571D01*
X255878928Y-45170952D01*
X221402738Y-38617380D02*
X221878928Y-38617380D01*
X221878928Y-37617380D01*
X221069404Y-38093571D02*
X220736071Y-38093571D01*
X220593214Y-38617380D02*
X221069404Y-38617380D01*
X221069404Y-37617380D01*
X220593214Y-37617380D01*
X220164642Y-38617380D02*
X220164642Y-37617380D01*
X219926547Y-37617380D01*
X219783690Y-37665000D01*
X219688452Y-37760238D01*
X219640833Y-37855476D01*
X219593214Y-38045952D01*
X219593214Y-38188809D01*
X219640833Y-38379285D01*
X219688452Y-38474523D01*
X219783690Y-38569761D01*
X219926547Y-38617380D01*
X220164642Y-38617380D01*
X219212261Y-37712619D02*
X219164642Y-37665000D01*
X219069404Y-37617380D01*
X218831309Y-37617380D01*
X218736071Y-37665000D01*
X218688452Y-37712619D01*
X218640833Y-37807857D01*
X218640833Y-37903095D01*
X218688452Y-38045952D01*
X219259880Y-38617380D01*
X218640833Y-38617380D01*
X218164642Y-38617380D02*
X217974166Y-38617380D01*
X217878928Y-38569761D01*
X217831309Y-38522142D01*
X217736071Y-38379285D01*
X217688452Y-38188809D01*
X217688452Y-37807857D01*
X217736071Y-37712619D01*
X217783690Y-37665000D01*
X217878928Y-37617380D01*
X218069404Y-37617380D01*
X218164642Y-37665000D01*
X218212261Y-37712619D01*
X218259880Y-37807857D01*
X218259880Y-38045952D01*
X218212261Y-38141190D01*
X218164642Y-38188809D01*
X218069404Y-38236428D01*
X217878928Y-38236428D01*
X217783690Y-38188809D01*
X217736071Y-38141190D01*
X217688452Y-38045952D01*
X183402738Y-43367380D02*
X183878928Y-43367380D01*
X183878928Y-42367380D01*
X183069404Y-42843571D02*
X182736071Y-42843571D01*
X182593214Y-43367380D02*
X183069404Y-43367380D01*
X183069404Y-42367380D01*
X182593214Y-42367380D01*
X182164642Y-43367380D02*
X182164642Y-42367380D01*
X181926547Y-42367380D01*
X181783690Y-42415000D01*
X181688452Y-42510238D01*
X181640833Y-42605476D01*
X181593214Y-42795952D01*
X181593214Y-42938809D01*
X181640833Y-43129285D01*
X181688452Y-43224523D01*
X181783690Y-43319761D01*
X181926547Y-43367380D01*
X182164642Y-43367380D01*
X181259880Y-42367380D02*
X180640833Y-42367380D01*
X180974166Y-42748333D01*
X180831309Y-42748333D01*
X180736071Y-42795952D01*
X180688452Y-42843571D01*
X180640833Y-42938809D01*
X180640833Y-43176904D01*
X180688452Y-43272142D01*
X180736071Y-43319761D01*
X180831309Y-43367380D01*
X181117023Y-43367380D01*
X181212261Y-43319761D01*
X181259880Y-43272142D01*
X180021785Y-42367380D02*
X179926547Y-42367380D01*
X179831309Y-42415000D01*
X179783690Y-42462619D01*
X179736071Y-42557857D01*
X179688452Y-42748333D01*
X179688452Y-42986428D01*
X179736071Y-43176904D01*
X179783690Y-43272142D01*
X179831309Y-43319761D01*
X179926547Y-43367380D01*
X180021785Y-43367380D01*
X180117023Y-43319761D01*
X180164642Y-43272142D01*
X180212261Y-43176904D01*
X180259880Y-42986428D01*
X180259880Y-42748333D01*
X180212261Y-42557857D01*
X180164642Y-42462619D01*
X180117023Y-42415000D01*
X180021785Y-42367380D01*
X259402738Y-64742380D02*
X259878928Y-64742380D01*
X259878928Y-63742380D01*
X259069404Y-64218571D02*
X258736071Y-64218571D01*
X258593214Y-64742380D02*
X259069404Y-64742380D01*
X259069404Y-63742380D01*
X258593214Y-63742380D01*
X258164642Y-64742380D02*
X258164642Y-63742380D01*
X257926547Y-63742380D01*
X257783690Y-63790000D01*
X257688452Y-63885238D01*
X257640833Y-63980476D01*
X257593214Y-64170952D01*
X257593214Y-64313809D01*
X257640833Y-64504285D01*
X257688452Y-64599523D01*
X257783690Y-64694761D01*
X257926547Y-64742380D01*
X258164642Y-64742380D01*
X257259880Y-63742380D02*
X256640833Y-63742380D01*
X256974166Y-64123333D01*
X256831309Y-64123333D01*
X256736071Y-64170952D01*
X256688452Y-64218571D01*
X256640833Y-64313809D01*
X256640833Y-64551904D01*
X256688452Y-64647142D01*
X256736071Y-64694761D01*
X256831309Y-64742380D01*
X257117023Y-64742380D01*
X257212261Y-64694761D01*
X257259880Y-64647142D01*
X255688452Y-64742380D02*
X256259880Y-64742380D01*
X255974166Y-64742380D02*
X255974166Y-63742380D01*
X256069404Y-63885238D01*
X256164642Y-63980476D01*
X256259880Y-64028095D01*
X221402738Y-76617380D02*
X221878928Y-76617380D01*
X221878928Y-75617380D01*
X221069404Y-76093571D02*
X220736071Y-76093571D01*
X220593214Y-76617380D02*
X221069404Y-76617380D01*
X221069404Y-75617380D01*
X220593214Y-75617380D01*
X220164642Y-76617380D02*
X220164642Y-75617380D01*
X219926547Y-75617380D01*
X219783690Y-75665000D01*
X219688452Y-75760238D01*
X219640833Y-75855476D01*
X219593214Y-76045952D01*
X219593214Y-76188809D01*
X219640833Y-76379285D01*
X219688452Y-76474523D01*
X219783690Y-76569761D01*
X219926547Y-76617380D01*
X220164642Y-76617380D01*
X219259880Y-75617380D02*
X218640833Y-75617380D01*
X218974166Y-75998333D01*
X218831309Y-75998333D01*
X218736071Y-76045952D01*
X218688452Y-76093571D01*
X218640833Y-76188809D01*
X218640833Y-76426904D01*
X218688452Y-76522142D01*
X218736071Y-76569761D01*
X218831309Y-76617380D01*
X219117023Y-76617380D01*
X219212261Y-76569761D01*
X219259880Y-76522142D01*
X218259880Y-75712619D02*
X218212261Y-75665000D01*
X218117023Y-75617380D01*
X217878928Y-75617380D01*
X217783690Y-75665000D01*
X217736071Y-75712619D01*
X217688452Y-75807857D01*
X217688452Y-75903095D01*
X217736071Y-76045952D01*
X218307500Y-76617380D01*
X217688452Y-76617380D01*
X183522738Y-63669880D02*
X183998928Y-63669880D01*
X183998928Y-62669880D01*
X183189404Y-63146071D02*
X182856071Y-63146071D01*
X182713214Y-63669880D02*
X183189404Y-63669880D01*
X183189404Y-62669880D01*
X182713214Y-62669880D01*
X182284642Y-63669880D02*
X182284642Y-62669880D01*
X182046547Y-62669880D01*
X181903690Y-62717500D01*
X181808452Y-62812738D01*
X181760833Y-62907976D01*
X181713214Y-63098452D01*
X181713214Y-63241309D01*
X181760833Y-63431785D01*
X181808452Y-63527023D01*
X181903690Y-63622261D01*
X182046547Y-63669880D01*
X182284642Y-63669880D01*
X181379880Y-62669880D02*
X180760833Y-62669880D01*
X181094166Y-63050833D01*
X180951309Y-63050833D01*
X180856071Y-63098452D01*
X180808452Y-63146071D01*
X180760833Y-63241309D01*
X180760833Y-63479404D01*
X180808452Y-63574642D01*
X180856071Y-63622261D01*
X180951309Y-63669880D01*
X181237023Y-63669880D01*
X181332261Y-63622261D01*
X181379880Y-63574642D01*
X180427500Y-62669880D02*
X179808452Y-62669880D01*
X180141785Y-63050833D01*
X179998928Y-63050833D01*
X179903690Y-63098452D01*
X179856071Y-63146071D01*
X179808452Y-63241309D01*
X179808452Y-63479404D01*
X179856071Y-63574642D01*
X179903690Y-63622261D01*
X179998928Y-63669880D01*
X180284642Y-63669880D01*
X180379880Y-63622261D01*
X180427500Y-63574642D01*
X183162738Y-81432380D02*
X183638928Y-81432380D01*
X183638928Y-80432380D01*
X182829404Y-80908571D02*
X182496071Y-80908571D01*
X182353214Y-81432380D02*
X182829404Y-81432380D01*
X182829404Y-80432380D01*
X182353214Y-80432380D01*
X181924642Y-81432380D02*
X181924642Y-80432380D01*
X181686547Y-80432380D01*
X181543690Y-80480000D01*
X181448452Y-80575238D01*
X181400833Y-80670476D01*
X181353214Y-80860952D01*
X181353214Y-81003809D01*
X181400833Y-81194285D01*
X181448452Y-81289523D01*
X181543690Y-81384761D01*
X181686547Y-81432380D01*
X181924642Y-81432380D01*
X181019880Y-80432380D02*
X180400833Y-80432380D01*
X180734166Y-80813333D01*
X180591309Y-80813333D01*
X180496071Y-80860952D01*
X180448452Y-80908571D01*
X180400833Y-81003809D01*
X180400833Y-81241904D01*
X180448452Y-81337142D01*
X180496071Y-81384761D01*
X180591309Y-81432380D01*
X180877023Y-81432380D01*
X180972261Y-81384761D01*
X181019880Y-81337142D01*
X180067500Y-80432380D02*
X179448452Y-80432380D01*
X179781785Y-80813333D01*
X179638928Y-80813333D01*
X179543690Y-80860952D01*
X179496071Y-80908571D01*
X179448452Y-81003809D01*
X179448452Y-81241904D01*
X179496071Y-81337142D01*
X179543690Y-81384761D01*
X179638928Y-81432380D01*
X179924642Y-81432380D01*
X180019880Y-81384761D01*
X180067500Y-81337142D01*
X107031296Y-99567344D02*
X107491261Y-99690591D01*
X107750080Y-98724665D01*
X106844893Y-98975110D02*
X106522918Y-98888837D01*
X106249356Y-99357824D02*
X106709321Y-99481071D01*
X106968140Y-98515145D01*
X106508175Y-98391898D01*
X105835388Y-99246901D02*
X106094207Y-98280975D01*
X105864225Y-98219352D01*
X105713911Y-98228374D01*
X105597268Y-98295718D01*
X105526623Y-98375386D01*
X105431327Y-98547047D01*
X105394353Y-98685037D01*
X105391051Y-98881347D01*
X105412398Y-98985665D01*
X105479741Y-99102307D01*
X105605406Y-99185278D01*
X105835388Y-99246901D01*
X105149628Y-98126474D02*
X105115957Y-98068153D01*
X105036288Y-97997507D01*
X104806306Y-97935883D01*
X104701988Y-97957230D01*
X104643667Y-97990902D01*
X104573021Y-98070570D01*
X104548372Y-98162563D01*
X104557394Y-98312877D01*
X104961455Y-99012732D01*
X104363501Y-98852510D01*
X103794384Y-97664740D02*
X103978370Y-97714039D01*
X104058038Y-97784684D01*
X104091710Y-97843006D01*
X104146728Y-98005644D01*
X104143426Y-98201955D01*
X104044828Y-98569927D01*
X103974182Y-98649595D01*
X103915861Y-98683267D01*
X103811544Y-98704614D01*
X103627558Y-98655315D01*
X103547890Y-98584669D01*
X103514218Y-98526348D01*
X103492871Y-98422030D01*
X103554494Y-98192048D01*
X103625140Y-98112380D01*
X103683461Y-98078708D01*
X103787779Y-98057361D01*
X103971765Y-98106660D01*
X104051433Y-98177306D01*
X104085105Y-98235627D01*
X104106452Y-98339944D01*
X21196547Y-43889880D02*
X21672738Y-43889880D01*
X21672738Y-42889880D01*
X20863214Y-43366071D02*
X20529880Y-43366071D01*
X20387023Y-43889880D02*
X20863214Y-43889880D01*
X20863214Y-42889880D01*
X20387023Y-42889880D01*
X19958452Y-43889880D02*
X19958452Y-42889880D01*
X19720357Y-42889880D01*
X19577500Y-42937500D01*
X19482261Y-43032738D01*
X19434642Y-43127976D01*
X19387023Y-43318452D01*
X19387023Y-43461309D01*
X19434642Y-43651785D01*
X19482261Y-43747023D01*
X19577500Y-43842261D01*
X19720357Y-43889880D01*
X19958452Y-43889880D01*
X19053690Y-42889880D02*
X18387023Y-42889880D01*
X18815595Y-43889880D01*
X33766547Y-41819880D02*
X34242738Y-41819880D01*
X34242738Y-40819880D01*
X33433214Y-41296071D02*
X33099880Y-41296071D01*
X32957023Y-41819880D02*
X33433214Y-41819880D01*
X33433214Y-40819880D01*
X32957023Y-40819880D01*
X32528452Y-41819880D02*
X32528452Y-40819880D01*
X32290357Y-40819880D01*
X32147500Y-40867500D01*
X32052261Y-40962738D01*
X32004642Y-41057976D01*
X31957023Y-41248452D01*
X31957023Y-41391309D01*
X32004642Y-41581785D01*
X32052261Y-41677023D01*
X32147500Y-41772261D01*
X32290357Y-41819880D01*
X32528452Y-41819880D01*
X31385595Y-41248452D02*
X31480833Y-41200833D01*
X31528452Y-41153214D01*
X31576071Y-41057976D01*
X31576071Y-41010357D01*
X31528452Y-40915119D01*
X31480833Y-40867500D01*
X31385595Y-40819880D01*
X31195119Y-40819880D01*
X31099880Y-40867500D01*
X31052261Y-40915119D01*
X31004642Y-41010357D01*
X31004642Y-41057976D01*
X31052261Y-41153214D01*
X31099880Y-41200833D01*
X31195119Y-41248452D01*
X31385595Y-41248452D01*
X31480833Y-41296071D01*
X31528452Y-41343690D01*
X31576071Y-41438928D01*
X31576071Y-41629404D01*
X31528452Y-41724642D01*
X31480833Y-41772261D01*
X31385595Y-41819880D01*
X31195119Y-41819880D01*
X31099880Y-41772261D01*
X31052261Y-41724642D01*
X31004642Y-41629404D01*
X31004642Y-41438928D01*
X31052261Y-41343690D01*
X31099880Y-41296071D01*
X31195119Y-41248452D01*
X59196547Y-39139880D02*
X59672738Y-39139880D01*
X59672738Y-38139880D01*
X58863214Y-38616071D02*
X58529880Y-38616071D01*
X58387023Y-39139880D02*
X58863214Y-39139880D01*
X58863214Y-38139880D01*
X58387023Y-38139880D01*
X57958452Y-39139880D02*
X57958452Y-38139880D01*
X57720357Y-38139880D01*
X57577500Y-38187500D01*
X57482261Y-38282738D01*
X57434642Y-38377976D01*
X57387023Y-38568452D01*
X57387023Y-38711309D01*
X57434642Y-38901785D01*
X57482261Y-38997023D01*
X57577500Y-39092261D01*
X57720357Y-39139880D01*
X57958452Y-39139880D01*
X56910833Y-39139880D02*
X56720357Y-39139880D01*
X56625119Y-39092261D01*
X56577500Y-39044642D01*
X56482261Y-38901785D01*
X56434642Y-38711309D01*
X56434642Y-38330357D01*
X56482261Y-38235119D01*
X56529880Y-38187500D01*
X56625119Y-38139880D01*
X56815595Y-38139880D01*
X56910833Y-38187500D01*
X56958452Y-38235119D01*
X57006071Y-38330357D01*
X57006071Y-38568452D01*
X56958452Y-38663690D01*
X56910833Y-38711309D01*
X56815595Y-38758928D01*
X56625119Y-38758928D01*
X56529880Y-38711309D01*
X56482261Y-38663690D01*
X56434642Y-38568452D01*
X72242738Y-34694880D02*
X72718928Y-34694880D01*
X72718928Y-33694880D01*
X71909404Y-34171071D02*
X71576071Y-34171071D01*
X71433214Y-34694880D02*
X71909404Y-34694880D01*
X71909404Y-33694880D01*
X71433214Y-33694880D01*
X71004642Y-34694880D02*
X71004642Y-33694880D01*
X70766547Y-33694880D01*
X70623690Y-33742500D01*
X70528452Y-33837738D01*
X70480833Y-33932976D01*
X70433214Y-34123452D01*
X70433214Y-34266309D01*
X70480833Y-34456785D01*
X70528452Y-34552023D01*
X70623690Y-34647261D01*
X70766547Y-34694880D01*
X71004642Y-34694880D01*
X69480833Y-34694880D02*
X70052261Y-34694880D01*
X69766547Y-34694880D02*
X69766547Y-33694880D01*
X69861785Y-33837738D01*
X69957023Y-33932976D01*
X70052261Y-33980595D01*
X68861785Y-33694880D02*
X68766547Y-33694880D01*
X68671309Y-33742500D01*
X68623690Y-33790119D01*
X68576071Y-33885357D01*
X68528452Y-34075833D01*
X68528452Y-34313928D01*
X68576071Y-34504404D01*
X68623690Y-34599642D01*
X68671309Y-34647261D01*
X68766547Y-34694880D01*
X68861785Y-34694880D01*
X68957023Y-34647261D01*
X69004642Y-34599642D01*
X69052261Y-34504404D01*
X69099880Y-34313928D01*
X69099880Y-34075833D01*
X69052261Y-33885357D01*
X69004642Y-33790119D01*
X68957023Y-33742500D01*
X68861785Y-33694880D01*
X97672738Y-39139880D02*
X98148928Y-39139880D01*
X98148928Y-38139880D01*
X97339404Y-38616071D02*
X97006071Y-38616071D01*
X96863214Y-39139880D02*
X97339404Y-39139880D01*
X97339404Y-38139880D01*
X96863214Y-38139880D01*
X96434642Y-39139880D02*
X96434642Y-38139880D01*
X96196547Y-38139880D01*
X96053690Y-38187500D01*
X95958452Y-38282738D01*
X95910833Y-38377976D01*
X95863214Y-38568452D01*
X95863214Y-38711309D01*
X95910833Y-38901785D01*
X95958452Y-38997023D01*
X96053690Y-39092261D01*
X96196547Y-39139880D01*
X96434642Y-39139880D01*
X94910833Y-39139880D02*
X95482261Y-39139880D01*
X95196547Y-39139880D02*
X95196547Y-38139880D01*
X95291785Y-38282738D01*
X95387023Y-38377976D01*
X95482261Y-38425595D01*
X93958452Y-39139880D02*
X94529880Y-39139880D01*
X94244166Y-39139880D02*
X94244166Y-38139880D01*
X94339404Y-38282738D01*
X94434642Y-38377976D01*
X94529880Y-38425595D01*
X110242738Y-39444880D02*
X110718928Y-39444880D01*
X110718928Y-38444880D01*
X109909404Y-38921071D02*
X109576071Y-38921071D01*
X109433214Y-39444880D02*
X109909404Y-39444880D01*
X109909404Y-38444880D01*
X109433214Y-38444880D01*
X109004642Y-39444880D02*
X109004642Y-38444880D01*
X108766547Y-38444880D01*
X108623690Y-38492500D01*
X108528452Y-38587738D01*
X108480833Y-38682976D01*
X108433214Y-38873452D01*
X108433214Y-39016309D01*
X108480833Y-39206785D01*
X108528452Y-39302023D01*
X108623690Y-39397261D01*
X108766547Y-39444880D01*
X109004642Y-39444880D01*
X107480833Y-39444880D02*
X108052261Y-39444880D01*
X107766547Y-39444880D02*
X107766547Y-38444880D01*
X107861785Y-38587738D01*
X107957023Y-38682976D01*
X108052261Y-38730595D01*
X107099880Y-38540119D02*
X107052261Y-38492500D01*
X106957023Y-38444880D01*
X106718928Y-38444880D01*
X106623690Y-38492500D01*
X106576071Y-38540119D01*
X106528452Y-38635357D01*
X106528452Y-38730595D01*
X106576071Y-38873452D01*
X107147500Y-39444880D01*
X106528452Y-39444880D01*
X21672738Y-62889880D02*
X22148928Y-62889880D01*
X22148928Y-61889880D01*
X21339404Y-62366071D02*
X21006071Y-62366071D01*
X20863214Y-62889880D02*
X21339404Y-62889880D01*
X21339404Y-61889880D01*
X20863214Y-61889880D01*
X20434642Y-62889880D02*
X20434642Y-61889880D01*
X20196547Y-61889880D01*
X20053690Y-61937500D01*
X19958452Y-62032738D01*
X19910833Y-62127976D01*
X19863214Y-62318452D01*
X19863214Y-62461309D01*
X19910833Y-62651785D01*
X19958452Y-62747023D01*
X20053690Y-62842261D01*
X20196547Y-62889880D01*
X20434642Y-62889880D01*
X18910833Y-62889880D02*
X19482261Y-62889880D01*
X19196547Y-62889880D02*
X19196547Y-61889880D01*
X19291785Y-62032738D01*
X19387023Y-62127976D01*
X19482261Y-62175595D01*
X18577500Y-61889880D02*
X17958452Y-61889880D01*
X18291785Y-62270833D01*
X18148928Y-62270833D01*
X18053690Y-62318452D01*
X18006071Y-62366071D01*
X17958452Y-62461309D01*
X17958452Y-62699404D01*
X18006071Y-62794642D01*
X18053690Y-62842261D01*
X18148928Y-62889880D01*
X18434642Y-62889880D01*
X18529880Y-62842261D01*
X18577500Y-62794642D01*
X34242738Y-60819880D02*
X34718928Y-60819880D01*
X34718928Y-59819880D01*
X33909404Y-60296071D02*
X33576071Y-60296071D01*
X33433214Y-60819880D02*
X33909404Y-60819880D01*
X33909404Y-59819880D01*
X33433214Y-59819880D01*
X33004642Y-60819880D02*
X33004642Y-59819880D01*
X32766547Y-59819880D01*
X32623690Y-59867500D01*
X32528452Y-59962738D01*
X32480833Y-60057976D01*
X32433214Y-60248452D01*
X32433214Y-60391309D01*
X32480833Y-60581785D01*
X32528452Y-60677023D01*
X32623690Y-60772261D01*
X32766547Y-60819880D01*
X33004642Y-60819880D01*
X31480833Y-60819880D02*
X32052261Y-60819880D01*
X31766547Y-60819880D02*
X31766547Y-59819880D01*
X31861785Y-59962738D01*
X31957023Y-60057976D01*
X32052261Y-60105595D01*
X30623690Y-60153214D02*
X30623690Y-60819880D01*
X30861785Y-59772261D02*
X31099880Y-60486547D01*
X30480833Y-60486547D01*
X59672738Y-58139880D02*
X60148928Y-58139880D01*
X60148928Y-57139880D01*
X59339404Y-57616071D02*
X59006071Y-57616071D01*
X58863214Y-58139880D02*
X59339404Y-58139880D01*
X59339404Y-57139880D01*
X58863214Y-57139880D01*
X58434642Y-58139880D02*
X58434642Y-57139880D01*
X58196547Y-57139880D01*
X58053690Y-57187500D01*
X57958452Y-57282738D01*
X57910833Y-57377976D01*
X57863214Y-57568452D01*
X57863214Y-57711309D01*
X57910833Y-57901785D01*
X57958452Y-57997023D01*
X58053690Y-58092261D01*
X58196547Y-58139880D01*
X58434642Y-58139880D01*
X56910833Y-58139880D02*
X57482261Y-58139880D01*
X57196547Y-58139880D02*
X57196547Y-57139880D01*
X57291785Y-57282738D01*
X57387023Y-57377976D01*
X57482261Y-57425595D01*
X56006071Y-57139880D02*
X56482261Y-57139880D01*
X56529880Y-57616071D01*
X56482261Y-57568452D01*
X56387023Y-57520833D01*
X56148928Y-57520833D01*
X56053690Y-57568452D01*
X56006071Y-57616071D01*
X55958452Y-57711309D01*
X55958452Y-57949404D01*
X56006071Y-58044642D01*
X56053690Y-58092261D01*
X56148928Y-58139880D01*
X56387023Y-58139880D01*
X56482261Y-58092261D01*
X56529880Y-58044642D01*
X78672738Y-55764880D02*
X79148928Y-55764880D01*
X79148928Y-54764880D01*
X78339404Y-55241071D02*
X78006071Y-55241071D01*
X77863214Y-55764880D02*
X78339404Y-55764880D01*
X78339404Y-54764880D01*
X77863214Y-54764880D01*
X77434642Y-55764880D02*
X77434642Y-54764880D01*
X77196547Y-54764880D01*
X77053690Y-54812500D01*
X76958452Y-54907738D01*
X76910833Y-55002976D01*
X76863214Y-55193452D01*
X76863214Y-55336309D01*
X76910833Y-55526785D01*
X76958452Y-55622023D01*
X77053690Y-55717261D01*
X77196547Y-55764880D01*
X77434642Y-55764880D01*
X75910833Y-55764880D02*
X76482261Y-55764880D01*
X76196547Y-55764880D02*
X76196547Y-54764880D01*
X76291785Y-54907738D01*
X76387023Y-55002976D01*
X76482261Y-55050595D01*
X75053690Y-54764880D02*
X75244166Y-54764880D01*
X75339404Y-54812500D01*
X75387023Y-54860119D01*
X75482261Y-55002976D01*
X75529880Y-55193452D01*
X75529880Y-55574404D01*
X75482261Y-55669642D01*
X75434642Y-55717261D01*
X75339404Y-55764880D01*
X75148928Y-55764880D01*
X75053690Y-55717261D01*
X75006071Y-55669642D01*
X74958452Y-55574404D01*
X74958452Y-55336309D01*
X75006071Y-55241071D01*
X75053690Y-55193452D01*
X75148928Y-55145833D01*
X75339404Y-55145833D01*
X75434642Y-55193452D01*
X75482261Y-55241071D01*
X75529880Y-55336309D01*
X97672738Y-58139880D02*
X98148928Y-58139880D01*
X98148928Y-57139880D01*
X97339404Y-57616071D02*
X97006071Y-57616071D01*
X96863214Y-58139880D02*
X97339404Y-58139880D01*
X97339404Y-57139880D01*
X96863214Y-57139880D01*
X96434642Y-58139880D02*
X96434642Y-57139880D01*
X96196547Y-57139880D01*
X96053690Y-57187500D01*
X95958452Y-57282738D01*
X95910833Y-57377976D01*
X95863214Y-57568452D01*
X95863214Y-57711309D01*
X95910833Y-57901785D01*
X95958452Y-57997023D01*
X96053690Y-58092261D01*
X96196547Y-58139880D01*
X96434642Y-58139880D01*
X94910833Y-58139880D02*
X95482261Y-58139880D01*
X95196547Y-58139880D02*
X95196547Y-57139880D01*
X95291785Y-57282738D01*
X95387023Y-57377976D01*
X95482261Y-57425595D01*
X94577500Y-57139880D02*
X93910833Y-57139880D01*
X94339404Y-58139880D01*
X116672738Y-60514880D02*
X117148928Y-60514880D01*
X117148928Y-59514880D01*
X116339404Y-59991071D02*
X116006071Y-59991071D01*
X115863214Y-60514880D02*
X116339404Y-60514880D01*
X116339404Y-59514880D01*
X115863214Y-59514880D01*
X115434642Y-60514880D02*
X115434642Y-59514880D01*
X115196547Y-59514880D01*
X115053690Y-59562500D01*
X114958452Y-59657738D01*
X114910833Y-59752976D01*
X114863214Y-59943452D01*
X114863214Y-60086309D01*
X114910833Y-60276785D01*
X114958452Y-60372023D01*
X115053690Y-60467261D01*
X115196547Y-60514880D01*
X115434642Y-60514880D01*
X113910833Y-60514880D02*
X114482261Y-60514880D01*
X114196547Y-60514880D02*
X114196547Y-59514880D01*
X114291785Y-59657738D01*
X114387023Y-59752976D01*
X114482261Y-59800595D01*
X113339404Y-59943452D02*
X113434642Y-59895833D01*
X113482261Y-59848214D01*
X113529880Y-59752976D01*
X113529880Y-59705357D01*
X113482261Y-59610119D01*
X113434642Y-59562500D01*
X113339404Y-59514880D01*
X113148928Y-59514880D01*
X113053690Y-59562500D01*
X113006071Y-59610119D01*
X112958452Y-59705357D01*
X112958452Y-59752976D01*
X113006071Y-59848214D01*
X113053690Y-59895833D01*
X113148928Y-59943452D01*
X113339404Y-59943452D01*
X113434642Y-59991071D01*
X113482261Y-60038690D01*
X113529880Y-60133928D01*
X113529880Y-60324404D01*
X113482261Y-60419642D01*
X113434642Y-60467261D01*
X113339404Y-60514880D01*
X113148928Y-60514880D01*
X113053690Y-60467261D01*
X113006071Y-60419642D01*
X112958452Y-60324404D01*
X112958452Y-60133928D01*
X113006071Y-60038690D01*
X113053690Y-59991071D01*
X113148928Y-59943452D01*
X21672738Y-81889880D02*
X22148928Y-81889880D01*
X22148928Y-80889880D01*
X21339404Y-81366071D02*
X21006071Y-81366071D01*
X20863214Y-81889880D02*
X21339404Y-81889880D01*
X21339404Y-80889880D01*
X20863214Y-80889880D01*
X20434642Y-81889880D02*
X20434642Y-80889880D01*
X20196547Y-80889880D01*
X20053690Y-80937500D01*
X19958452Y-81032738D01*
X19910833Y-81127976D01*
X19863214Y-81318452D01*
X19863214Y-81461309D01*
X19910833Y-81651785D01*
X19958452Y-81747023D01*
X20053690Y-81842261D01*
X20196547Y-81889880D01*
X20434642Y-81889880D01*
X18910833Y-81889880D02*
X19482261Y-81889880D01*
X19196547Y-81889880D02*
X19196547Y-80889880D01*
X19291785Y-81032738D01*
X19387023Y-81127976D01*
X19482261Y-81175595D01*
X18434642Y-81889880D02*
X18244166Y-81889880D01*
X18148928Y-81842261D01*
X18101309Y-81794642D01*
X18006071Y-81651785D01*
X17958452Y-81461309D01*
X17958452Y-81080357D01*
X18006071Y-80985119D01*
X18053690Y-80937500D01*
X18148928Y-80889880D01*
X18339404Y-80889880D01*
X18434642Y-80937500D01*
X18482261Y-80985119D01*
X18529880Y-81080357D01*
X18529880Y-81318452D01*
X18482261Y-81413690D01*
X18434642Y-81461309D01*
X18339404Y-81508928D01*
X18148928Y-81508928D01*
X18053690Y-81461309D01*
X18006071Y-81413690D01*
X17958452Y-81318452D01*
X40672738Y-81889880D02*
X41148928Y-81889880D01*
X41148928Y-80889880D01*
X40339404Y-81366071D02*
X40006071Y-81366071D01*
X39863214Y-81889880D02*
X40339404Y-81889880D01*
X40339404Y-80889880D01*
X39863214Y-80889880D01*
X39434642Y-81889880D02*
X39434642Y-80889880D01*
X39196547Y-80889880D01*
X39053690Y-80937500D01*
X38958452Y-81032738D01*
X38910833Y-81127976D01*
X38863214Y-81318452D01*
X38863214Y-81461309D01*
X38910833Y-81651785D01*
X38958452Y-81747023D01*
X39053690Y-81842261D01*
X39196547Y-81889880D01*
X39434642Y-81889880D01*
X38482261Y-80985119D02*
X38434642Y-80937500D01*
X38339404Y-80889880D01*
X38101309Y-80889880D01*
X38006071Y-80937500D01*
X37958452Y-80985119D01*
X37910833Y-81080357D01*
X37910833Y-81175595D01*
X37958452Y-81318452D01*
X38529880Y-81889880D01*
X37910833Y-81889880D01*
X37291785Y-80889880D02*
X37196547Y-80889880D01*
X37101309Y-80937500D01*
X37053690Y-80985119D01*
X37006071Y-81080357D01*
X36958452Y-81270833D01*
X36958452Y-81508928D01*
X37006071Y-81699404D01*
X37053690Y-81794642D01*
X37101309Y-81842261D01*
X37196547Y-81889880D01*
X37291785Y-81889880D01*
X37387023Y-81842261D01*
X37434642Y-81794642D01*
X37482261Y-81699404D01*
X37529880Y-81508928D01*
X37529880Y-81270833D01*
X37482261Y-81080357D01*
X37434642Y-80985119D01*
X37387023Y-80937500D01*
X37291785Y-80889880D01*
X59672738Y-77139880D02*
X60148928Y-77139880D01*
X60148928Y-76139880D01*
X59339404Y-76616071D02*
X59006071Y-76616071D01*
X58863214Y-77139880D02*
X59339404Y-77139880D01*
X59339404Y-76139880D01*
X58863214Y-76139880D01*
X58434642Y-77139880D02*
X58434642Y-76139880D01*
X58196547Y-76139880D01*
X58053690Y-76187500D01*
X57958452Y-76282738D01*
X57910833Y-76377976D01*
X57863214Y-76568452D01*
X57863214Y-76711309D01*
X57910833Y-76901785D01*
X57958452Y-76997023D01*
X58053690Y-77092261D01*
X58196547Y-77139880D01*
X58434642Y-77139880D01*
X57482261Y-76235119D02*
X57434642Y-76187500D01*
X57339404Y-76139880D01*
X57101309Y-76139880D01*
X57006071Y-76187500D01*
X56958452Y-76235119D01*
X56910833Y-76330357D01*
X56910833Y-76425595D01*
X56958452Y-76568452D01*
X57529880Y-77139880D01*
X56910833Y-77139880D01*
X55958452Y-77139880D02*
X56529880Y-77139880D01*
X56244166Y-77139880D02*
X56244166Y-76139880D01*
X56339404Y-76282738D01*
X56434642Y-76377976D01*
X56529880Y-76425595D01*
X72242738Y-72694880D02*
X72718928Y-72694880D01*
X72718928Y-71694880D01*
X71909404Y-72171071D02*
X71576071Y-72171071D01*
X71433214Y-72694880D02*
X71909404Y-72694880D01*
X71909404Y-71694880D01*
X71433214Y-71694880D01*
X71004642Y-72694880D02*
X71004642Y-71694880D01*
X70766547Y-71694880D01*
X70623690Y-71742500D01*
X70528452Y-71837738D01*
X70480833Y-71932976D01*
X70433214Y-72123452D01*
X70433214Y-72266309D01*
X70480833Y-72456785D01*
X70528452Y-72552023D01*
X70623690Y-72647261D01*
X70766547Y-72694880D01*
X71004642Y-72694880D01*
X70052261Y-71790119D02*
X70004642Y-71742500D01*
X69909404Y-71694880D01*
X69671309Y-71694880D01*
X69576071Y-71742500D01*
X69528452Y-71790119D01*
X69480833Y-71885357D01*
X69480833Y-71980595D01*
X69528452Y-72123452D01*
X70099880Y-72694880D01*
X69480833Y-72694880D01*
X69099880Y-71790119D02*
X69052261Y-71742500D01*
X68957023Y-71694880D01*
X68718928Y-71694880D01*
X68623690Y-71742500D01*
X68576071Y-71790119D01*
X68528452Y-71885357D01*
X68528452Y-71980595D01*
X68576071Y-72123452D01*
X69147500Y-72694880D01*
X68528452Y-72694880D01*
X110242738Y-77444880D02*
X110718928Y-77444880D01*
X110718928Y-76444880D01*
X109909404Y-76921071D02*
X109576071Y-76921071D01*
X109433214Y-77444880D02*
X109909404Y-77444880D01*
X109909404Y-76444880D01*
X109433214Y-76444880D01*
X109004642Y-77444880D02*
X109004642Y-76444880D01*
X108766547Y-76444880D01*
X108623690Y-76492500D01*
X108528452Y-76587738D01*
X108480833Y-76682976D01*
X108433214Y-76873452D01*
X108433214Y-77016309D01*
X108480833Y-77206785D01*
X108528452Y-77302023D01*
X108623690Y-77397261D01*
X108766547Y-77444880D01*
X109004642Y-77444880D01*
X108052261Y-76540119D02*
X108004642Y-76492500D01*
X107909404Y-76444880D01*
X107671309Y-76444880D01*
X107576071Y-76492500D01*
X107528452Y-76540119D01*
X107480833Y-76635357D01*
X107480833Y-76730595D01*
X107528452Y-76873452D01*
X108099880Y-77444880D01*
X107480833Y-77444880D01*
X106623690Y-76778214D02*
X106623690Y-77444880D01*
X106861785Y-76397261D02*
X107099880Y-77111547D01*
X106480833Y-77111547D01*
X88172738Y-96764880D02*
X88648928Y-96764880D01*
X88648928Y-95764880D01*
X87839404Y-96241071D02*
X87506071Y-96241071D01*
X87363214Y-96764880D02*
X87839404Y-96764880D01*
X87839404Y-95764880D01*
X87363214Y-95764880D01*
X86934642Y-96764880D02*
X86934642Y-95764880D01*
X86696547Y-95764880D01*
X86553690Y-95812500D01*
X86458452Y-95907738D01*
X86410833Y-96002976D01*
X86363214Y-96193452D01*
X86363214Y-96336309D01*
X86410833Y-96526785D01*
X86458452Y-96622023D01*
X86553690Y-96717261D01*
X86696547Y-96764880D01*
X86934642Y-96764880D01*
X85982261Y-95860119D02*
X85934642Y-95812500D01*
X85839404Y-95764880D01*
X85601309Y-95764880D01*
X85506071Y-95812500D01*
X85458452Y-95860119D01*
X85410833Y-95955357D01*
X85410833Y-96050595D01*
X85458452Y-96193452D01*
X86029880Y-96764880D01*
X85410833Y-96764880D01*
X84506071Y-95764880D02*
X84982261Y-95764880D01*
X85029880Y-96241071D01*
X84982261Y-96193452D01*
X84887023Y-96145833D01*
X84648928Y-96145833D01*
X84553690Y-96193452D01*
X84506071Y-96241071D01*
X84458452Y-96336309D01*
X84458452Y-96574404D01*
X84506071Y-96669642D01*
X84553690Y-96717261D01*
X84648928Y-96764880D01*
X84887023Y-96764880D01*
X84982261Y-96717261D01*
X85029880Y-96669642D01*
X137671892Y-97562173D02*
X137909987Y-97149780D01*
X137043962Y-96649780D01*
X137051593Y-97588944D02*
X136884926Y-97877619D01*
X137267130Y-98263241D02*
X137505225Y-97850848D01*
X136639200Y-97350848D01*
X136401105Y-97763241D01*
X137052844Y-98634395D02*
X136186819Y-98134395D01*
X136067771Y-98340592D01*
X136037582Y-98488119D01*
X136072442Y-98618217D01*
X136131111Y-98707075D01*
X136272258Y-98843553D01*
X136395976Y-98914981D01*
X136584743Y-98968980D01*
X136691031Y-98975360D01*
X136821129Y-98940500D01*
X136933797Y-98840592D01*
X137052844Y-98634395D01*
X135793107Y-99006800D02*
X135728058Y-99024230D01*
X135639200Y-99082899D01*
X135520152Y-99289096D01*
X135513773Y-99395384D01*
X135531202Y-99460433D01*
X135589871Y-99549291D01*
X135672350Y-99596910D01*
X135819877Y-99627099D01*
X136600463Y-99417942D01*
X136290940Y-99954053D01*
X135258247Y-99742728D02*
X134924914Y-100320078D01*
X136005225Y-100448925D01*
X221082738Y-55844880D02*
X221558928Y-55844880D01*
X221558928Y-54844880D01*
X220749404Y-55321071D02*
X220416071Y-55321071D01*
X220273214Y-55844880D02*
X220749404Y-55844880D01*
X220749404Y-54844880D01*
X220273214Y-54844880D01*
X219844642Y-55844880D02*
X219844642Y-54844880D01*
X219606547Y-54844880D01*
X219463690Y-54892500D01*
X219368452Y-54987738D01*
X219320833Y-55082976D01*
X219273214Y-55273452D01*
X219273214Y-55416309D01*
X219320833Y-55606785D01*
X219368452Y-55702023D01*
X219463690Y-55797261D01*
X219606547Y-55844880D01*
X219844642Y-55844880D01*
X218416071Y-55178214D02*
X218416071Y-55844880D01*
X218654166Y-54797261D02*
X218892261Y-55511547D01*
X218273214Y-55511547D01*
X217987500Y-54844880D02*
X217368452Y-54844880D01*
X217701785Y-55225833D01*
X217558928Y-55225833D01*
X217463690Y-55273452D01*
X217416071Y-55321071D01*
X217368452Y-55416309D01*
X217368452Y-55654404D01*
X217416071Y-55749642D01*
X217463690Y-55797261D01*
X217558928Y-55844880D01*
X217844642Y-55844880D01*
X217939880Y-55797261D01*
X217987500Y-55749642D01*
X202082738Y-58219880D02*
X202558928Y-58219880D01*
X202558928Y-57219880D01*
X201749404Y-57696071D02*
X201416071Y-57696071D01*
X201273214Y-58219880D02*
X201749404Y-58219880D01*
X201749404Y-57219880D01*
X201273214Y-57219880D01*
X200844642Y-58219880D02*
X200844642Y-57219880D01*
X200606547Y-57219880D01*
X200463690Y-57267500D01*
X200368452Y-57362738D01*
X200320833Y-57457976D01*
X200273214Y-57648452D01*
X200273214Y-57791309D01*
X200320833Y-57981785D01*
X200368452Y-58077023D01*
X200463690Y-58172261D01*
X200606547Y-58219880D01*
X200844642Y-58219880D01*
X199416071Y-57553214D02*
X199416071Y-58219880D01*
X199654166Y-57172261D02*
X199892261Y-57886547D01*
X199273214Y-57886547D01*
X198463690Y-57553214D02*
X198463690Y-58219880D01*
X198701785Y-57172261D02*
X198939880Y-57886547D01*
X198320833Y-57886547D01*
X183082738Y-60594880D02*
X183558928Y-60594880D01*
X183558928Y-59594880D01*
X182749404Y-60071071D02*
X182416071Y-60071071D01*
X182273214Y-60594880D02*
X182749404Y-60594880D01*
X182749404Y-59594880D01*
X182273214Y-59594880D01*
X181844642Y-60594880D02*
X181844642Y-59594880D01*
X181606547Y-59594880D01*
X181463690Y-59642500D01*
X181368452Y-59737738D01*
X181320833Y-59832976D01*
X181273214Y-60023452D01*
X181273214Y-60166309D01*
X181320833Y-60356785D01*
X181368452Y-60452023D01*
X181463690Y-60547261D01*
X181606547Y-60594880D01*
X181844642Y-60594880D01*
X180416071Y-59928214D02*
X180416071Y-60594880D01*
X180654166Y-59547261D02*
X180892261Y-60261547D01*
X180273214Y-60261547D01*
X179416071Y-59594880D02*
X179892261Y-59594880D01*
X179939880Y-60071071D01*
X179892261Y-60023452D01*
X179797023Y-59975833D01*
X179558928Y-59975833D01*
X179463690Y-60023452D01*
X179416071Y-60071071D01*
X179368452Y-60166309D01*
X179368452Y-60404404D01*
X179416071Y-60499642D01*
X179463690Y-60547261D01*
X179558928Y-60594880D01*
X179797023Y-60594880D01*
X179892261Y-60547261D01*
X179939880Y-60499642D01*
X278082738Y-81969880D02*
X278558928Y-81969880D01*
X278558928Y-80969880D01*
X277749404Y-81446071D02*
X277416071Y-81446071D01*
X277273214Y-81969880D02*
X277749404Y-81969880D01*
X277749404Y-80969880D01*
X277273214Y-80969880D01*
X276844642Y-81969880D02*
X276844642Y-80969880D01*
X276606547Y-80969880D01*
X276463690Y-81017500D01*
X276368452Y-81112738D01*
X276320833Y-81207976D01*
X276273214Y-81398452D01*
X276273214Y-81541309D01*
X276320833Y-81731785D01*
X276368452Y-81827023D01*
X276463690Y-81922261D01*
X276606547Y-81969880D01*
X276844642Y-81969880D01*
X275416071Y-81303214D02*
X275416071Y-81969880D01*
X275654166Y-80922261D02*
X275892261Y-81636547D01*
X275273214Y-81636547D01*
X274463690Y-80969880D02*
X274654166Y-80969880D01*
X274749404Y-81017500D01*
X274797023Y-81065119D01*
X274892261Y-81207976D01*
X274939880Y-81398452D01*
X274939880Y-81779404D01*
X274892261Y-81874642D01*
X274844642Y-81922261D01*
X274749404Y-81969880D01*
X274558928Y-81969880D01*
X274463690Y-81922261D01*
X274416071Y-81874642D01*
X274368452Y-81779404D01*
X274368452Y-81541309D01*
X274416071Y-81446071D01*
X274463690Y-81398452D01*
X274558928Y-81350833D01*
X274749404Y-81350833D01*
X274844642Y-81398452D01*
X274892261Y-81446071D01*
X274939880Y-81541309D01*
X259082738Y-81969880D02*
X259558928Y-81969880D01*
X259558928Y-80969880D01*
X258749404Y-81446071D02*
X258416071Y-81446071D01*
X258273214Y-81969880D02*
X258749404Y-81969880D01*
X258749404Y-80969880D01*
X258273214Y-80969880D01*
X257844642Y-81969880D02*
X257844642Y-80969880D01*
X257606547Y-80969880D01*
X257463690Y-81017500D01*
X257368452Y-81112738D01*
X257320833Y-81207976D01*
X257273214Y-81398452D01*
X257273214Y-81541309D01*
X257320833Y-81731785D01*
X257368452Y-81827023D01*
X257463690Y-81922261D01*
X257606547Y-81969880D01*
X257844642Y-81969880D01*
X256416071Y-81303214D02*
X256416071Y-81969880D01*
X256654166Y-80922261D02*
X256892261Y-81636547D01*
X256273214Y-81636547D01*
X255987500Y-80969880D02*
X255320833Y-80969880D01*
X255749404Y-81969880D01*
X240082738Y-77219880D02*
X240558928Y-77219880D01*
X240558928Y-76219880D01*
X239749404Y-76696071D02*
X239416071Y-76696071D01*
X239273214Y-77219880D02*
X239749404Y-77219880D01*
X239749404Y-76219880D01*
X239273214Y-76219880D01*
X238844642Y-77219880D02*
X238844642Y-76219880D01*
X238606547Y-76219880D01*
X238463690Y-76267500D01*
X238368452Y-76362738D01*
X238320833Y-76457976D01*
X238273214Y-76648452D01*
X238273214Y-76791309D01*
X238320833Y-76981785D01*
X238368452Y-77077023D01*
X238463690Y-77172261D01*
X238606547Y-77219880D01*
X238844642Y-77219880D01*
X237416071Y-76553214D02*
X237416071Y-77219880D01*
X237654166Y-76172261D02*
X237892261Y-76886547D01*
X237273214Y-76886547D01*
X236749404Y-76648452D02*
X236844642Y-76600833D01*
X236892261Y-76553214D01*
X236939880Y-76457976D01*
X236939880Y-76410357D01*
X236892261Y-76315119D01*
X236844642Y-76267500D01*
X236749404Y-76219880D01*
X236558928Y-76219880D01*
X236463690Y-76267500D01*
X236416071Y-76315119D01*
X236368452Y-76410357D01*
X236368452Y-76457976D01*
X236416071Y-76553214D01*
X236463690Y-76600833D01*
X236558928Y-76648452D01*
X236749404Y-76648452D01*
X236844642Y-76696071D01*
X236892261Y-76743690D01*
X236939880Y-76838928D01*
X236939880Y-77029404D01*
X236892261Y-77124642D01*
X236844642Y-77172261D01*
X236749404Y-77219880D01*
X236558928Y-77219880D01*
X236463690Y-77172261D01*
X236416071Y-77124642D01*
X236368452Y-77029404D01*
X236368452Y-76838928D01*
X236416071Y-76743690D01*
X236463690Y-76696071D01*
X236558928Y-76648452D01*
X214652738Y-72774880D02*
X215128928Y-72774880D01*
X215128928Y-71774880D01*
X214319404Y-72251071D02*
X213986071Y-72251071D01*
X213843214Y-72774880D02*
X214319404Y-72774880D01*
X214319404Y-71774880D01*
X213843214Y-71774880D01*
X213414642Y-72774880D02*
X213414642Y-71774880D01*
X213176547Y-71774880D01*
X213033690Y-71822500D01*
X212938452Y-71917738D01*
X212890833Y-72012976D01*
X212843214Y-72203452D01*
X212843214Y-72346309D01*
X212890833Y-72536785D01*
X212938452Y-72632023D01*
X213033690Y-72727261D01*
X213176547Y-72774880D01*
X213414642Y-72774880D01*
X211986071Y-72108214D02*
X211986071Y-72774880D01*
X212224166Y-71727261D02*
X212462261Y-72441547D01*
X211843214Y-72441547D01*
X211414642Y-72774880D02*
X211224166Y-72774880D01*
X211128928Y-72727261D01*
X211081309Y-72679642D01*
X210986071Y-72536785D01*
X210938452Y-72346309D01*
X210938452Y-71965357D01*
X210986071Y-71870119D01*
X211033690Y-71822500D01*
X211128928Y-71774880D01*
X211319404Y-71774880D01*
X211414642Y-71822500D01*
X211462261Y-71870119D01*
X211509880Y-71965357D01*
X211509880Y-72203452D01*
X211462261Y-72298690D01*
X211414642Y-72346309D01*
X211319404Y-72393928D01*
X211128928Y-72393928D01*
X211033690Y-72346309D01*
X210986071Y-72298690D01*
X210938452Y-72203452D01*
X202358128Y-76712380D02*
X202834318Y-76712380D01*
X202834318Y-75712380D01*
X202024794Y-76188571D02*
X201691461Y-76188571D01*
X201548604Y-76712380D02*
X202024794Y-76712380D01*
X202024794Y-75712380D01*
X201548604Y-75712380D01*
X201120032Y-76712380D02*
X201120032Y-75712380D01*
X200881937Y-75712380D01*
X200739080Y-75760000D01*
X200643842Y-75855238D01*
X200596223Y-75950476D01*
X200548604Y-76140952D01*
X200548604Y-76283809D01*
X200596223Y-76474285D01*
X200643842Y-76569523D01*
X200739080Y-76664761D01*
X200881937Y-76712380D01*
X201120032Y-76712380D01*
X199643842Y-75712380D02*
X200120032Y-75712380D01*
X200167651Y-76188571D01*
X200120032Y-76140952D01*
X200024794Y-76093333D01*
X199786699Y-76093333D01*
X199691461Y-76140952D01*
X199643842Y-76188571D01*
X199596223Y-76283809D01*
X199596223Y-76521904D01*
X199643842Y-76617142D01*
X199691461Y-76664761D01*
X199786699Y-76712380D01*
X200024794Y-76712380D01*
X200120032Y-76664761D01*
X200167651Y-76617142D01*
X198977175Y-75712380D02*
X198881937Y-75712380D01*
X198786699Y-75760000D01*
X198739080Y-75807619D01*
X198691461Y-75902857D01*
X198643842Y-76093333D01*
X198643842Y-76331428D01*
X198691461Y-76521904D01*
X198739080Y-76617142D01*
X198786699Y-76664761D01*
X198881937Y-76712380D01*
X198977175Y-76712380D01*
X199072413Y-76664761D01*
X199120032Y-76617142D01*
X199167651Y-76521904D01*
X199215270Y-76331428D01*
X199215270Y-76093333D01*
X199167651Y-75902857D01*
X199120032Y-75807619D01*
X199072413Y-75760000D01*
X198977175Y-75712380D01*
X176652738Y-77524880D02*
X177128928Y-77524880D01*
X177128928Y-76524880D01*
X176319404Y-77001071D02*
X175986071Y-77001071D01*
X175843214Y-77524880D02*
X176319404Y-77524880D01*
X176319404Y-76524880D01*
X175843214Y-76524880D01*
X175414642Y-77524880D02*
X175414642Y-76524880D01*
X175176547Y-76524880D01*
X175033690Y-76572500D01*
X174938452Y-76667738D01*
X174890833Y-76762976D01*
X174843214Y-76953452D01*
X174843214Y-77096309D01*
X174890833Y-77286785D01*
X174938452Y-77382023D01*
X175033690Y-77477261D01*
X175176547Y-77524880D01*
X175414642Y-77524880D01*
X173938452Y-76524880D02*
X174414642Y-76524880D01*
X174462261Y-77001071D01*
X174414642Y-76953452D01*
X174319404Y-76905833D01*
X174081309Y-76905833D01*
X173986071Y-76953452D01*
X173938452Y-77001071D01*
X173890833Y-77096309D01*
X173890833Y-77334404D01*
X173938452Y-77429642D01*
X173986071Y-77477261D01*
X174081309Y-77524880D01*
X174319404Y-77524880D01*
X174414642Y-77477261D01*
X174462261Y-77429642D01*
X172938452Y-77524880D02*
X173509880Y-77524880D01*
X173224166Y-77524880D02*
X173224166Y-76524880D01*
X173319404Y-76667738D01*
X173414642Y-76762976D01*
X173509880Y-76810595D01*
X211476284Y-96634610D02*
X211952474Y-96634610D01*
X211952474Y-95634610D01*
X211142950Y-96110801D02*
X210809617Y-96110801D01*
X210666760Y-96634610D02*
X211142950Y-96634610D01*
X211142950Y-95634610D01*
X210666760Y-95634610D01*
X210238188Y-96634610D02*
X210238188Y-95634610D01*
X210000093Y-95634610D01*
X209857236Y-95682230D01*
X209761998Y-95777468D01*
X209714379Y-95872706D01*
X209666760Y-96063182D01*
X209666760Y-96206039D01*
X209714379Y-96396515D01*
X209761998Y-96491753D01*
X209857236Y-96586991D01*
X210000093Y-96634610D01*
X210238188Y-96634610D01*
X208761998Y-95634610D02*
X209238188Y-95634610D01*
X209285807Y-96110801D01*
X209238188Y-96063182D01*
X209142950Y-96015563D01*
X208904855Y-96015563D01*
X208809617Y-96063182D01*
X208761998Y-96110801D01*
X208714379Y-96206039D01*
X208714379Y-96444134D01*
X208761998Y-96539372D01*
X208809617Y-96586991D01*
X208904855Y-96634610D01*
X209142950Y-96634610D01*
X209238188Y-96586991D01*
X209285807Y-96539372D01*
X208333426Y-95729849D02*
X208285807Y-95682230D01*
X208190569Y-95634610D01*
X207952474Y-95634610D01*
X207857236Y-95682230D01*
X207809617Y-95729849D01*
X207761998Y-95825087D01*
X207761998Y-95920325D01*
X207809617Y-96063182D01*
X208381046Y-96634610D01*
X207761998Y-96634610D01*
X192765466Y-98741588D02*
X193225431Y-98618341D01*
X192966612Y-97652415D01*
X192307919Y-98321900D02*
X191985944Y-98408173D01*
X191983526Y-98951108D02*
X192443491Y-98827861D01*
X192184672Y-97861935D01*
X191724707Y-97985182D01*
X191569558Y-99062031D02*
X191310739Y-98096105D01*
X191080756Y-98157728D01*
X190955092Y-98240699D01*
X190887748Y-98357341D01*
X190866401Y-98461659D01*
X190869704Y-98657970D01*
X190906678Y-98795959D01*
X191001973Y-98967620D01*
X191072619Y-99047288D01*
X191189261Y-99114632D01*
X191339575Y-99123654D01*
X191569558Y-99062031D01*
X189884848Y-98478171D02*
X190344813Y-98354924D01*
X190514057Y-98802564D01*
X190455735Y-98768892D01*
X190351418Y-98747545D01*
X190121435Y-98809169D01*
X190041767Y-98879814D01*
X190008095Y-98938136D01*
X189986748Y-99042453D01*
X190048372Y-99272436D01*
X190119018Y-99352104D01*
X190177339Y-99385776D01*
X190281657Y-99407123D01*
X190511639Y-99345499D01*
X190591307Y-99274853D01*
X190624979Y-99216532D01*
X189516877Y-98576769D02*
X188918922Y-98736990D01*
X189339495Y-99018689D01*
X189201506Y-99055663D01*
X189121838Y-99126309D01*
X189088166Y-99184630D01*
X189066819Y-99288948D01*
X189128443Y-99518930D01*
X189199089Y-99598598D01*
X189257410Y-99632270D01*
X189361727Y-99653617D01*
X189637706Y-99579669D01*
X189717374Y-99509023D01*
X189751046Y-99450702D01*
X160509473Y-100522534D02*
X160747568Y-100934927D01*
X161613594Y-100434927D01*
X160796439Y-99971954D02*
X160629772Y-99683279D01*
X160104711Y-99821466D02*
X160342806Y-100233859D01*
X161208832Y-99733859D01*
X160970737Y-99321466D01*
X159890426Y-99450312D02*
X160756451Y-98950312D01*
X160637403Y-98744115D01*
X160524735Y-98644207D01*
X160394638Y-98609347D01*
X160288350Y-98615727D01*
X160099583Y-98669726D01*
X159975865Y-98741154D01*
X159834717Y-98877632D01*
X159776048Y-98966490D01*
X159741189Y-99096588D01*
X159771378Y-99244115D01*
X159890426Y-99450312D01*
X160018356Y-97671893D02*
X160256451Y-98084286D01*
X159867867Y-98363621D01*
X159885297Y-98298572D01*
X159878917Y-98192284D01*
X159759870Y-97986087D01*
X159671011Y-97927418D01*
X159605963Y-97909989D01*
X159499675Y-97916368D01*
X159293478Y-98035416D01*
X159234809Y-98124274D01*
X159217379Y-98189323D01*
X159223759Y-98295611D01*
X159342806Y-98501808D01*
X159431665Y-98560477D01*
X159496714Y-98577907D01*
X159277300Y-97055013D02*
X158699949Y-97388347D01*
X159726262Y-97070734D02*
X159226720Y-97634073D01*
X158917196Y-97097962D01*
X97672738Y-77139880D02*
X98148928Y-77139880D01*
X98148928Y-76139880D01*
X97339404Y-76616071D02*
X97006071Y-76616071D01*
X96863214Y-77139880D02*
X97339404Y-77139880D01*
X97339404Y-76139880D01*
X96863214Y-76139880D01*
X96434642Y-77139880D02*
X96434642Y-76139880D01*
X96196547Y-76139880D01*
X96053690Y-76187500D01*
X95958452Y-76282738D01*
X95910833Y-76377976D01*
X95863214Y-76568452D01*
X95863214Y-76711309D01*
X95910833Y-76901785D01*
X95958452Y-76997023D01*
X96053690Y-77092261D01*
X96196547Y-77139880D01*
X96434642Y-77139880D01*
X95482261Y-76235119D02*
X95434642Y-76187500D01*
X95339404Y-76139880D01*
X95101309Y-76139880D01*
X95006071Y-76187500D01*
X94958452Y-76235119D01*
X94910833Y-76330357D01*
X94910833Y-76425595D01*
X94958452Y-76568452D01*
X95529880Y-77139880D01*
X94910833Y-77139880D01*
X94577500Y-76139880D02*
X93958452Y-76139880D01*
X94291785Y-76520833D01*
X94148928Y-76520833D01*
X94053690Y-76568452D01*
X94006071Y-76616071D01*
X93958452Y-76711309D01*
X93958452Y-76949404D01*
X94006071Y-77044642D01*
X94053690Y-77092261D01*
X94148928Y-77139880D01*
X94434642Y-77139880D01*
X94529880Y-77092261D01*
X94577500Y-77044642D01*
X278082738Y-43969880D02*
X278558928Y-43969880D01*
X278558928Y-42969880D01*
X277749404Y-43446071D02*
X277416071Y-43446071D01*
X277273214Y-43969880D02*
X277749404Y-43969880D01*
X277749404Y-42969880D01*
X277273214Y-42969880D01*
X276844642Y-43969880D02*
X276844642Y-42969880D01*
X276606547Y-42969880D01*
X276463690Y-43017500D01*
X276368452Y-43112738D01*
X276320833Y-43207976D01*
X276273214Y-43398452D01*
X276273214Y-43541309D01*
X276320833Y-43731785D01*
X276368452Y-43827023D01*
X276463690Y-43922261D01*
X276606547Y-43969880D01*
X276844642Y-43969880D01*
X275939880Y-42969880D02*
X275320833Y-42969880D01*
X275654166Y-43350833D01*
X275511309Y-43350833D01*
X275416071Y-43398452D01*
X275368452Y-43446071D01*
X275320833Y-43541309D01*
X275320833Y-43779404D01*
X275368452Y-43874642D01*
X275416071Y-43922261D01*
X275511309Y-43969880D01*
X275797023Y-43969880D01*
X275892261Y-43922261D01*
X275939880Y-43874642D01*
X274463690Y-43303214D02*
X274463690Y-43969880D01*
X274701785Y-42922261D02*
X274939880Y-43636547D01*
X274320833Y-43636547D01*
X252652738Y-41899880D02*
X253128928Y-41899880D01*
X253128928Y-40899880D01*
X252319404Y-41376071D02*
X251986071Y-41376071D01*
X251843214Y-41899880D02*
X252319404Y-41899880D01*
X252319404Y-40899880D01*
X251843214Y-40899880D01*
X251414642Y-41899880D02*
X251414642Y-40899880D01*
X251176547Y-40899880D01*
X251033690Y-40947500D01*
X250938452Y-41042738D01*
X250890833Y-41137976D01*
X250843214Y-41328452D01*
X250843214Y-41471309D01*
X250890833Y-41661785D01*
X250938452Y-41757023D01*
X251033690Y-41852261D01*
X251176547Y-41899880D01*
X251414642Y-41899880D01*
X250509880Y-40899880D02*
X249890833Y-40899880D01*
X250224166Y-41280833D01*
X250081309Y-41280833D01*
X249986071Y-41328452D01*
X249938452Y-41376071D01*
X249890833Y-41471309D01*
X249890833Y-41709404D01*
X249938452Y-41804642D01*
X249986071Y-41852261D01*
X250081309Y-41899880D01*
X250367023Y-41899880D01*
X250462261Y-41852261D01*
X250509880Y-41804642D01*
X248986071Y-40899880D02*
X249462261Y-40899880D01*
X249509880Y-41376071D01*
X249462261Y-41328452D01*
X249367023Y-41280833D01*
X249128928Y-41280833D01*
X249033690Y-41328452D01*
X248986071Y-41376071D01*
X248938452Y-41471309D01*
X248938452Y-41709404D01*
X248986071Y-41804642D01*
X249033690Y-41852261D01*
X249128928Y-41899880D01*
X249367023Y-41899880D01*
X249462261Y-41852261D01*
X249509880Y-41804642D01*
X240082738Y-39219880D02*
X240558928Y-39219880D01*
X240558928Y-38219880D01*
X239749404Y-38696071D02*
X239416071Y-38696071D01*
X239273214Y-39219880D02*
X239749404Y-39219880D01*
X239749404Y-38219880D01*
X239273214Y-38219880D01*
X238844642Y-39219880D02*
X238844642Y-38219880D01*
X238606547Y-38219880D01*
X238463690Y-38267500D01*
X238368452Y-38362738D01*
X238320833Y-38457976D01*
X238273214Y-38648452D01*
X238273214Y-38791309D01*
X238320833Y-38981785D01*
X238368452Y-39077023D01*
X238463690Y-39172261D01*
X238606547Y-39219880D01*
X238844642Y-39219880D01*
X237939880Y-38219880D02*
X237320833Y-38219880D01*
X237654166Y-38600833D01*
X237511309Y-38600833D01*
X237416071Y-38648452D01*
X237368452Y-38696071D01*
X237320833Y-38791309D01*
X237320833Y-39029404D01*
X237368452Y-39124642D01*
X237416071Y-39172261D01*
X237511309Y-39219880D01*
X237797023Y-39219880D01*
X237892261Y-39172261D01*
X237939880Y-39124642D01*
X236463690Y-38219880D02*
X236654166Y-38219880D01*
X236749404Y-38267500D01*
X236797023Y-38315119D01*
X236892261Y-38457976D01*
X236939880Y-38648452D01*
X236939880Y-39029404D01*
X236892261Y-39124642D01*
X236844642Y-39172261D01*
X236749404Y-39219880D01*
X236558928Y-39219880D01*
X236463690Y-39172261D01*
X236416071Y-39124642D01*
X236368452Y-39029404D01*
X236368452Y-38791309D01*
X236416071Y-38696071D01*
X236463690Y-38648452D01*
X236558928Y-38600833D01*
X236749404Y-38600833D01*
X236844642Y-38648452D01*
X236892261Y-38696071D01*
X236939880Y-38791309D01*
X214652738Y-34774880D02*
X215128928Y-34774880D01*
X215128928Y-33774880D01*
X214319404Y-34251071D02*
X213986071Y-34251071D01*
X213843214Y-34774880D02*
X214319404Y-34774880D01*
X214319404Y-33774880D01*
X213843214Y-33774880D01*
X213414642Y-34774880D02*
X213414642Y-33774880D01*
X213176547Y-33774880D01*
X213033690Y-33822500D01*
X212938452Y-33917738D01*
X212890833Y-34012976D01*
X212843214Y-34203452D01*
X212843214Y-34346309D01*
X212890833Y-34536785D01*
X212938452Y-34632023D01*
X213033690Y-34727261D01*
X213176547Y-34774880D01*
X213414642Y-34774880D01*
X212509880Y-33774880D02*
X211890833Y-33774880D01*
X212224166Y-34155833D01*
X212081309Y-34155833D01*
X211986071Y-34203452D01*
X211938452Y-34251071D01*
X211890833Y-34346309D01*
X211890833Y-34584404D01*
X211938452Y-34679642D01*
X211986071Y-34727261D01*
X212081309Y-34774880D01*
X212367023Y-34774880D01*
X212462261Y-34727261D01*
X212509880Y-34679642D01*
X211557500Y-33774880D02*
X210890833Y-33774880D01*
X211319404Y-34774880D01*
X202082738Y-39219880D02*
X202558928Y-39219880D01*
X202558928Y-38219880D01*
X201749404Y-38696071D02*
X201416071Y-38696071D01*
X201273214Y-39219880D02*
X201749404Y-39219880D01*
X201749404Y-38219880D01*
X201273214Y-38219880D01*
X200844642Y-39219880D02*
X200844642Y-38219880D01*
X200606547Y-38219880D01*
X200463690Y-38267500D01*
X200368452Y-38362738D01*
X200320833Y-38457976D01*
X200273214Y-38648452D01*
X200273214Y-38791309D01*
X200320833Y-38981785D01*
X200368452Y-39077023D01*
X200463690Y-39172261D01*
X200606547Y-39219880D01*
X200844642Y-39219880D01*
X199939880Y-38219880D02*
X199320833Y-38219880D01*
X199654166Y-38600833D01*
X199511309Y-38600833D01*
X199416071Y-38648452D01*
X199368452Y-38696071D01*
X199320833Y-38791309D01*
X199320833Y-39029404D01*
X199368452Y-39124642D01*
X199416071Y-39172261D01*
X199511309Y-39219880D01*
X199797023Y-39219880D01*
X199892261Y-39172261D01*
X199939880Y-39124642D01*
X198749404Y-38648452D02*
X198844642Y-38600833D01*
X198892261Y-38553214D01*
X198939880Y-38457976D01*
X198939880Y-38410357D01*
X198892261Y-38315119D01*
X198844642Y-38267500D01*
X198749404Y-38219880D01*
X198558928Y-38219880D01*
X198463690Y-38267500D01*
X198416071Y-38315119D01*
X198368452Y-38410357D01*
X198368452Y-38457976D01*
X198416071Y-38553214D01*
X198463690Y-38600833D01*
X198558928Y-38648452D01*
X198749404Y-38648452D01*
X198844642Y-38696071D01*
X198892261Y-38743690D01*
X198939880Y-38838928D01*
X198939880Y-39029404D01*
X198892261Y-39124642D01*
X198844642Y-39172261D01*
X198749404Y-39219880D01*
X198558928Y-39219880D01*
X198463690Y-39172261D01*
X198416071Y-39124642D01*
X198368452Y-39029404D01*
X198368452Y-38838928D01*
X198416071Y-38743690D01*
X198463690Y-38696071D01*
X198558928Y-38648452D01*
X176652738Y-39524880D02*
X177128928Y-39524880D01*
X177128928Y-38524880D01*
X176319404Y-39001071D02*
X175986071Y-39001071D01*
X175843214Y-39524880D02*
X176319404Y-39524880D01*
X176319404Y-38524880D01*
X175843214Y-38524880D01*
X175414642Y-39524880D02*
X175414642Y-38524880D01*
X175176547Y-38524880D01*
X175033690Y-38572500D01*
X174938452Y-38667738D01*
X174890833Y-38762976D01*
X174843214Y-38953452D01*
X174843214Y-39096309D01*
X174890833Y-39286785D01*
X174938452Y-39382023D01*
X175033690Y-39477261D01*
X175176547Y-39524880D01*
X175414642Y-39524880D01*
X174509880Y-38524880D02*
X173890833Y-38524880D01*
X174224166Y-38905833D01*
X174081309Y-38905833D01*
X173986071Y-38953452D01*
X173938452Y-39001071D01*
X173890833Y-39096309D01*
X173890833Y-39334404D01*
X173938452Y-39429642D01*
X173986071Y-39477261D01*
X174081309Y-39524880D01*
X174367023Y-39524880D01*
X174462261Y-39477261D01*
X174509880Y-39429642D01*
X173414642Y-39524880D02*
X173224166Y-39524880D01*
X173128928Y-39477261D01*
X173081309Y-39429642D01*
X172986071Y-39286785D01*
X172938452Y-39096309D01*
X172938452Y-38715357D01*
X172986071Y-38620119D01*
X173033690Y-38572500D01*
X173128928Y-38524880D01*
X173319404Y-38524880D01*
X173414642Y-38572500D01*
X173462261Y-38620119D01*
X173509880Y-38715357D01*
X173509880Y-38953452D01*
X173462261Y-39048690D01*
X173414642Y-39096309D01*
X173319404Y-39143928D01*
X173128928Y-39143928D01*
X173033690Y-39096309D01*
X172986071Y-39048690D01*
X172938452Y-38953452D01*
X278082738Y-62969880D02*
X278558928Y-62969880D01*
X278558928Y-61969880D01*
X277749404Y-62446071D02*
X277416071Y-62446071D01*
X277273214Y-62969880D02*
X277749404Y-62969880D01*
X277749404Y-61969880D01*
X277273214Y-61969880D01*
X276844642Y-62969880D02*
X276844642Y-61969880D01*
X276606547Y-61969880D01*
X276463690Y-62017500D01*
X276368452Y-62112738D01*
X276320833Y-62207976D01*
X276273214Y-62398452D01*
X276273214Y-62541309D01*
X276320833Y-62731785D01*
X276368452Y-62827023D01*
X276463690Y-62922261D01*
X276606547Y-62969880D01*
X276844642Y-62969880D01*
X275416071Y-62303214D02*
X275416071Y-62969880D01*
X275654166Y-61922261D02*
X275892261Y-62636547D01*
X275273214Y-62636547D01*
X274701785Y-61969880D02*
X274606547Y-61969880D01*
X274511309Y-62017500D01*
X274463690Y-62065119D01*
X274416071Y-62160357D01*
X274368452Y-62350833D01*
X274368452Y-62588928D01*
X274416071Y-62779404D01*
X274463690Y-62874642D01*
X274511309Y-62922261D01*
X274606547Y-62969880D01*
X274701785Y-62969880D01*
X274797023Y-62922261D01*
X274844642Y-62874642D01*
X274892261Y-62779404D01*
X274939880Y-62588928D01*
X274939880Y-62350833D01*
X274892261Y-62160357D01*
X274844642Y-62065119D01*
X274797023Y-62017500D01*
X274701785Y-61969880D01*
X252652738Y-60899880D02*
X253128928Y-60899880D01*
X253128928Y-59899880D01*
X252319404Y-60376071D02*
X251986071Y-60376071D01*
X251843214Y-60899880D02*
X252319404Y-60899880D01*
X252319404Y-59899880D01*
X251843214Y-59899880D01*
X251414642Y-60899880D02*
X251414642Y-59899880D01*
X251176547Y-59899880D01*
X251033690Y-59947500D01*
X250938452Y-60042738D01*
X250890833Y-60137976D01*
X250843214Y-60328452D01*
X250843214Y-60471309D01*
X250890833Y-60661785D01*
X250938452Y-60757023D01*
X251033690Y-60852261D01*
X251176547Y-60899880D01*
X251414642Y-60899880D01*
X249986071Y-60233214D02*
X249986071Y-60899880D01*
X250224166Y-59852261D02*
X250462261Y-60566547D01*
X249843214Y-60566547D01*
X248938452Y-60899880D02*
X249509880Y-60899880D01*
X249224166Y-60899880D02*
X249224166Y-59899880D01*
X249319404Y-60042738D01*
X249414642Y-60137976D01*
X249509880Y-60185595D01*
X240082738Y-58219880D02*
X240558928Y-58219880D01*
X240558928Y-57219880D01*
X239749404Y-57696071D02*
X239416071Y-57696071D01*
X239273214Y-58219880D02*
X239749404Y-58219880D01*
X239749404Y-57219880D01*
X239273214Y-57219880D01*
X238844642Y-58219880D02*
X238844642Y-57219880D01*
X238606547Y-57219880D01*
X238463690Y-57267500D01*
X238368452Y-57362738D01*
X238320833Y-57457976D01*
X238273214Y-57648452D01*
X238273214Y-57791309D01*
X238320833Y-57981785D01*
X238368452Y-58077023D01*
X238463690Y-58172261D01*
X238606547Y-58219880D01*
X238844642Y-58219880D01*
X237416071Y-57553214D02*
X237416071Y-58219880D01*
X237654166Y-57172261D02*
X237892261Y-57886547D01*
X237273214Y-57886547D01*
X236939880Y-57315119D02*
X236892261Y-57267500D01*
X236797023Y-57219880D01*
X236558928Y-57219880D01*
X236463690Y-57267500D01*
X236416071Y-57315119D01*
X236368452Y-57410357D01*
X236368452Y-57505595D01*
X236416071Y-57648452D01*
X236987500Y-58219880D01*
X236368452Y-58219880D01*
M02*
